<mxfile host="app.diagrams.net" modified="2023-11-09T20:23:55.546Z" agent="Mozilla/5.0 (Windows NT 10.0; Win64; x64) AppleWebKit/537.36 (KHTML, like Gecko) Chrome/119.0.0.0 Safari/537.36" etag="OR1U5QPDj4YWxnexNH5w" version="21.8.0" type="device">
  <diagram name="Page-1" id="TcGX2hLXIdboA2FR3Xdz">
    <mxGraphModel dx="1593" dy="842" grid="1" gridSize="10" guides="1" tooltips="1" connect="1" arrows="1" fold="1" page="1" pageScale="1" pageWidth="850" pageHeight="1100" math="0" shadow="0">
      <root>
        <mxCell id="0" />
        <mxCell id="1" parent="0" />
        <mxCell id="Ff5pl8S5cZrspRFTCfV7-1" value="" style="rounded=0;whiteSpace=wrap;html=1;" vertex="1" parent="1">
          <mxGeometry x="160" y="480" width="320" height="160" as="geometry" />
        </mxCell>
        <mxCell id="Ff5pl8S5cZrspRFTCfV7-2" value="" style="endArrow=classic;startArrow=classic;html=1;rounded=0;" edge="1" parent="1">
          <mxGeometry width="50" height="50" relative="1" as="geometry">
            <mxPoint x="160" y="460" as="sourcePoint" />
            <mxPoint x="480" y="460" as="targetPoint" />
          </mxGeometry>
        </mxCell>
        <mxCell id="Ff5pl8S5cZrspRFTCfV7-3" value="100 mm" style="edgeLabel;html=1;align=center;verticalAlign=middle;resizable=0;points=[];" vertex="1" connectable="0" parent="Ff5pl8S5cZrspRFTCfV7-2">
          <mxGeometry x="-0.1631" relative="1" as="geometry">
            <mxPoint x="9" as="offset" />
          </mxGeometry>
        </mxCell>
        <mxCell id="Ff5pl8S5cZrspRFTCfV7-4" value="" style="endArrow=classic;startArrow=classic;html=1;rounded=0;" edge="1" parent="1">
          <mxGeometry width="50" height="50" relative="1" as="geometry">
            <mxPoint x="90" y="640" as="sourcePoint" />
            <mxPoint x="90" y="480" as="targetPoint" />
          </mxGeometry>
        </mxCell>
        <mxCell id="Ff5pl8S5cZrspRFTCfV7-5" value="49 mm" style="edgeLabel;html=1;align=center;verticalAlign=middle;resizable=0;points=[];" vertex="1" connectable="0" parent="Ff5pl8S5cZrspRFTCfV7-4">
          <mxGeometry x="-0.1934" relative="1" as="geometry">
            <mxPoint y="-15" as="offset" />
          </mxGeometry>
        </mxCell>
        <mxCell id="Ff5pl8S5cZrspRFTCfV7-6" value="" style="endArrow=classic;startArrow=classic;html=1;rounded=0;exitX=0;exitY=0.5;exitDx=0;exitDy=0;elbow=horizontal;entryX=0.281;entryY=0.5;entryDx=0;entryDy=0;entryPerimeter=0;" edge="1" parent="1" source="Ff5pl8S5cZrspRFTCfV7-1" target="Ff5pl8S5cZrspRFTCfV7-1">
          <mxGeometry width="50" height="50" relative="1" as="geometry">
            <mxPoint x="180" y="560" as="sourcePoint" />
            <mxPoint x="213" y="560" as="targetPoint" />
          </mxGeometry>
        </mxCell>
        <mxCell id="Ff5pl8S5cZrspRFTCfV7-8" value="20.4625 mm" style="edgeLabel;html=1;align=center;verticalAlign=middle;resizable=0;points=[];" vertex="1" connectable="0" parent="Ff5pl8S5cZrspRFTCfV7-6">
          <mxGeometry x="-0.2924" relative="1" as="geometry">
            <mxPoint x="18" as="offset" />
          </mxGeometry>
        </mxCell>
        <mxCell id="Ff5pl8S5cZrspRFTCfV7-9" value="" style="endArrow=classic;startArrow=classic;html=1;rounded=0;exitX=0.281;exitY=0.25;exitDx=0;exitDy=0;exitPerimeter=0;" edge="1" parent="1" source="Ff5pl8S5cZrspRFTCfV7-1">
          <mxGeometry width="50" height="50" relative="1" as="geometry">
            <mxPoint x="110" y="530" as="sourcePoint" />
            <mxPoint x="160" y="480" as="targetPoint" />
          </mxGeometry>
        </mxCell>
        <mxCell id="Ff5pl8S5cZrspRFTCfV7-10" value="25.0108 mm" style="edgeLabel;html=1;align=center;verticalAlign=middle;resizable=0;points=[];" vertex="1" connectable="0" parent="Ff5pl8S5cZrspRFTCfV7-9">
          <mxGeometry x="-0.2383" y="1" relative="1" as="geometry">
            <mxPoint x="5" y="-6" as="offset" />
          </mxGeometry>
        </mxCell>
        <mxCell id="Ff5pl8S5cZrspRFTCfV7-11" value="" style="endArrow=classic;startArrow=classic;html=1;rounded=0;exitX=0.281;exitY=0.5;exitDx=0;exitDy=0;exitPerimeter=0;entryX=0;entryY=0;entryDx=0;entryDy=0;" edge="1" parent="1" source="Ff5pl8S5cZrspRFTCfV7-1" target="Ff5pl8S5cZrspRFTCfV7-1">
          <mxGeometry width="50" height="50" relative="1" as="geometry">
            <mxPoint x="260" y="530" as="sourcePoint" />
            <mxPoint x="170" y="490" as="targetPoint" />
          </mxGeometry>
        </mxCell>
        <mxCell id="Ff5pl8S5cZrspRFTCfV7-12" value="35.9123 mm" style="edgeLabel;html=1;align=center;verticalAlign=middle;resizable=0;points=[];" vertex="1" connectable="0" parent="Ff5pl8S5cZrspRFTCfV7-11">
          <mxGeometry x="-0.2383" y="1" relative="1" as="geometry">
            <mxPoint x="-15" y="-6" as="offset" />
          </mxGeometry>
        </mxCell>
        <mxCell id="Ff5pl8S5cZrspRFTCfV7-13" value="" style="endArrow=classic;startArrow=classic;html=1;rounded=0;exitX=0.813;exitY=0.688;exitDx=0;exitDy=0;exitPerimeter=0;" edge="1" parent="1" source="Ff5pl8S5cZrspRFTCfV7-1">
          <mxGeometry width="50" height="50" relative="1" as="geometry">
            <mxPoint x="430" y="690" as="sourcePoint" />
            <mxPoint x="480" y="640" as="targetPoint" />
          </mxGeometry>
        </mxCell>
        <mxCell id="Ff5pl8S5cZrspRFTCfV7-14" value="24.9894 mm" style="edgeLabel;html=1;align=center;verticalAlign=middle;resizable=0;points=[];" vertex="1" connectable="0" parent="Ff5pl8S5cZrspRFTCfV7-13">
          <mxGeometry x="-0.2669" y="-2" relative="1" as="geometry">
            <mxPoint as="offset" />
          </mxGeometry>
        </mxCell>
        <mxCell id="Ff5pl8S5cZrspRFTCfV7-15" value="" style="endArrow=classic;startArrow=classic;html=1;rounded=0;entryX=1;entryY=0.5;entryDx=0;entryDy=0;exitX=0.813;exitY=0.688;exitDx=0;exitDy=0;exitPerimeter=0;elbow=horizontal;" edge="1" parent="1" source="Ff5pl8S5cZrspRFTCfV7-1" target="Ff5pl8S5cZrspRFTCfV7-1">
          <mxGeometry width="50" height="50" relative="1" as="geometry">
            <mxPoint x="320" y="590" as="sourcePoint" />
            <mxPoint x="370" y="540" as="targetPoint" />
          </mxGeometry>
        </mxCell>
        <mxCell id="Ff5pl8S5cZrspRFTCfV7-16" value="19.6617 mm" style="edgeLabel;html=1;align=center;verticalAlign=middle;resizable=0;points=[];" vertex="1" connectable="0" parent="Ff5pl8S5cZrspRFTCfV7-15">
          <mxGeometry x="0.3024" y="1" relative="1" as="geometry">
            <mxPoint x="-19" as="offset" />
          </mxGeometry>
        </mxCell>
        <mxCell id="Ff5pl8S5cZrspRFTCfV7-17" value="" style="endArrow=classic;startArrow=classic;html=1;rounded=0;" edge="1" parent="1">
          <mxGeometry width="50" height="50" relative="1" as="geometry">
            <mxPoint x="130" y="560" as="sourcePoint" />
            <mxPoint x="130" y="480" as="targetPoint" />
          </mxGeometry>
        </mxCell>
        <mxCell id="Ff5pl8S5cZrspRFTCfV7-18" value="24.5 mm" style="edgeLabel;html=1;align=center;verticalAlign=middle;resizable=0;points=[];" vertex="1" connectable="0" parent="Ff5pl8S5cZrspRFTCfV7-17">
          <mxGeometry x="-0.425" y="-1" relative="1" as="geometry">
            <mxPoint y="-17" as="offset" />
          </mxGeometry>
        </mxCell>
        <mxCell id="Ff5pl8S5cZrspRFTCfV7-19" value="" style="endArrow=classic;startArrow=classic;html=1;rounded=0;exitX=0;exitY=1;exitDx=0;exitDy=0;" edge="1" parent="1" source="Ff5pl8S5cZrspRFTCfV7-1">
          <mxGeometry width="50" height="50" relative="1" as="geometry">
            <mxPoint x="320" y="520" as="sourcePoint" />
            <mxPoint x="320" y="630" as="targetPoint" />
          </mxGeometry>
        </mxCell>
        <mxCell id="Ff5pl8S5cZrspRFTCfV7-20" value="50.8649 mm" style="edgeLabel;html=1;align=center;verticalAlign=middle;resizable=0;points=[];" vertex="1" connectable="0" parent="Ff5pl8S5cZrspRFTCfV7-19">
          <mxGeometry x="0.3555" relative="1" as="geometry">
            <mxPoint x="1" y="-3" as="offset" />
          </mxGeometry>
        </mxCell>
        <mxCell id="Ff5pl8S5cZrspRFTCfV7-21" value="" style="endArrow=classic;startArrow=classic;html=1;rounded=0;" edge="1" parent="1">
          <mxGeometry width="50" height="50" relative="1" as="geometry">
            <mxPoint x="160" y="680" as="sourcePoint" />
            <mxPoint x="320" y="680" as="targetPoint" />
          </mxGeometry>
        </mxCell>
        <mxCell id="Ff5pl8S5cZrspRFTCfV7-22" value="50 mm" style="edgeLabel;html=1;align=center;verticalAlign=middle;resizable=0;points=[];" vertex="1" connectable="0" parent="Ff5pl8S5cZrspRFTCfV7-21">
          <mxGeometry x="0.2668" y="1" relative="1" as="geometry">
            <mxPoint as="offset" />
          </mxGeometry>
        </mxCell>
        <mxCell id="Ff5pl8S5cZrspRFTCfV7-24" value="" style="endArrow=classic;startArrow=classic;html=1;rounded=0;exitX=0;exitY=1;exitDx=0;exitDy=0;" edge="1" parent="1" source="Ff5pl8S5cZrspRFTCfV7-1">
          <mxGeometry width="50" height="50" relative="1" as="geometry">
            <mxPoint x="320" y="520" as="sourcePoint" />
            <mxPoint x="320" y="650" as="targetPoint" />
          </mxGeometry>
        </mxCell>
        <mxCell id="Ff5pl8S5cZrspRFTCfV7-25" value="50.8737 mm" style="edgeLabel;html=1;align=center;verticalAlign=middle;resizable=0;points=[];" vertex="1" connectable="0" parent="Ff5pl8S5cZrspRFTCfV7-24">
          <mxGeometry x="0.2247" y="-1" relative="1" as="geometry">
            <mxPoint x="12" y="3" as="offset" />
          </mxGeometry>
        </mxCell>
        <mxCell id="Ff5pl8S5cZrspRFTCfV7-27" value="" style="rounded=0;whiteSpace=wrap;html=1;" vertex="1" parent="1">
          <mxGeometry x="460" y="190" width="200" height="120" as="geometry" />
        </mxCell>
        <mxCell id="Ff5pl8S5cZrspRFTCfV7-28" value="" style="endArrow=classic;startArrow=classic;html=1;rounded=0;" edge="1" parent="1">
          <mxGeometry width="50" height="50" relative="1" as="geometry">
            <mxPoint x="430" y="230" as="sourcePoint" />
            <mxPoint x="430" y="190" as="targetPoint" />
          </mxGeometry>
        </mxCell>
        <mxCell id="Ff5pl8S5cZrspRFTCfV7-29" value="" style="endArrow=classic;startArrow=classic;html=1;rounded=0;" edge="1" parent="1">
          <mxGeometry width="50" height="50" relative="1" as="geometry">
            <mxPoint x="430" y="190" as="sourcePoint" />
            <mxPoint x="430" y="170" as="targetPoint" />
          </mxGeometry>
        </mxCell>
        <mxCell id="Ff5pl8S5cZrspRFTCfV7-30" value="0.2" style="text;html=1;strokeColor=none;fillColor=none;align=center;verticalAlign=middle;whiteSpace=wrap;rounded=0;" vertex="1" parent="1">
          <mxGeometry x="350" y="160" width="60" height="30" as="geometry" />
        </mxCell>
        <mxCell id="Ff5pl8S5cZrspRFTCfV7-31" value="1.1 cm" style="text;html=1;strokeColor=none;fillColor=none;align=center;verticalAlign=middle;whiteSpace=wrap;rounded=0;" vertex="1" parent="1">
          <mxGeometry x="350" y="190" width="60" height="30" as="geometry" />
        </mxCell>
        <mxCell id="Ff5pl8S5cZrspRFTCfV7-32" value="" style="ellipse;whiteSpace=wrap;html=1;" vertex="1" parent="1">
          <mxGeometry x="170" y="80" width="80" height="80" as="geometry" />
        </mxCell>
        <mxCell id="Ff5pl8S5cZrspRFTCfV7-33" value="" style="endArrow=classic;startArrow=classic;html=1;rounded=0;exitX=0;exitY=0.5;exitDx=0;exitDy=0;" edge="1" parent="1" source="Ff5pl8S5cZrspRFTCfV7-32">
          <mxGeometry width="50" height="50" relative="1" as="geometry">
            <mxPoint x="210" y="119.80000000000001" as="sourcePoint" />
            <mxPoint x="250" y="120" as="targetPoint" />
          </mxGeometry>
        </mxCell>
        <mxCell id="Ff5pl8S5cZrspRFTCfV7-34" value="2.69 cm&lt;br&gt;Joystick" style="text;html=1;strokeColor=none;fillColor=none;align=center;verticalAlign=middle;whiteSpace=wrap;rounded=0;" vertex="1" parent="1">
          <mxGeometry x="180" y="120" width="60" height="30" as="geometry" />
        </mxCell>
        <mxCell id="Ff5pl8S5cZrspRFTCfV7-35" value="" style="ellipse;whiteSpace=wrap;html=1;" vertex="1" parent="1">
          <mxGeometry x="170" y="165" width="80" height="80" as="geometry" />
        </mxCell>
        <mxCell id="Ff5pl8S5cZrspRFTCfV7-36" value="1.4cm&lt;br&gt;Hole" style="text;html=1;strokeColor=none;fillColor=none;align=center;verticalAlign=middle;whiteSpace=wrap;rounded=0;" vertex="1" parent="1">
          <mxGeometry x="180" y="205" width="60" height="30" as="geometry" />
        </mxCell>
        <mxCell id="Ff5pl8S5cZrspRFTCfV7-37" value="" style="endArrow=classic;startArrow=classic;html=1;rounded=0;exitX=0;exitY=0.5;exitDx=0;exitDy=0;" edge="1" parent="1">
          <mxGeometry width="50" height="50" relative="1" as="geometry">
            <mxPoint x="170" y="204.6" as="sourcePoint" />
            <mxPoint x="250" y="204.6" as="targetPoint" />
          </mxGeometry>
        </mxCell>
        <mxCell id="Ff5pl8S5cZrspRFTCfV7-39" value="" style="endArrow=classic;startArrow=classic;html=1;rounded=0;" edge="1" parent="1">
          <mxGeometry width="50" height="50" relative="1" as="geometry">
            <mxPoint x="440" y="250" as="sourcePoint" />
            <mxPoint x="440" y="230" as="targetPoint" />
            <Array as="points">
              <mxPoint x="440" y="250" />
            </Array>
          </mxGeometry>
        </mxCell>
        <mxCell id="Ff5pl8S5cZrspRFTCfV7-40" value="0.3 cm" style="text;html=1;strokeColor=none;fillColor=none;align=center;verticalAlign=middle;whiteSpace=wrap;rounded=0;" vertex="1" parent="1">
          <mxGeometry x="360" y="230" width="60" height="30" as="geometry" />
        </mxCell>
        <mxCell id="Ff5pl8S5cZrspRFTCfV7-41" value="" style="endArrow=classic;startArrow=classic;html=1;rounded=0;" edge="1" parent="1">
          <mxGeometry width="50" height="50" relative="1" as="geometry">
            <mxPoint x="430" y="290" as="sourcePoint" />
            <mxPoint x="430" y="250" as="targetPoint" />
          </mxGeometry>
        </mxCell>
        <mxCell id="Ff5pl8S5cZrspRFTCfV7-42" value="1.85 cm" style="text;html=1;strokeColor=none;fillColor=none;align=center;verticalAlign=middle;whiteSpace=wrap;rounded=0;" vertex="1" parent="1">
          <mxGeometry x="360" y="260" width="60" height="30" as="geometry" />
        </mxCell>
        <mxCell id="Ff5pl8S5cZrspRFTCfV7-44" value="" style="endArrow=classic;startArrow=classic;html=1;rounded=0;" edge="1" parent="1">
          <mxGeometry width="50" height="50" relative="1" as="geometry">
            <mxPoint x="440" y="310" as="sourcePoint" />
            <mxPoint x="440" y="290" as="targetPoint" />
            <Array as="points">
              <mxPoint x="440" y="310" />
            </Array>
          </mxGeometry>
        </mxCell>
        <mxCell id="Ff5pl8S5cZrspRFTCfV7-45" value="0.2 cm" style="text;html=1;strokeColor=none;fillColor=none;align=center;verticalAlign=middle;whiteSpace=wrap;rounded=0;" vertex="1" parent="1">
          <mxGeometry x="360" y="290" width="60" height="30" as="geometry" />
        </mxCell>
        <mxCell id="Ff5pl8S5cZrspRFTCfV7-46" value="" style="endArrow=classic;startArrow=classic;html=1;rounded=0;" edge="1" parent="1">
          <mxGeometry width="50" height="50" relative="1" as="geometry">
            <mxPoint x="290" y="310" as="sourcePoint" />
            <mxPoint x="290" y="170" as="targetPoint" />
          </mxGeometry>
        </mxCell>
        <mxCell id="Ff5pl8S5cZrspRFTCfV7-50" value="3.65" style="edgeLabel;html=1;align=center;verticalAlign=middle;resizable=0;points=[];" vertex="1" connectable="0" parent="Ff5pl8S5cZrspRFTCfV7-46">
          <mxGeometry x="0.1343" y="-1" relative="1" as="geometry">
            <mxPoint as="offset" />
          </mxGeometry>
        </mxCell>
        <mxCell id="Ff5pl8S5cZrspRFTCfV7-47" value="" style="endArrow=classic;startArrow=classic;html=1;rounded=0;" edge="1" parent="1">
          <mxGeometry width="50" height="50" relative="1" as="geometry">
            <mxPoint x="320" y="310" as="sourcePoint" />
            <mxPoint x="320" y="190" as="targetPoint" />
          </mxGeometry>
        </mxCell>
        <mxCell id="Ff5pl8S5cZrspRFTCfV7-49" value="3.45" style="edgeLabel;html=1;align=center;verticalAlign=middle;resizable=0;points=[];" vertex="1" connectable="0" parent="Ff5pl8S5cZrspRFTCfV7-47">
          <mxGeometry x="0.3633" relative="1" as="geometry">
            <mxPoint as="offset" />
          </mxGeometry>
        </mxCell>
        <mxCell id="Ff5pl8S5cZrspRFTCfV7-51" value="" style="endArrow=classic;startArrow=classic;html=1;rounded=0;" edge="1" parent="1">
          <mxGeometry width="50" height="50" relative="1" as="geometry">
            <mxPoint x="350" y="290" as="sourcePoint" />
            <mxPoint x="349.6" y="190" as="targetPoint" />
          </mxGeometry>
        </mxCell>
        <mxCell id="Ff5pl8S5cZrspRFTCfV7-52" value="3.25" style="edgeLabel;html=1;align=center;verticalAlign=middle;resizable=0;points=[];" vertex="1" connectable="0" parent="Ff5pl8S5cZrspRFTCfV7-51">
          <mxGeometry x="0.3633" relative="1" as="geometry">
            <mxPoint as="offset" />
          </mxGeometry>
        </mxCell>
        <mxCell id="Ff5pl8S5cZrspRFTCfV7-53" value="" style="shape=image;verticalLabelPosition=bottom;labelBackgroundColor=default;verticalAlign=top;aspect=fixed;imageAspect=0;image=https://www.mouser.com/images/marketingid/2008/microsites/199579743/Dimensions.png;" vertex="1" parent="1">
          <mxGeometry x="500" y="340" width="335.21" height="160" as="geometry" />
        </mxCell>
        <mxCell id="Ff5pl8S5cZrspRFTCfV7-54" value="" style="shape=image;verticalLabelPosition=bottom;labelBackgroundColor=default;verticalAlign=top;aspect=fixed;imageAspect=0;image=data:image/png,iVBORw0KGgoAAAANSUhEUgAAA5AAAALhCAYAAAApRUv0AAAgAElEQVR4AezdV5Qc5b33exEkJCEBCiAJBZAACQQSAiEQUUIIRBI5R4ONjQ22MQabaKLIiJwNJicTTc7BgNPe3t57n6uz1rl41zrnvd6X791zVlXTrZnp6eqq6ama6urPRa+Z7qrqrvo/3+ep37eeDqP+/Nf/Cm5qgAEMYAADGMAABjCAAQxgAAPtGBjVbgXLQYQBDGAAAxjAAAYwgAEMYAADEQME0gysGWgMYAADGMAABjCAAQxgAAOpGCCQQEkFiitOrjhhAAMYwAAGMIABDGAAAwSSQBJIDGAAAxjAAAYwgAEMYAADqRggkEBJBYqrTa42YQADGMAABjCAAQxgAAMEkkASSAxgAAMYwAAGMIABDGAAA6kYIJBASQWKq02uNmEAAxjAAAYwgAEMYAADBJJAEkgMYAADGMAABjCAAQxgAAOpGCCQQEkFiqtNrjZhAAMYwAAGMIABDGAAAwSSQBJIDGAAAxjAAAYwgAEMYAADqRggkEBJBYqrTa42YQADGMAABjCAAQxgAAMEkkASSAxgAAMYwAAGMIABDGAAA6kYIJBASQWKq02uNmEAAxjAAAYwgAEMYAADBJJAEkgMYAADGMAABjCAAQxgAAOpGCCQQEkFiqtNrjZhAAMYwAAGMIABDGAAAwSSQBJIDGAAAxjAAAYwgAEMYAADqRggkEBJBYqrTa42YQADGMAABjCAAQxgAAMEkkASSAxgAAMYwAAGMIABDGAAA6kYIJBASQWKq02uNmEAAxjAAAYwgAEMYAADBJJAEkgMYAADGMAABjCAAQxgAAOpGCCQQEkFiqtNrjZhAAMYwAAGMIABDGAAAwSSQBJIDGAAAxjAAAYwgAEMYAADqRggkEBJBYqrTa42YQADGMAABjCAAQxgAAMEkkASSAxgAAMYwAAGMIABDGAAA6kYIJBASQWKq02uNmEAAxjAAAYwgAEMYAADBJJAEkgMYAADGMAABjCAAQxgAAOpGCCQQEkFiqtNrjZhAAMYwAAGMIABDGAAAwSSQBJIDGAAAxjAAAYwgAEMYAADqRggkEBJBYqrTa42YQADGMAABjCAAQxgAAMEkkASSAxgAAMYwAAGMIABDGAAA6kYIJBASQWKq02uNmEAAxjAAAYwgAEMYAADBJJAEkgMYAADGMAABjCAAQxgAAOpGCCQQEkFiqtNrjZhAAMYwAAGMIABDGAAAwSSQBJIDGAAAxjAAAYwgAEMYAADqRggkEBJBYqrTa42YQADGMAABjCAAQxgAAMEkkASSAxgAAMYwAAGMIABDGAAA6kYIJBASQWKq02uNmEAAxjAAAYwgAEMYAADBJJAEkgMYAADGMAABjCAAQxgAAOpGCCQQEkFiqtNrjZhAAMYwAAGMIABDGAAAwSSQBJIDGAAAxjAAAYwgAEMYAADqRggkEBJBYqrTa42YQADGMAABjCAAQxgAAMEkkASSAxgAAMYwAAGMIABDGAAA6kYIJBASQWKq02uNmEAAxjAAAYwgAEMYAADBJJAEkgMYAADGMAABjCAAQxgAAOpGCCQQEkFiqtNrjZhAAMYwAAGMIABDGAAAwSSQBJIDGAAAxjAAAYwgAEMYAADqRggkEBJBYqrTa42YQADGMAABjCAAQxgAAMEkkASSAxgAAMYwAAGMIABDGAAA6kYIJBASQWKq02uNmEAAxjAAAYwgAEMYAADBJJAEkgMYAADGMAABjCAAQxgAAOpGCCQQEkFiqtNrjZhAAMYwAAGMIABDGAAAwSSQBJIDGAAAxjAAAYwgAEMYAADqRggkEBJBYqrTa42YQADGMAABjCAAQxgAAMEkkASSAxgAAMYwAAGMIABDGAAA6kYIJBASQWKq02uNmEAAxjAAAYwgAEMYAADBJJAEkgMYAADGMAABjCAAQxgAAOpGCCQQEkFiqtNrjZhAAMYwAAGMIABDGAAAwSSQBJIDGAAAxjAAAYwgAEMYAADqRggkEBJBYqrTa42YQADGMAABjCAAQxgAAMEkkASSAxgAAMYwAAGMIABDGAAA6kYIJBASQWKq02uNmEAAxjAAAYwgAEMYAADBJJAEkgMYAADGMAABjCAAQxgAAOpGCCQQEkFiqtNrjZhAAMYwAAGMIABDGAAAwSSQBJIDGAAAxjAAAYwgAEMYAADqRggkEBJBYqrTa42YQADGMAABjCAAQxgAAMEkkASSAxgAAMYwAAGMIABDGAAA6kYIJBASQWKq02uNmEAAxjAAAYwgAEMYAADBJJAEkgMYAADGMAABjCAAQxgAAOpGCCQQEkFiqtNrjZhAAMYwAAGMIABDGAAAwSSQBJIDGAAAxjAAAYwgAEMYAADqRggkEBJBYqrTa42YQADGMAABjCAAQxgAAMEkkASSAxgAAMYwAAGMIABDGAAA6kYIJBASQWKq02uNmEAAxjAAAYwgAEMYAADBJJAEkgMYAADGMAABjCAAQxgAAOpGCCQQEkFiqtNrjZhAAMYwAAGMIABDGAAAwSSQBJIDGAAAxjAAAYwgAEMYAADqRggkEBJBYqrTa42YQADGMAABjCAAQxgAAMEkkASSAxgAAMYwAAGMIABDGAAA6kYIJBASQWKq02uNmEAAxjAAAYwgAEMYAADBJJAEkgMYAADGMAABjCAAQxgAAOpGCCQQEkFiqtNrjZhAAMYwAAGMIABDGAAAwSSQBJIDGAAAxjAAAYwgAEMYAADqRggkEBJBYqrTa42YQADGMAABjCAAQxgAAMEkkASSAxgAAMYwAAGMIABDGAAA6kYIJBASQWKq02uNmEAAxjAAAYwgAEMYAADBJJAEkgMYAADGMAABjCAAQxgAAOpGCCQQEkFiqtNrjZhAAMYwAAGMIABDGAAAwSSQBJIDGAAAxjAAAYwgAEMYAADqRggkEBJBYqrTa42YQADGMAABjCAAQxgAAMEkkASSAxgAAMYwAAGMIABDGAAA6kYIJBASQWKq02uNmEAAxjAAAYwgAEMYAADBJJAEkgMYAADGMAABjCAAQxgAAOpGCCQQEkFiqtNrjZhAAMYwAAGMIABDGAAAwSSQBJIDGAAAxjAAAYwgAEMYAADqRggkEBJBYqrTa42YQADGMAABjCAAQxgAAMEkkASSAxgAAMYwAAGMIABDGAAA6kYIJBASQWKq02uNmEAAxjAAAYwgAEMYAADBJJAEkgMYAADGMAABjCAAQxgAAOpGCCQQEkFiqtNrjZhAAMYwAAGMIABDGAAAwSSQBJIDGAAAxjAAAYwgAEMYAADqRggkEBJBYqrTa42YQADGMAABjCAAQxgAAMEkkASSAxgAAMYwAAGMIABDGAAA6kYIJBASQWKq02uNmEAAxjAAAYwgAEMYAADBJJAEkgMYAADGMAABjCAAQxgAAOpGCCQQEkFiqtNrjZhAAMYwEArBh554rlw4UWXOJ/IFG0ZuPyK34U71z/Udr1WrHncOISBkWeAQBrsDeIYwAAGMICBjhi46da7w4qVqzt6DqFw5ENhEW1w/Imnhl9ddhVWjDkY6GIGCGQXN14RA73X6I0TunbWzhjAQCcMEEj8pOWHQGIlLSvWKy8rBJJAugKEAQxgAAMY6IgBAlneoFe2EE4gsVI2Ju1PdiYJpNDQUWjQ6bJ3OjVTMwxgoGoMEEhMp2WaQGIlLSvWKy8rBJJAEkgMYAADGMBARwwQyPIGvbKFcAKJlbIxaX+yM0kghYaOQoNOl73TqZmaYQADVWOAQGI6LdMEEitpWbFeeVkhkASSQGIAAxjAAAY6YqCMAvnHtz4Mx594Wth221lh0eI9wpI99wrX3Xh7y+P86PO/hmOPPzmcePLpTbdjjjsp/OG51xrb3n7XA03rXHntTeGr7/7VWEf4HTz8EsjB64IXdekmBgik0OBkhwEMYAADGOiIgbIJ5FPPvRa23GqrMGrUqKbbzbeuH/RYz/7Bj5rW7bv9qaefHW/32df/aLneex/9edDn7qZgmPe+EkiilDdjnj9/xgik0OBkhwEMYAADGOiIgbIJ5EErVsWSN3HiFmHNEUeHE085M8yYMTN+bO7cHQY91s///O/hjLPPD2ed+6PG7YADV8bbbLbZZuGdD7+Kt3vsyRfixyZNmtxYL9pm3W33hK//8p+DPrdAuyHQEsgNtcCFWnQrAwRSaHCywwAGMIABDHTEwFAEMpKtN9/5tKPXHSx8vfrGB7HgRbOHv7nq+sbzP/LEc43Hn3j6pcbjgz1H/bEdd1oQb3PeDy9srP+bK6+LH1u2976Nx+rr99rft979LHz5zT8z1YFAkqZe6ydVPF4CKTRkGvir2Akck5MZBjCAgc4YSBLIaObu4cefCVdcfUM48+zzw4EHrQrbbT8vbLzxxrGI/f7pl4f1PPTCK2/Hzzt27Nim5507b4d42cuvvde0bCADv73q+njdLbbcMnzy5d8a659w0unx47vutjgctOKQ8KvLrgoff/HXxvKBz1PV+y+//l5ch0jUZ83eLux3wIpw2hnnhsuv+F144JGnwtvvfT5oTQhkZ32tqjw5ru7igkASyEEHeB25uzqy9tJeGMDASDIQCeTuS/YMV117Uzj3/J+E1YcdGXbZdVHYcsvBP4fY97OF115/a3jrvc+HfPvq2/9oOo99+e1/NH2hzVFHHx8Lz4KdFzatP1jtZs/eLl7/wosu6bd+dJx99z/6P3p77IOPPNVvvfpzdnJsZd727vsebarDwLpMmDgxRPVetXpN/Hbf3159Q9h//xXhkl9fOWit6jXz13iGgXIzQCAJpEEcAxjAAAYw0BEDkUCOGrVRW6EYKBjR/QkTJobJk6cM+fbmu5+13ffrb76jsW/RLGi7cHrJpVfE62+zzbSmdadNnxG2225u2GWXXcMuCxeF6POR0XEs3HVR07rR60yduvWQj62TuuS97RZbbNmo6WDtmvRYNGvbrg0sL7dAaJ/ebh8CKTQYxDGAAQxgAAMdMVB/C+sf3/wwRDNTl/z6inDCSaeFvfbeN0ybNiNRNO5Y/1BHr90uyD76++fDXnsvj/dh5apD275W9NnMrbeZFq8/2EzZZ1//W7/niN6aW5eldbfd229Zu33r5uXRW4/rxz3Y36lbbxP2XLp3/NMoP7/k8nDn+odC9LZXb2HtbfHoZubt+wZ2CaTQ0DMnOx1/Q8dXC7XAAAaGk4G6QLZ6zugzgpFwXHfjbSH6QppDDj0izF+wSzyT9+If38ntPPTcS2/GM4CR4Bx8yGGpXid6y2q0/uw526daPzrmbWfOjrf54Y8vSr1Nq1p1y+PRzO9O83cOO+w4Pxy86rBwznk/Dtdcty48/uQL4YNPv21ZBwJp7OkWxu1na1YJJIFsOcjrOK07jtqoDQYwgIENDLQTyJGo1Rt/+iTM2W5uLHa77rZ7+PiLDV+E02p/oi/Lqb81M5pZ7Lvesy+9GaZNmx6ib1/9/Ot/9Fs2evSY+HWuvPamfo/33d7/NV4I5IZ+gwm16FYGCCSBdLLDAAYwgAEMdMRA2QTyw8++C7ss3C2Wum23nRXuvvfReAY0mgV97qW34mO94+4Hw2Zjx4bFS/ZsHHs0OxrNPkYzawODXfTW1ilTpjYtj96mGW2zx9JlIXrdgdu5318SCGT/euBDPbqRAQIpNDjZYQADGMAABjpioGwCufseS2Opi8RusNsjjz8bli7bp7HsyqtvDO9/8k0YM6b2hTjX3XT7oPU4dM2RjW223nqbsOno0Y37P7340kG36cZwmOc+E0jClCdfnrsYvgik0OCEhwEMYAADGOiIgTIJ5Aeffhc233zzsNWkyYPe5u2wU/xlLkcedWwsfxtttHF49fX3w5ff/jNsM21a2Gff/RNrseLg1fFbWetiuuNOC8KpZ5ybuI1QuyHUEsgNtcCFWnQrAwRSaHDSwwAGMIABDHTEQJkEMksg+/0zL4e+36oavU01zfaffvW3EH2761PP/jHV+mmes1fWIZCkqVdYr/JxEkihwckPAxjAAAYw0BED3SqQVQ54ZT02Akkgy8qm/UrPJoEUGjoKDTpb+s6mVmqFAQxUlQECie20bBNIrKRlxXrlZYVAEkgCiQEMYAADGOiIAQJZ3qBXthBOILFSNibtT3YmCaTQ0FFo0Omydzo1UzMMYKBqDBBITKdlmkBiJS0r1isvKwSSQBJIDGAAAxjAQEcMEMjyBr2yhXACiZWyMWl/sjNJIIWGjkKDTpe906mZmmEAA1VjgEBiOi3TBBIraVmxXnlZIZAEkkBiAAMYwAAGOmKAQJY36JUthBNIrJSNSfuTnUkCKTR0FBp0uuydTs3UDAMYqBoDBBLTaZkmkFhJy4r1yssKgSSQBBIDGMAABjDQEQMEsrxBr2whnEBipWxM2p/sTBJIoaGj0KDTZe90aqZmGMBA1RggkJhOyzSBxEpaVqxXXlYIJIEkkBjAAAYwgIGOGCCQ5Q16ZQvhBBIrZWPS/mRnkkAKDR2FBp0ue6dTMzXDAAaqxgCBxHRapgkkVtKyYr3yskIgCSSBxAAGMIABDHTEAIEsb9ArWwgnkFgpG5P2JzuTBFJo6Cg06HTZO52aqRkGMFA1BggkptMyTSCxkpYV65WXFQJJIAkkBjCAAQxgoCMGCGR5g17ZQjiBxErZmLQ/2ZkkkEJDR6FBp8ve6dRMzTCAgaoxQCAxnZZpAomVtKxYr7ysEEgCSSAxgAEMYAADHTFAIMsb9MoWwgkkVsrGpP3JziSBFBo6Cg06XfZOp2ZqhgEMVI0BAonptEwTSKykZcV65WWFQBJIAokBDGAAAxjoiAECWd6gV7YQTiCxUjYm7U92Jgmk0NBRaNDpsnc6NVMzDGCgagwQSEynZZpAYiUtK9YrLysEkkASSAxgAAMYwEBHDBDI8ga9soVwAomVsjFpf7IzSSCFho5Cg06XvdOpmZphAANVY4BAYjot0wQSK2lZsV55WSGQBJJAYgADGMAABjpigECWN+iVLYQTSKyUjUn7k51JAik0dBQadLrsnU7N1AwDGKgaAwQS02mZJpBYScuK9crLCoEkkAQSAxjAAAYw0BEDBLK8Qa9sIZxAYqVsTNqf7EwSSKGho9Cg02XvdGqmZhjAQNUYIJCYTss0gcRKWlasV15WCCSBJJAYwAAGMICBjhggkOUNemUL4QQSK2Vj0v5kZ5JACg0dhQadLnunUzM1wwAGqsYAgcR0WqYJJFbSsmK98rJCIAkkgcQABjCAAQx0xACBLG/QK1sIJ5BYKRuT9ic7kwRSaOgoNOh02TudmqkZBjBQNQYIJKbTMk0gsZKWFeuVlxUCSSAJJAYwgAEMYKAjBghkeYNe2UI4gcRK2Zi0P9mZJJBCQ0ehQafL3unUTM0wgIGqMUAgMZ2WaQKJlbSsWK+8rBBIAkkgMYABDGAAAx0xQCDLG/TKFsIJJFbKxqT9yc4kgRQaOgoNOl32TqdmaoYBDFSNAQKJ6bRME0ispGXFeuVlhUASSAKJAQxgAAMY6IgBAlneoFe2EE4gsVI2Ju1PdiYJpNDQUWjQ6bJ3OjVTMwxgoGoMEEhMp2WaQGIlLSvWKy8rBJJAEkgMYAADGMBARwwQyPIGvbKFcAKJlbIxaX+yM0kghYaOQoNOl73TqZmaYQADVWOAQGI6LdMEEitpWbFeeVkhkASSQGIAAxjAAAY6YoBAljfolS2EE0islI1J+5OdSQIpNHQUGnS67J1OzdQMAxioGgMEEtNpmSaQWEnLivXKywqBJJAEEgMYwAAGMNARAwSyvEGvbCGcQGKlbEzan+xMEkihoaPQoNNl73RqpmYYwEDVGCCQmE7LNIHESlpWrFdeVggkgSSQGMAABjCAgY4YIJDlDXplC+EEEitlY9L+ZGeSQAoNHYUGnS57p1MzNcMABqrGAIHEdFqmCSRW0rJivfKyQiAJJIHEAAYwgAEMdMQAgSxv0CtbCCeQWCkbk/YnO5MEUmjoKDTodNk7nZqpGQYwUDUGCCSm0zJNILGSlhXrlZcVAkkgCSQGMIABDGCgIwYIZHmDXtlCOIHEStmYtD/ZmSSQQkNHoUGny97p1EzNMICBqjFAIDGdlmkCiZW0rFivvKwQSAJJIDGAAQxgAAMdMUAgyxv0yhbCCSRWysak/cnOJIEUGjoKDTpd9k6nZmqGAQxUjQECiem0TBNIrKRlxXrlZYVAEkgCiQEMYAADGOiIAQJZ3qBXthBOILFSNibtT3YmCaTQ0FFo0Omydzo1UzMMYKBqDBBITKdlmkBiJS0r1isvKwSSQBJIDGAAAxjAQEcMEMjyBr2yhXACiZWyMWl/sjNJIIWGjkKDTpe906mZmmEAA1VjgEBiOi3TBBIraVmxXnlZIZAEkkBiAAMYwAAGOmKAQJY36JUthBNIrJSNSfuTnUkCKTR0FBp0uuydTs3UDAMYqBoDBBLTaZkmkFhJy4r1yssKgSSQBBIDGMAABjDQEQMEsrxBr2whnEBipWxM2p/sTBJIoaGj0KDTZe90aqZmGMBA1RggkJhOyzSBxEpaVqxXXlYIJIEkkBjAAAYwgIGOGCCQ5Q16ZQvhBBIrZWPS/mRnkkAKDR2FBp0ue6dTMzXDAAaqxgCBxHRapgkkVtKyYr3yskIgCSSBxAAGMIABDHTEAIEsb9ArWwgnkFgpG5P2JzuTBFJo6Cg06HTZO52aqRkGMFA1BggkptMyTSCxkpYV65WXFQJJIAkkBjCAAQxgoCMGCGR5g17ZQjiBxErZmLQ/2ZkkkEJDR6FBp8ve6dRMzTCAgaoxQCAxnZZpAomVtKxYr7ysEEgCSSAxgAEMYAADHTFAIMsb9MoWwgkkVsrGpP3JziSBFBo6Cg06XfZOp2ZqhgEMVI0BAonptEwTSKykZcV65WWFQBJIAokBDGAAAxjoiAECWd6gV7YQTiCxUjYm7U92Jgmk0NBRaNDpsnc6NVMzDGCgagwQSEynZZpAYiUtK9YrLysEkkASSAxgAAMYwEBHDBDI8ga9soVwAomVsjFpf7IzSSCFho5Cg06XvdOpmZphAANVY4BAYjot0wQSK2lZsV55WSGQBJJAYgADGMAABjpigECWN+iVLYQTSKyUjUn7k51JApkxNFx17U3hxz/9RUcnWqBmB1XN1AwDGMBAeRkgkOVtm7L1GwJZLCt/fOO98Mzzr8itGfN+2fpN2faHQGYE6uJfXh5OOe0sHTFj3coGvv0p9gSm3uqNgWozQCCr3b7D2X8JZLGsvPTqW+GJJ5+RW+XWYWWAQGYEikAWO/AN50nLc2k7DGAAA/kwQCDzqWsVeSWQxbJCIIutdxX77GDHRCAJ5LBekRgMMo8ZvDCAAQxUmwECWe32Hc7+SyCLZYVAFlvv4ewrZX4uAkkgCWRGBsrcoe2bEwUGMDASDBBI3KXljkAWywqBLLbeaftBt69HIDPKg7ew6ojd3untP4YxgIHhZoBAYiotUwSyWFYIZLH1TtsPun09AkkgzUBmZKDbO739dzLBAAaGmwECiam0TBHIYlkhkMXWO20/6Pb1CGRGeTADqSN2e6e3/xjGAAaGmwECiam0TBHIYlkhkMXWO20/6Pb1CCSBNAOZkYFu7/T238kEAxgYbgYIJKbSMkUgi2WFQBZb77T9oNvXI5AZ5cEMpI7Y7Z3e/mMYAxgYbgYIJKbSMkUgi2WFQBZb77T9oNvXI5AE0gxkRga6vdPbfycTDGBguBkgkJhKyxSBLJYVAllsvdP2g25fj0BmlAczkDpit3d6+49hDGBguBkgkJhKyxSBLJYVAllsvdP2g25fj0CmFMgXXn077LDDTmHatBlh8uQpYYcdF4R7Hnjc7F3K+nV7R7H/BmAMYAADrRkgkK1rg5v+tSGQ/euRFx8ff/6XcOdd68Ntt98R1t1ya7jr7nvCm3/6SG6VW4eFAQKZEqRfXnpFGDVqVL/bqaefPSyNkNfg4XmLGaTVWZ0xgIFeZ4BA6gNp+wCBLIaVl//4drj++uv73R5/8hm5NWXuT8tzr65HIFOCtP7+x/rJYySTv73qBh0xZf16tYM57mJOlOqszhgYWQYI5MjWv5v4J5DFsPLO+5/3k8dIJl969U25VW4dFgYIZEqQXnvroyaBfOgxV3K66aRlX4s5aamzOmOg9xggkL3X5kPt5wSyGFY+++rvTQL59nufDos8DLXtbVdM2xdRZwKZUiCjxhg3blw/iXzngy91xAz1KwJor1GdwUlbaksMdA8DBLJ72mqk+xWBLI6Vdetu6SeRn3zxV7lVbh0WBghkBpDmL9ilIZBbbTVpWBpgpAdyr1/cQK7Wao0BDFSVAQKJ7bRsE8jiWLnn3vsbAnnTTTfLrRkyf1qee3U9ApkBptWHHdEQyEWL99ARM9SuVzuY4y7uRKnWao2BkWOAQI5c7buNewJZHCuPPfGHhkDevf5euVVuHTYGCGQGmM770U8bAnnU2uOHrRG6bfC3v8UN/mqt1hjAQDcwQCBxmpZTAlkcK8+9+MeGQD7y2JNya4bMn5bnXl2PQGaA6bobb28I5E8v+pWOmKF2vdrBHHdxJ0q1VmsMjBwDBHLkat9t3BPI4lh5/e0PGwL57POvyK1y67AxQCAzwPTkM680BPKWO+4btkbotsHf/hY3+Ku1WmMAA93AAIHEaVpOCWRxrHz46TcNgXztzffl1gyZPy3PvboegcwA08df/K0hkM+//JaOmKF2vdrBHHdxJ0q1VmsMjBwDBHLkat9t3BPI4lj5+i//2RDI9z/+Wm6VW4eNAQKZEaYJEybGEvnVd/8atkbotsHf/hY3+Ku1WmMAA93AAIHEaVpOCWSxrKy75dZYIr/89j/k1oyZPy3TvbgegcwI0/Tp24Zx48brhBnr1oudyzEXe5JUb/XGwMgxQCBHrvbdxj2BLJaVO+64K9x4441yq9w6rAz0tEBGU/vPvPB6ptuMbWeGaBYy63ZlX//5V94eFKy77n0krLvtHjc1wAAGMICBlgycfuYPwklL38EAACAASURBVK67LW653HnEebTOwD7L9w9rjz0xd1Y++vy7plzzyZd/Cx988ueeukUCedNNN2U+ZjOWxYp+t10I6mmB/PzP/x7mztsx023q1K3DVpMmZ9om62uMxPp7LF3WNND+/JLfhgkTtwwTt9jKTQ0wgAEMYKAlA2PHjQ+bbjq65XLnEefROgOjR48Jm40dlysr48ZPCLvvsbQp1zz97EvhzrvW99TtlltuC+vW3ZL5mD/67Num+nWb5Njf/CS4pwUSWMlgRVcIZ8+ZF4478Vw3NcAABjCAgZYM7L18ZZix7ZyWy51HnEfrDMydtyAsXrJPrqwsXXZgmD5jWwLkbZsYyIkBAplTYasgpwTSCb9+wvcXCxjAQBIDBBIfSXz0XUYgky/eVyE/OobqtzGBJJAtr84QSIGg70nf/3jAAAZaMUAgsdGKjYGPE8jqywWBrH4bE0gCSSC9LS3XtxINDA/uC5oYqB4DBLJ6bZpXPyWQ1ZcLAln9NiaQBJJAEkgCiQEMYKAjBggkgUwrnASy+nJBIKvfxgSSQBJIwbGj4Jg2NFhPwMRAdRkgkNVt2+HutwSy+nJBIKvfxgSSQBJIAkkgMYABDHTEAIEkkGlFk0BWXy4IZPXbmEASSAIpOHYUHNOGBusJmBioLgMEsrptO9z9lkBWXy4IZPXbmEASSAJJIAkkBjCAgY4YIJAEMq1oEsjqywWBrH4b97xAXnjxpWHf/Q4Me+61d7jw4l+1lKm+neGdD78Kd6x/qN/tiT+81G/bn/380rDbot3DqtVrwoUXXdJvWd/nKvP/fsZDIEgbCKyHFQz0NgMEsrfbP0v/J5DVl4syZ1v7Njz89axAfv2X/wzTZ8wMo0aN6nc7aMUhbWVvjz2W9dum/hzPvfRWvO3ey/drWj5jxszw1Xf/avvcZQKbQAoEWUKBdfGCgd5lgED2bttn7fcEcugBPsqRTz3zYlh/7/3hjjvvDo8+9lSqXPnpl38LL736Vr/bG3/6qN+2T/7hhXD7nXeHe+9/MDz++z+EL775Z7/lZcqn9mXoDA1X7XpWIA9csaohefss3z8ceNDBjfvHnXBKy07z2df/aKw3b4edwk7zd45vK1auDu9/8k0470c/bSw/aOXqsOfSvcPoMWPixw5edWjL5x2uBh3O5yGQAkHWYGB9zGCgNxkgkL3Z7kPp7wRyaOH/06/+EW67/a5w/fXX97vdtf7eEE2KJOW/u+5a32+b+nO8++GX8XYPPPhI0/Ibb7wpfPjpd4nPm/Salg2tnbulbj0pkB98+m3YaKONY6m77DfXNDrHAQfVpHKHHec3HhvYkI89+UK83aTJUwZdZ8qUqfHy0844t7H8uBNOix+LZir/+Fb/Kz4Dn79M9wmkQDCUcGAb3GCg9xggkL3X5kPt5wRyaGLxyGNPxpJ32223h4ceeTw8/sQfGtJ3/wMPNzLnwBwZzVrWhTESxYcefiy+/f6pZ8OX3/wzPPToE43l0WtEt3Xr1sWP3b3+3pbPO/B13B9au3Zr3XpSIO+89+FY6KZuvU1Tx9hss7HxsgcffbppWdTIl1/xu3j5DjsuCDesuys8/MSzjfX++OaHDVF8670vGo9H22255Vbxssuu+F2/x8sMDoEUCIYaEGyHHQz0FgMEsrfau5P+TSCzi8anX/29IXkvv/p2I0c+9PDj8ePr1t0Svvz2PxqP982W7330VWOdvo/X/4/eChsJ5hNPbcizL73yVuP16rOU9fX9zd5+VaxZTwrkldfcEMvcTvN3aepsU6dunSh6J5y0YTax/tnH7efOCy/98d3w0GPPxNtOmjS56XnnL1gYLzvl9LOblpUVLAIpEHQSEmyLHwz0DgMEsnfautN+TSCzC8grr78bC130ttKBmfGWW2+Ll7321gdNy6J1X3ntT/Hy226/Izz/0mvh5df+1Fjvw8++bYhi9BbZvs9dF8tnnn+l3+N91/F/9rasSs16UiB/8avfxjJ32OFHN3WK5fsdGC+76Be/bloWNfr2c3eIl287c1bYeutp8f+RSC7YeWG4c/1D8f0le+7VtG30ucpovWOOPalpWVlhIpACQadBwfYYwkBvMEAge6Odh6M/E8js0hFJXDRLGM04DsyMd919T7yslej9/qnnGpJYfyvrzTevC6+9+X54808fx8vW33Nf0/M+8OCj8bLoLa0DX9P97G1YtZr1pEBecOEvYplbefDqpk4xZ7vt42WXXnZ107Ko8d//+Jtw/8MbvvUq+qxjfSby8KOOjf9fuOvipm3rYnryqWc2LSsrVARSIBiOsOA5cISB6jNAIKvfxsPVjwlkdvl45bV3Ypm7/8FHmjLko4/XPhsZfTvrYHnyzvgLdG6Iv7X1jjvuCtffcEP8XLfccmt4+91P4//vvOvupm2ffu6leNmDDz/WtGyw1/FY9nbt5pr1pEBefMnlsehF36I6sPEW775HvOy6G29vWjZw3fr97bevzUpGM5qRTE6a1PwFO6vXHBkv+8H5F6Z+3vrzj9RfAikQDFdg8DxYwkC1GSCQ1W7f4ey/BDK7aLz0ypuxzK2/94GmDHnvfQ/Ey55t8VbT6Et0Pv3qb43tXnw1+nxjTSKffOr5eNtbb2vOvI898VS87JHHft/YdqTyqNfNzkzeNetJgbztrgdjmZsyZet+neLjL/4aJk+eEi977KnmKznXXLcuXPLrK8LHX2zoiFEDbb1N7a2s55z343jbSCJfeaP/e9Gjn/uIHv/NVdf3e828G7iT5yeQAsFwhgbPhScMVJcBAlndth3ufksgs8tAfQYy+hbVgbnu1u8/A/nSH2u/RT5w+WD369tE38gava11sG9bjX5rMloWvQV2sOfwWPZ2rFLNelIgox9H3Xjj2s94/PjCnzc6RvSlOpHkzV9Q+3Kdz//872HVIWvCmu8/Kzl16jbx8v0PXNnY5vwLftaQxuibWxcvrs1gnnrahi/L2f+AlY11Xn/748a2ZQeJQAoEwx0cPB+mMFBNBtYceXI46OAjg/atZvsOZ7sefMjacOiaE3JlZemyA8P0Gdt2Td5qlwffff+LWOZuvPHGfsf02df/Fj8eid4773/eb1n025A33HBjiH6u45MBEx933lX73OSTT9dmIOPtP+i//bpbbomf+/mXXu/3vO321fLeEMueFMgI7mOPP7khdYuX7Bl23GlB4/4pp50Vd5YDDtogftfffGdYfegRjXWi9aOf8oiEM7oddfRx8TZ9hXL5fgeFffc/qLHOHkuXdVUnJJCCwHCGBs+FJwxgAAMYKIKBqglklFtvXlcTusce/0MjS0Yzh5H8Rd+wGq3zwSffhOg3Ie9eX/tSnBtuvDFeflefzzhGn5WMtqlJ4xfhttvuiP9/6JEnGs8bfdYyWh5t/+kA+SSIvSGI7dq5ZwUyKszOu+zWkLu6CO6zz/6NDrT3Pvs2lt9x94Px40v2WNp4rL7NzrvsGl57a8PM4jHHndS0zv4Hrmg8b7tGKctyAulEX8SJ3mvgDAMYwAAGhpOBKgpk9FnEuvjdcedd4fY772zcf+nVN+OMeff338garffsC6+GPzy3QRajzznefvuGberfrvrqG+81nif6NtZ773+wcf+JJ5/puuxalgxd9f3oaYGMGve6m24PJ516ZojeZvrQY083dZRjTzwl/PySy/s9/uvfXBPOPOf8cO75Pw4PPLLhG1n7wnLTurvCYUccHY5ce2y4+rpb+m3fd70y/1+EQO68y+4N2Y7+H84TiOcSSDCAgV5noKgxtqjX6fX27PbjL4qTKgpklBejn/GoS2T97x/6fPvq7598trH8tTffi7Pno4/Xvgynvn7096mnXwiff/1vjWz68KMb5LS+3gMPP9pYXuasat9GZka05wUSeK3By1sg+55I6rO520zbNuy2eC83NcAABjDQIQPReFofW+t/o3F3uCXEWO6clea8XRSPEd9VFcgos7738Vfh+RdfCy+88mb48LO/NEle9JnFdz/6qt/j73zwRXjxlTfDS6++FT789Nt+y+o5+MPPvgtPP/dyiIT0T+99Nug69XX9bZ2de6U2PS2Q0YePx4/fPNNt0003DZtsskmmbbK+RlnWj451o402CptuOnrYbocdcVIjvAwWOuohx9/aZ2vVQR0wgIHhZCD6ArlOx/Sx48Y3xvEorBvLMTpURvte0PjNb68M1177u2G5XX31NeGqq64KN910c8/f6j/ZkbUW0ecpe0WGHGd2Ie5pgYy+oSq64pLlNmv2dmHixC0ybZPl+cu07uFHHhNmzto+HHXM6cN2O/aEcxrBY7DQMWPGVmHPpdu7qQEGMJAbA3vsuV3YfcmcTLfRozcJm266caZtsr7GcK8/bdqWTTOQO83fbRjG8zMa43grgTSWO48NPJdHTAwUzb4CecLJPwjDddtn35Vh9pztwhff/HvP3+686+5YorPWIsrIxCq7WPVKzXpaIIfSyNOmzwhjx47tiU6V91tYo+Axa9bYxgml74kkWuamBhjAQFkYGDNmszB69JiuG5d2WrCokDF2ypSNCnmdsvBgP4Y2Nu04f9dCOKnyW1izZtfb77gz/jbVrNtZnzwmMUAg/5oNkM03nxAPftFvRCYVtgrLihDI5ftOiuu5dNkBXRfMBIihBQh1U7duZCB6O39067Z9P+qYM+IxdsKEUbnu+/z5m8Svc/DqY3J9nW6rv/3tP94dcfSpMSdTpuTLI4HckG3Xff/zH9EMZBWyqWPY0LYjWQsCmUEgP/j023jgi96C8fTz1f9hVQLZ/8QnCKgHBnqTgTVHbPhppkMPP7GrBIlA9iazZR2rCGSx4f+rb/+j8a2s7w34Yp2RlA+vXSwHedSbQGYQyMeefKEhkDfdcnflr+QQSMGjrCHEfmGzSAb2O/Cwxti/7/6rCeQgHzEwA6lPpumTBLJYcXj/4z83BPLVN96tfG7NQ5Q85+DMEsgMAnnNdesaIeKCC39e+Y5IIAWCNIHAOjipOgOLl+zTGPsX7b43gSSQXcVAmfongRw8jOclKa+99X5DIKOf6MjrdTxvse1ahnoTyAwCec4PLmiEiDVHrK18RySQxKBMwcO+4HGkGJi3wy6NsX/uvAVdJQ/ewqrfjFS/Gex1CWSxovHsC682BPLhR5+ofG4tg1j1yj4QyAwCuXLVoY0QsXDXRZXviARS8BgsAHgMF73GQN8fQN96mxkE0gxkVzFQpv5KIIsVyEcff7IhkHfdfU/lc2uvyFsZjpNAZhDIHXbcqSGQEyZMrHxHJJBEoUzBw77gcaQYGD++9u3b0ReojRs3vqvkwQykfjNS/Waw1yWQxQrk+nvuawjkjTfeWPncWgax6pV9IJAZBHL06NENgYyCxJvvflbpzkggBY/BAoDHcNFLDKw99sx+43409h99zBldI5EEUn8tU38lkMUK5E0339wQyOuvvz58/PlfKp1be0XeynCcBDKlQL782ntNIeK+h56sdEckkIJHmYKHfcHjSDCw8pC1TWP/ilVHEcgBb2P1Laz6Z5r+SSCLE8hPvvxbP3mMBPKtdz6udG4tg1j1yj4QyJQCecf6h5pCxGW/vbbSHZFACgRpAoF1cFJlBvba+6CmsT/6kfJuOWYzkPpnmVglkMUJ5NvvfdokkC+8/Ealc2uvyFsZjpNAphTIi35xWVOIOP7E0yrdEQmk4FGm4GFf8DgSDMzfeXHT2D9/wSICaQayaxgYiX7T6jUJZHEC+eIrbzYJ5GNP/KHSubUMYtUr+0AgUwrkOx98Ffbb/6Cw404LwqzZc8IBB64MTz//WqU7IoEU2FuFAI9jo1cYOPTwE8L0GbPCxC22ChMnbhmmTZ8VVq85vmvkwQykvlqmvkogixPIz//8b+GBhx4Nd6+/N9x++53hwYcfDe9+9FWlc2uvyFsZjpNAphTIemNd/MvLwymnndUTHZBACh5lCh72BY8jycDOC5eEBTsv7hpxrNeKQOo3dRbK8JdAFieQ9dz60qtvhSeefKYncmv9mP3NnzMCSSBbDioEUvAoQ+CwDzgsAwMEMplDX6KTXJ8yMFyGfSCQ+Qf7gfJEIIuv+cA2qOJ9AkkgCeSAz/KU4SRrH4QxDJSLAQKZ3B4EMrk++nOtPgSyeJkhkMXXvIrCOPCYCCSBJJAEsuvelieMCatFM0Agk5kjkMn1KZrXsr4egSxeZghk8TUfKFtVvE8gCSSBJJAEEgMYaMMAgUwWJAKZXJ+yCl3R+0Ugi5cZAll8zasojAOPiUASSALZJjgWfYL1eoIYBsrHAIFMbhMCmVwffbpWHwJZvMwQyOJrPlC2qnifQBJIAkkgzT5hAANtGCCQyYJEIJPrQyAJ5EhJBIEkkHmwRyAJJIFsExyd+AUjDGCAQCYzQCCT62MMqdXHDGTxMkMgi695HsJWtuckkASSQBJIs08YwEAbBghksiARyOT6EEgCOVICQCAJZB7sEUgCSSDbBEcnfsEIAxggkMkMEMjk+hhDavUxA1m8zBDI4mueh7CV7TkJJIEkkATS7BMGMNCGAQKZLEgEMrk+BJJAjpQAEEgCmQd7BDKjQN586/rw699c01K68mikkXrOtceeGGbPmZdrsFy+76QwatSosHTZAbm+jpO3cIMBDHTCAIFM5odAJtenE/aqtK0ZyOJl5o0/fRRefPmNnsitI5WXe/F1CWRGgewlSAikQFCl4OJY8NwJAwQymR8CmVyfTtir0rYEsniB7KXc6liL44tAEsiWV6UIpEBQpeDiWPDcCQMEMpkfAplcn07Yq9K2BLK4gE+m1DpPBggkgSSQbT77VKWTt2MR8jAwNAYIZHLdCGRyffS7Wn0IJKnJU2o8d3F8EUgCSSAJpM+fYgADbRggkMmCRCCT60MgCSS5KU5u1Dr/WhNIAkkg2wRHJ37BCAMYIJDJDBDI5PoYQ2r1MQOZf7AnT2pcBAMEkkASSAJp9gkDGGjDAIFMFiQCmVwfAkkgiwj1XoM8FsUAgSSQBLJNcHTiF4wwgAECmcwAgUyujzGkVh8zkASnKMHxOvmyRiAJJIEkkGafMICBNgzsu//qsHy/Q7quTkcdc0b8W7sTJozKdd8JJIFMI8kEMt9QT5rUtygGCCSBJJBtgmOak6J1hCcMYKCMDBBIXJaJSwJJcIoSHK+TL2sEkkASSAKZ68xEmcKLfRGme40BAon5MjFPIPMN9aRJfYtigEASSAJJIAkkBjCQkoEDDloT9ll+cGK9DlxxRIhuZQjuBJJAloHD+j4QSIJTlOB4nXxZI5AEkkCmDI71E6C/AhkGupuBI9eeFqZNnxnGjRvfuI0dOz7sOH/XltK3z36rwpjNxsafJxw1alTYaOONw6zZc/utv9vivcLmm2/RWGfcuM3Drov26rdO0ewQyO5mtWhe8n49AplvqCdN6lsUAwSSQBJIAjmiATfvwOL5BeiBDOyz76qG5EUyWL9tvc30QfvCwYesDRtttFFjvfGbT2j8P3/n3eNt9tr7oMZjm2y6ab/1Fy3ee9DnHbhfedwnkPjPg6uhPieBJDhFCY7XyZc1AkkgCSSBHLFwO9QQYjuhuBMGdlm4JJa96TNmhxUHH9m4HXn0aYP2hSlTp8XrT5y4VTjo4CPjdbbcanL82MYbbxKOPvaMMH58TSq33mbbUH+eiVtMitfZdNPRgz5vJ8eQdlsCqa+kZaWI9QhkvqGeNKlvUQwQSAJJIAnkiIXbIgKL1xCgBzKw7cztYrHbddHSVOxH4hjNUi5e0n8mcfPNJ8aPL/heSKN1Dly54bOPhx91SojeGhs9vt8Bh6Z6rYH72ul9Aon/Thkazu0JJMEpSnC8Tr6sEUgCSSAJ5IgE2+EMJZ5LSM7CwOYTap9THDduXNhyy0lhq0lTw4pVRw/aD1YdekwsgJtssmnT8pmz5sbLpkypzVCOHbd50zrbbDMjXmfnhUualmXZ56GuSyD1jaGyk8d2BDLfUE+a1LcoBggkgSSQBHJEgm0e4cRzCsvtGKgLVf1zj/W/Y8ZsFvYdZJYw+vxjtM4WW0xq6ic77LRLvKz+dtapWzd/hnLbWbXZzu3nLmjavt2+Dsfy+vFOmDAq19efP3+TuBYHrz4m19cZjpp4jpEbJwgkwSlKcLxOvqwRSAJJIAmkwIeBnmHg6GPPDJttNi5sO3P7sOtue4XZc+aFjTfeOJafqVOnNdVhxcFHxcuiL84ZKB6z5+wQL9tiy9pnHSdNmtq0Tv3zk9vPI5AD6+f+yIncSNWeQOYb6kmT+hbFAIEkkASSPDSF3pEKF1639wJlGdp84aK9YhGMZhoPO/ykfv1hxaqaQG46eky/x6P93mHHhfF2kyZvXZPM8c2SOWPmnHjZTgsWNW1fxLGbgdSniuAs7WsQSIJTlOB4nXxZI5AEkkASyBEJtmkDh/UE4OFk4JDDjgtHHXN6P+ajL7upv5X14FVr+y1bc+TJjWVHHH1Kv2XRN65G283YtiaJ4zef2G95tN+NL+DZvf8X8AznMSU9F4HUf5L4KHoZgcw31JMm9S2KAQJJIAkkgWwKvUWHCq8n5BbBwC677hEL37hx4/sxP3/BooYkRm9xjfZl9ZoTwtrjzor/n/D9t7Au6iOBkZjVfxty8ZJ9Gj/jsWz5ysZz77X3gY3nPWhl7ec/ijjOvq9BIPWtvjyM9P8EkuAUJTheJ1/WCCSBJJAEshF4RzpceH1hN08GVq85viF048dPDLvvuTzM2X7HMGazsfHj0VtSo9efNXteY71odnLW7Nq3rU7cYsuwcNc9wpI9loeJW9R+2iN6+2q0zdbTarOREyZuGRYu2jPsvmR5GD16TPw8m09onpnM8zj7PjeB1Kf68jDS/xPIfEM9aVLfohggkASSQBJIAomBnmFg9na1L76pv2W1/jf6kpxD15wQ12Gz74UyWrb39zOK9W9ara8f/Y1+2mOPvQ6Itzn08BPDJpvUvom07zrjx08IIzX7GMkCgSSQIy2NfV+fQBKcogTH6+TLGoEkkASSPPSMPPQNMv7v3WC90/zdwuTJW4fopztmzp4bdt5lSThy7WmNfrDLwiVh9OjR8ecX65xEb22dvu3sEP2G5Kabjg5Tt54R9ll+cGObaL1VhxwTJkysLY9mHaNvZz34kJH9WQsC2buc19kt018CmW+oJ03qWxQDBJJAEkgC2S8Elyls2BfhFwOdMUAgO6sf/oa3fgSS4BQlOF4nX9YIJIEkkASSQGIAAxVlgEAOrwARys7qSSDzDfWkSX2LYoBAEkgCWdHgKOh0FnTUT/36MrDykLVh5aqju060CSSO+3I80v8TSIJTlOB4nXxZI5AEkkASyK4LxSMdgrx+74XynRcuCQt2Xtx1fYVA9h6rZR6fCGS+oZ40qW9RDBBIAkkgCWTXheIyByT7Vs3ATiCT23X+/No30B68emS/NEj/S26nka4PgSQ4RQmO18mXNQJJIAkkgSSQGMBAGwYIZLKYEMjk+oy0uJXl9QlkvqGeNKlvUQwQSAJJINsEx7KceO2HgIaBkWOAQCbXnkAm10ffrdWHQBKcogTH6+TLGoEkkASSQJp9wgAG2jBAIJMFiUAm14dAEkhCk6/QqG+x9SWQBJJAtgmOTvyCEQYwQCCTGSCQyfUxhtTqYway2JBPqtQ7LwYIJIEkkATS7BMGMNCGAQKZLEgEMrk+BJJA5hXkPS9JHAkGCCSBJJBtgqMTv2CEAQwQyGQGCGRyfYwhtfqYgSQ7IyE7XnP4uSOQBJJAEkizTxjAQBsGCGSyIBHI5PoQSAJJYoZfYtR05GpKIAkkgWwTHJ34BSMMYIBAJjNAIJPrYwyp1ccM5MgFfrKl9sPJAIEkkASSQJp9wgAG2jBAIJMFiUAm14dAEsjhDO+eiwyONAMEkkASyDbB0YlfMMIABghkMgMEMrk+xpBafcxAEp+RFh+vPzwMEkgCSSAJpNknDGCgDQMEMlmQCGRyfQgkgSQuwyMu6liOOhJIAkkg2wRHJ37BCAMYIJDJDBDI5PoYQ2r1MQNZjvBPwrRDpwwQSAJJIAmk2ScMYKANAwQyWZAIZHJ9CCSB7DSw2570lYkBAkkgCWSb4OjELxhhAAMEMpkBAplcH2NIrT5mIElQmSTIvgydRwJJIAkkgTT7hAEMtGGAQCYLEoFMrg+BJJBkZeiyonblqx2BJJAEsk1wdOIXjDCAAQKZzACBTK6PMaRWHzOQ5RMBcqZNhsIAgSSQBJJAmn3CAAbaMEAgkwWJQCbXh0ASyKGEdNuQu7IyQCAJJIFsExyd+AUjDGCAQCYzQCCT62MMqdXHDCQhKqsQ2a9sbBJIAkkgCaTZJwxgoA0DBDJZkAhkcn0IJIEkKNkERb3KXS8CSSAJZJvg6MQvGGEAAwQymQECmVwfY0itPmYgyy0FpE37pGWAQBJIAkkgzT5hAANtGCCQyYJEIJPrQyAJZNpgbj0S1w0MEEgCSSDbBEcnfsEIAxggkMkMEMjk+hhDavUxA0mOukGO7GN7TgkkgSSQBNLsEwYw0IYBApksSAQyuT4EkkCSkvZSokbdUyMCSSAJZJvg6MQvGGEAAwQymQECmVwfY0itPmYgu0cQyJy2SmKAQBJIAkkgzT5hAANtGCCQyYJEIJPrQyAJZFIYt4ysdRsDBJJAEsg2wdGJXzDCAAYIZDIDBDK5PsaQWn3MQBKlbhMl+zs4swSSQBJIAmn2CQMYaMMAgUwWJAKZXB8CSSCJyOAioi7dWRcCSSAJZJvg6MQvGGEAAwQymQECmVwfY0itPmYgu1MWSJ52G8gAgSSQBJJAmn3CAAbaMEAgkwWJQCbXh0ASyIEB3H1S1s0MEEgCSSDbBEcnfsEIAxggkMkMEMjk+hhDavUxA0maulma7PsGfgkkgSSQBNLsEwYw0IYBApksSAQyuT4EkkCSjw3yoRbdXwsCSSAJZJvg6MQvGGEAAwQymQECmVwfY0itPmYgu18cuNdGbwAAIABJREFUyJ82jBggkASSQBJIs08YwEAbBghksiARyOT6EEgCSbyIV5UYIJAEkkC2CY5O/IIRBjBAIJMZIJDJ9TGG1OpjBpJEVUmievlYCCSBJJAE0uwTBjDQhgECmSxIBDK5PgSSQPaybDj26l04IJAEkkC2CY5O/IIRBjBAIJMZIJDJ9TGG1OpjBrJ6IkEOe7NNCSSBJJAE0uwTBjDQhgECmSxIBDK5PgSSQBKt3hStqrY7gSSQBLJNcHTiF4wwgAECmcwAgUyujzGkVh8zkCSqqkLVa8dFIAkkgSSQZp8wgIE2DBDIZEEikMn1IZAEstcEw/FW+2IBgSSQBLJNcHTiF4wwgAECmcwAgUyujzGkVh8zkNWWCtLYO+1LIAkkgSSQZp8wgIE2DBDIZEEikMn1IZAEklz1jlz1QlsTSAJJINsERyd+wQgDGCCQyQwQyOT6GENq9TEDSaJ6Qa564RgJJIEkkATS7BMGMNCGAQKZLEgEMrk+BJJA9oJUOMbeuUBAIAkkgWwTHJ34BSMMYIBAJjNAIJPrYwyp1ccMZO8IBpmsdlsTSAJJIAmk2ScMYKANAwQyWZAIZHJ9CCSBJFTVFqpea18CSSAJZJvg6MQvGGEAAwQymQECmVwfY0itPmYgSVSviVZVj5dAEkgCSSDNPmEAA20YIJDJgkQgk+tDIAlkVUXCcfXmRQECSSAJZJvg6MQvGGEAAwQymQECmVwfY0itPmYge1M2SGb12p1AEkgCSSDNPmEAA20YIJDJgkQgk+tDIAkkiaqeRPVymxJIAkkg2wRHJ37BCAMYIJDJDBDI5PoYQ2r1MQNJonpZuqp07ASSQBJIAmn2CQMYaMMAgUwWJAKZXB8CSSCrJA+OxYUAAkkgCWSb4OjELxhhAAMEMpkBAplcH2NIrT5mIIkH+awGAwSSQBJIAmn2CQMYaMMAgUwWJAKZXB8CSSCJUzXESTvW2pFAEkgC2SY4OvELRhjAAIFMZoBAJtfHGFKrjxlIEkXAqsEAgSSQBJJAmn3CAAbaMEAgkwWJQCbXh0ASSOJUDXHSjmYgW4oTOGpwrD32xDB7zrxcg+XyfSeFUaNGhaXLDsj1dZy8hRsMYKATBghkMj8EMrk+nbBXpW3NQJIoGbsaDJiBNAPZUqQJpEBQpeDiWPDcCQMEMpkfAplcn07Yq9K2BLIa8kACtSOBJJAEss1b16p08nYsQh4GhsYAgUyuG4FMro9+V6sPgSQe5LMaDBBIAkkgCaS3D2MAA20YIJDJgkQgk+tDIAkkcaqGOGnHWjsSSAJJINsERyd+wQgDGCCQyQwQyOT6GENq9TEDSaIIWDUYIJAEkkASSLNPGMBAGwYIZLIgEcjk+hBIAkmcqiFO2tEMZEtxAkcNDl+iIxAIPRjAQI0BApncFwhkcn30o1p9zECSKBm7GgyYgTQD2VKkCaRAIPRgAAM1Bghkcl8gkMn10Y9q9SGQ1ZAHEqgdCSSBJJBt3rrmxC8YYQADBDKZAQKZXB9jSK0+BJJ4kM9qMEAgCSSBJJA+/4YBDLRhgEAmCxKBTK4PgSSQxKka4qQda+1IIAkkgWwTHJ34BSMMYIBAJjNAIJPrYwyp1ccMJIkiYNVggEASSAJJIM0+YQADbRggkMmCRCCT60MgCSRxqoY4aUczkC3FCRw1OHyJjkAg9GAAAzUGCGRyXyCQyfXRj2r1MQNJomTsajBgBtIMZEuRJpACgdCDAQzUGCCQyX2BQCbXRz+q1YdAVkMeSKB2JJAEkkC2eeuaE79ghAEMEMhkBghkcn2MIbX6EEjiQT6rwQCBJJAEkkD6/BsGMNCGAQKZLEgEMrk+BJJAEqdqiJN2rLUjgSSQBLJNcHTiF4wwgAECmcwAgUyujzGkVh8zkCSKgFWDAQJJIAkkgTT7hAEMtGGAQCYLEoFMrg+BJJDEqRripB3NQLYUJ3DU4PAlOgKB0IMBDNQYIJDJfYFAJtdHP6rVxwwkiZKxq8GAGUgzkC1FmkAKBEIPBjBQY4BAJvcFAplcH/2oVh8CWQ15IIHakUASSALZ5q1rTvyCEQYwQCCTGSCQyfUxhtTqQyCJB/msBgMEkkASSALp828YwEAbBghksiARyOT6EEgCSZyqIU7asdaOBJJAEsg2wdGJXzDCAAYIZDIDBDK5PsaQWn3MQJIoAlYNBggkgSSQBNLsEwYw0IYBApksSAQyuT4EkkASp2qIk3Y0A9lSnMBRg8OX6AgEQg8GMFBjgEAm9wUCmVwf/ahWHzOQJErGrgYDZiDNQLYUaQIpEAg9GMBAjQECmdwXCGRyffSjWn0IZDXkgQRqRwJJIAlkm7euOfELRhjAAIFMZoBAJtfHGFKrD4EkHuSzGgwQSAJJIAmkz79hAANtGCCQyYJEIJPrQyAJJHGqhjhpx1o7EkgCSSDbBEcnfsEIAxggkMkMEMjk+hhDavUxA0miCFg1GCCQBJJAEkizTxjAQBsGCGSyIBHI5PoQSAJJnKohTtrRDGRLcQJHDQ5foiMQCD0YwECNAQKZ3BcIZHJ99KNafcxAkigZuxoMmIE0A9lSpAmkQCD0YAADNQYIZHJfIJDJ9dGPavUhkNWQBxKoHQkkgSSQbd665sQvGGEAAwQymQECmVwfY0itPgSSeJDPajBAIAkkgSSQPv+GAQy0YYBAJgsSgUyuD4EkkMSpGuKkHWvtSCAJJIFsExyd+AUjDGCAQCYzQCCT62MMqdXHDCSJImDVYIBAEkgCSSDNPmEAA20YIJDJgkQgk+tDIAkkcaqGOGlHM5AtxQkcNTh8iY5AIPRgAAM1Bghkcl8gkMn10Y9q9TEDSaJk7GowYAbSDGRLkSaQAoHQgwEM1BggkMl9gUAm10c/qtWHQFZDHkigdiSQBJJAtnnrmhO/YIQBDBDIZAYIZHJ9jCG1+hBI4kE+q8EAgSSQBJJA+vwbBjDQhgECmSxIBDK5PgSSQBKnaoiTdqy1I4EkkASyTXB04heMMIABApnMAIFMro8xpFYfM5AkioBVgwECSSAJJIE0+4QBDLRhgEAmCxKBTK4PgSSQxKka4qQdzUC2FCdw1ODwJToCgdCDAQzUGCCQyX2BQCbXRz+q1ccMJImSsavBgBlIM5AtRZpACgRCDwYwUGOAQCb3BQKZXB/9qFYfAlkNeSCB2pFAEkgC2eata078ghEGMEAgkxkgkMn1MYbU6kMgiQf5rAYDBJJAEkgC6fNvGMBAGwYIZLIgEcjk+hBIAkmcqiFO2rHWjgSSQBLINsHRiV8wwgAGCGQyAwQyuT7GkFp9zECSKAJWDQYIJIEkkATS7BMGMNCGAQKZLEgEMrk+BJJAEqdqiJN2NAPZUpzAUYPDl+gIBEIPBjBQY4BAJvcFAplcH/2oVh8zkCRKxq4GA2YgzUC2FGkCKRAIPRjAQI0BApncFwhkcn30o1p9CGQ15IEEakcCSSAJZJu3rjnxC0YYwACBTGaAQCbXxxhSqw+BJB7ksxoMEEgCSSAJpM+/YQADbRggkMmCRCCT60MgCSRxqoY4acdaOxJIAkkg2wRHJ37BCAMYIJDJDBDI5PoYQ2r1MQNJoghYNRggkASSQBJIs08YwEAbBghksiARyOT6EEgCSZyqIU7a0QxkS3ECRw0OX6IjEAg9GMBAjQECmdwXCGRyffSjWn3MQJIoGbsaDJiBNAPZUqQJpEAg9GAAAzUGCGRyXyCQyfXRj2r1IZDVkAcSqB0JJIEkkG3euubELxhhAAMEMpkBAplcH2NIrT4EkniQz2owQCAJJIEkkD7/hgEMtGGAQCYLEoFMrg+BJJDEqRripB1r7UggCSSBbBMcnfgFIwxggEAmM0Agk+tjDKnVxwwkiSJg1WCAQBJIAkkgzT5hAANtGCCQyYJEIJPrQyAJJHGqhjhpRzOQLcUJHDU4fImOQCD0YAADNQYIZHJfIJDJ9dGPavUxA0miZOxqMGAG0gxkS5EmkAKB0IMBDNQYIJDJfYFAJtdHP6rVh0BWQx5IoHYkkASSQLZ565oTv2CEAQwQyGQGCGRyfYwhtfoQSOJBPqvBAIEkkASSQPr8GwYw0IYBApksSAQyuT4EkkASp2qIk3astSOBJJAEsk1wdOIXjDCAAQKZzACBTK6PMaRWHzOQJIqAVYMBAkkgCSSBNPuEAQy0YYBAJgsSgUyuD4EkkMSpGuKkHc1AthQncNTg8CU6AoHQgwEM1BggkMl9gUAm10c/qtXHDCSJkrGrwYAZSDOQLUWaQAoEQg8GMFBjgEAm9wUCmVwf/ahWHwJZDXkggdqRQBJIAtnmrWtO/IIRBjBAIJMZIJDJ9TGG1OpDIIkH+awGAwSSQBJIAunzbxjAQBsGCGSyIBHI5PoQSAJJnKohTtqx1o4EkkASyDbB0YlfMMIABghkMgMEMrk+xpBafcxAkigCVg0GCCSBJJAE0uwTBjDQhgECmSxIBDK5PgSSQBKnaoiTdjQD2VKcwFGDw5foCARCDwYwUGOAQCb3BQKZXB/9qFYfM5AkSsauBgNmIM1AthRpAikQCD0YwECNAQKZ3BcIZHJ99KNafQhkNeSBBGpHAkkgCWSbt6458QtGGMAAgUxmgEAm18cYUqsPgSQe5LMaDBBIAkkgCaTPv2EAA20YIJDJgkQgk+tDIAkkcaqGOGnHWjsSSAJJINsERyd+wQgDGCCQyQwQyOT6GENq9TEDSaIIWDUYIJAEkkASSLNPGMBAGwYIZLIgEcjk+hBIAkmcqiFO2tEMZEtxAkcNDl+iIxAIPRjAQI0BApncFwhkcn30o1p9zECSKBm7GgyYgTQD2VKkCaRAIPRgAAM1Bghkcl8gkMn10Y9q9SGQ1ZAHEqgdCSSBJJBt3rrmxC8YYQADBDKZAQKZXB9jSK0+BJJ4kM9qMEAgCSSBJJA+/4YBDLRhgEAmCxKBTK4PgSSQxKka4qQda+1IIAkkgWwTHJ34BSMMYIBAJjNAIJPrYwyp1ccMJIkiYNVggEASSAJJIM0+YQADbRggkMmCRCCT60MgCSRxqoY4aUczkC3FCRw1OHyJjkAg9GAAAzUGCGRyXyCQyfXRj2r1MQNJomTsajBgBtIMZEuRJpACgdCDAQzUGCCQyX2BQCbXRz+q1YdAVkMeSKB2JJAEkkC2eeuaE79ghAEMEMhkBghkcn2MIbX6EEjiQT6rwQCBJJAEkkD6/BsGMNCGAQKZLEgEMrk+BJJAEqdqiJN2rLUjgSSQBLJNcHTiF4wwgAECmcwAgUyujzGkVh8zkCSKgFWDAQJJIAkkgTT7hAEMtGGAQCYLEoFMrg+BJJDEqRripB3NQLYUJ3DU4PAlOgKB0IMBDNQYIJDJfYFAJtdnOPrR2aecGi48/fiuvp1/4pFh+61GhSlTRuV60WrpsgPD9BnbynkmSTCQEwNmIHMqbBUklEDmHwiGI1R4Du2EgfwZIJDJNSaQyfXptI+eeNJZ4f/+zZTwv6+c2NW3/++KCeH/+cWocMISAlmFnOgYendWlUASyJZXZwhkvoGg00Bhe+2DgeIYIJDJtSaQyfXptK+ectKZ4f/8bpNcZ+063cc020efgXzwyFHh8pUEknz1rnxVoe0JJIEkkG0++5TmpGidfMOT+qrvSDNAIJMZJJDJ9emUXwKZrb7ewkrOqiBpZT4GAkkgCSSB7Pqr2p2GM9tnC2e9WC8CmcwIgUyuT6d9hkBmqy+BJJBllq8q7BuBJJAEkkASSAxgoA0DBDI5wBPI5PoQyFp9vIWV2FVBnhzDfwUCSSAJZJvg2OmJ3/b5Biv1Vd8iGCCQyZwRyOT6dMqoGchs9TUDSVRJXr4MEEgCSSAJpNknDGCgDQMEMjnAE8jk+hDIWn3MQOYb6kmT+hbFAIEkkASyTXDs9MRv+3yDlfqqbxEMEMhkzghkcn06ZdQMZLb6moEkUkWJVK++DoEkkASSQJp9wgAG2jBAIJMDPIFMrg+BrNXHDCSx61XhqtpxE0gCSSDbBMdOT/y2zzdYqa/6FsEAgUzmjEAm16dTRs1AZquvGUiiWjVhK9vxEEgCSSAJpNknDGCgDQMEMjnAE8jk+hDIWn3MQBK7somQ/RkakwSSQBLINsGx0xO/7fMNVuqrvkUwQCCTOSOQyfXplFEzkNnqawZyaFJAptQtLQMEkkASSAJp9gkDGGjDAIFMDvAEMrk+BLJWHzOQBCWtoFiv3KwQSAJJINsEx05P/LbPN1ipr/oWwQCBTOaMQCbXp1NGzUBmq68ZyHLLBzns/vYhkASSQBJIs08YwEAbBghkcoAnkMn1IZC1+piB7H5xIH/aMGKAQBJIAtkmOHZ64rd9vsFKfdW3CAYIZDJnBDK5Pp0yagYyW33NQJIcopsvAwSSQBJIAmn2CQMYaMMAgUwO8AQyuT4EslYfM5D5hnrSpL5FMUAgCSSBbBMcOz3x2z7fYKW+6lsEAwQymTMCmVyfThk1A5mtvmYgiVRRItWrr0MgCSSBJJBmnzCAgTYMEMjkAE8gk+tDIGv1MQNJ7HpVuKp23ASSQBLINsGx0xO/7fMNVuqrvkUwQCCTOSOQyfXplFEzkNnqawaSqFZN2Mp2PASSQBJIAmn2CQMYaMMAgUwO8AQyuT4EslYfM5DErmwiZH+GxiSBJJAEsk1w7PTEb/t8g5X6qm8RDBDIZM4IZHJ9OmXUDGS2+pqBHJoUkCl1S8sAgSSQBJJAmn3CAAbaMEAgkwM8gUyuD4Gs1ccMJEFJKyjWKzcrBJJAEsg2wbHTE7/t8w1W6qu+RTBAIJM5I5DJ9emUUTOQ2eprBrLc8kEOu799ChPIl19/Lzz02NMtZQVM5YNp7bEnhtlz5uU6M7F830lh1KhRYemyA3J9nU5P3rbPdvJWL/WqGgMEMplpAplcn077A4HMVt9eFsg33/0srL//MXnbBFGuDBQmkNdcty4cdvjRuR4MCR1eCSWQ2U5YnQYE26s3BsrLAIFMbhsCmVyfTvs2gcxW314WyHvufzwsXbaPvE0gc2WAQAKsJWAEMtsJq9OAYHv1xkB5GSCQyW1DIJPr02nfrppATpkyKtd3HRFIAmlSaXgnlQbWk0ASSALpM5C5nsg7DU62zzeYqm+6+hLI5DoRyOT6dNrPCGS2+hJIAjlQeNwfXqEkkASSQBJIAokBDLRhgEAmB3gCmVwfAlmrT/1bWM1ADm+Y7ytH3sKaX2371rnX/yeQBJJAtgmOnZ74bZ9vsFJf9S2CAQKZzBmBTK5Pp4yagcxWXzOQZiB7XfDyPn4CSSAJJIE0+4QBDLRhgEAmB3gCmVwfAlmrjxnI/GfHzEDmX+O85awbnp9AEkgC2SY4dnrit32+wUp91bcIBghkMmcEMrk+nTJqBjJbfc1AmoHsBgnr5n0kkASSQBJIs08YwEAbBghkcoAnkMn1IZC1+piBzH92zAxk/jXuZvEbrn0nkASSQLYJjp2e+G2fb7BSX/UtggECmcwZgUyuT6eMmoHMVl8zkGYgh0uUPM/gQk4gCSSBJJBmnzCAgTYMEMjkAE8gk+tDIGv1MQM5eBgfTkkxA5l/jYezvbr1uQgkgSSQbYJjpyd+2+cbrNRXfYtggEAmc0Ygk+vTKaNmILPV1wykGchuFbNu2e9CBPKO9Q+FU047KyzZc1m47c77w3sf/7mltHRL4XphP9cee2KYPWderjMTy/edFEaNGhWWLjsg19fp9ORt+2wnb/VSr6owsPa4s8I++60KM2fPDTNnbh//Hz3WLcd31DFnxGPshAmjct1nAplvnyeQ2erbqwJ574NPhB/++KKww07z47z95rufydsminJhIHeBvO2uB+KTVyQJ9dsxx56Yy8H0gtQVeYwEMtsJq1sCpf3UrhhIz8Bui5Y1zl31c9jC3ZbmKmPD2T4EMn1bD2fdh/u5CGS2duxFgXzkiWebxqr9D1ghbxPIXBjIXSCj92LXT7r1v2ecdV4uB1OkXPXCaxHIbCes4Q4Mnk/9MTDyDCzZc9+mc9jueywnkAPe+m8GMl9WCWS2+vaiQD774htNY9WaI9bK2wQyFwZyF8jX3v64Cegrrr4hl4PpBakr8hgJZLYTlrCvXhioHgMHHLSm6Ry2/4GHEUgCWSgDBDLb2NKLAvnFN/9sGqsu+MnP5W0CmQsDuQtkJDzjxo/vB/VDjz2Ty8EUKVe98FoEMtsJizyoFwaqx8DhR53S7/wVvZNmzZEnFyoPnXDlLazVYJJAZmvHXhTIKJfOmj2n33h14y13y9sEMhcGChHIBTsv7Af0Ox9+lcvB9ILUFXmMBDLbCauTkGdbtcZAeRkYPXpM4xy26aaju0YeI6YIZHm5ytLnCWS2duxVgdxv/4MaY1V0sevp51+XtwlkLgwUIpCHHnZkA+ittpqUy4EUKVa98loEMtsJK0sYsK7aYqB7GJg0eesN57BJUwnkgLevRiz7DGS+PBPIbPXtVYE89YxzGmNVJJCf//nfZG4CmQsDhQjk+Rf8rAH04t33yOVAekXqijxOApnthEUI1AsD1WRgznY7NM5hef+00XAzZAayGkwSyGzt2KsCefkVv2uMVTNnzpa3yWNuDBQikNffdEcD6KPWHp/bwRQpV73wWgQy2wlruIOf51N/DJSDgYW77tk4h+2ycIkZSDOQhTNAILONBb0qkA88/FRjrFq+34HyNoHMjYFCBPKpZ19tAP3Ti3+V28H0gtQVeYwEMtsJS9hXLwxUk4G9l69snMOW7bOicHnohCszkNVgkkBma8deFci33vu8MVadctrZ8jaBzI2BQgTyky//3gD6ljvuy+1gipSrXngtApnthNVJyLOtWmOgvAysOvTYxjns4NVrCaQZyMIZIJDZxodeFcgom47//pcPLvvttfI2gcyNgUIEMgJ6y622ik/Az7/8dm4H0wtSV+QxEshsJywCoF4YqCYDxxx/dkMg1x53VuHy0AlXZiCrwSSBzNaOvSyQ220/Lx6v7nvoSXmbQObGQGECOXfejjHQX//lP3M7mCLlqhdeqwiBnDVrbCOY7bzL7l0VzDoJdbbNFgbUS71GmoHopzy67Sc8oprttGBRIWPslCkbFfI6I83BSL1+VQRyx/m7hgePHBWzkuc5v5cFctne+8b1ffOdT+VtApkbA4UJ5K6Ldg9jxozJ7UB6QeiKPsa8BTI6eURfM933tv3c+WHlIUe7qQEGMFAqBsaM2SyMHjOmVPvUbqyMxtO+42v0fx6h3Vie/znrsEOPCP/n2o27ir+BfNZ5rAtkXjxGkt/LAhn9dN5GG20kb5PHXBkYskCuWr0mHHDgytS3KVO3jgUyyzbWTV/fPGo1bfqMMHbc+DB9xuxhux1x9KmNWcbBQsfAsON+f8FWD/XAAAY6YWDChC06Hs9nzprbGMejsG4sz5/JzTYZFb77Yf6v0wlbabe94oANx9H3gsbceQs6ZrOeV7bcanLYbLOxqTNqHhlqpJ4z+vmOTTbZJPOxP/LEc7kKR9GTIF7vv3JtzyEL5O13PxiiL8Rxq24NordBTJ06Leyz78HDdlt77JmN4DFY6Jg6daOw886buKkBBjCQGwPz528cZs6s/m3ixA1BvR7uZ87avuPxfPl+hzTG8VYCaSx3Hht4Lo+YqHNY/9tXIPc/8LCO2aznlR12XBi2mjRJRs2Q099897NchYPQ5St0Rdd3yAJZ9I56veLBy/strAODR98TSbTMTQ0wgAEMdMZA3wt1eY6xRb0OHjrjYaTrVxQnvfwWVnm5+LzcizUnkN4j3fKKUxECOdInM6/f3WFE+2k/DGAAAxgYyACBJFG9KHVFHjOBJJAE0myn2V4MYAADGMBAZRggkASySJnqxdcaskA+/tSL4fwLfhZ+cP5PwmNPvthSQvoW9fM//3t4/U+f9Lv96f0v+2373Mtvh9PO/EE46ujjwkOPPd1vWd/n8n/+g4MZSFd1B17VdR8TGMAABjBQdgYIZP4ZUQ7v7RoPSSBPOOn0pg9CH3DQwW1l78STz2jaLvog9TMvvBFve+LJp4cJEyb2W2f/A1a0fV4Q5wNxEQJ56JoTwhZbTqrMVc+yn1Ttn+CHgd5jYP6CRWHR7nvnOs5GX14ya3b/b2fFWu+xlqbNoy+4WbLHvrnySCDzyYXytrrWGcgskMcef3JD8GbPnhPmbDe3cf9nF1+aKHuTp0yN141+n2bjjTeOb7Nmzwkvv/ZeuOKaGxvPE/1m5J5L927c32vv5YnPWz8Yf4cX7CIEcvWa48Pmm0/M9USS5oRmHUEHAxioKgM77LQw7LZor1zH2b2Xrwwztp2T62tUtX167biin+tYvGSfXFkhkMObB+Vr9RzIQGaBnDtvx1jsVq46tCF1keBFM4mTJk1uPDbwhd5459OGEH765d+b1jtwxap4+WGHH91YFv3WZP2rnp9/5e3G4wOf2/18wCaQAnWvBRvHi/kqMkAgcV0mrglkPplNFlbXIhnIJJCP/+HFWOiiHyn94pt/9hO6yVOmxMsefGTwzy3euf6h2raz5oRX3/wgfPXdvxrbR/+PHTs2Xn73fY81Ho8KEc1QRhJ5+pk/6Pd4kUXq1dcikEJHmUKHfcEjBobGAIEcWt3wlk/dCCTR6dVcXaXjziSQ1994Ryxzi3ffo0nmFu66OF52+RW/a1oWFewnP/tlvDx662okhJtssklYc/jR4bOv/y08+9Ib8WMzZ81u2vagFYfEy8485/ymZVVqiDIeC4HM5+QplKgrBjBQJAMEEm9F8tbutQgkgSxj5rVP2bjMJJC/uuzKWObmzt2hSeZ2W7QkXnbRzy9rWhY1yqLFe8TLI3msS2T0f/Q21Qcf/kO8bOLELZq2XXPkMfGyE046rWmZxs7W2FnrRSCFjnZBwHKMYKD8DBDI8rdRL/UjAplvdsua9ayvPYbCQCaB/PFPfxHL3KFrjmySudWHHh4v++WlVzQti3bspdfeDeee95PwwivvxG9fXbXqsHgQG0K+AAAgAElEQVT9SCJPO/2c+P+le+3TtO05P7ggXnbK6Wc3LRvKAdsmfUchkEJHL4Uax4r3qjJAILFdJrYJZPoc9ua7n4YDDlwZogmW6dO3DQt2WRgeePjJtnn4hVfeDlGG63s7+bSzwidf/q2x7d7L9w/R95psvvnmYc+ly8K62+5pLJOV07dRr9Yqk0Be/MvLYpnbY+myJsjmL9g5XnbF1Tc0LWtV3EmTap+b3Gef/eJtt5/XPLO56pCaaJ5z7gWpn7fV63k8W4cgkEJHmUKHfcEjBobGAIEcWt3wlk/dCGS6LBb9TvpW3+fkaLKlfps4cWK45fZk2at/uWV9m/rfK6+5Mc7S9XcN1h+v//3Fr34ja/81Xfv0ulNkEsg773k4BnjMmDFNgEVXRyIA77z7oaZlTz//erjtrgfCV9/9R79l0Wcpo23O/n6WMfr/uZff6rfOvO+/9fXnl1ze7/Feb7gijp9A5nPyFErUFQMYKJIBAom3Inlr91oEMp2gRL92EOXiSPZ+eMFF4VeXXxXqEy+DvWOvby6cOnXreNtjjjspnP+jn8a3n19Sk8Mf/fiieFn03GsOXxt+eemV8a8oRPfHjh0Xvvy2f1bv+7z+T9d2vVCnTAL59V/+M0zcYssYvPpVjKhIx514WvxY9MU473/ybSx6l/z6ynD179bF/4/ZrPYNqytWHNKQwGdefCtsttlm8XYX/+KyMG36jPj/I9ce11jnmuvWxY9FUD/46ODf7toLjTRSx0gghY52QcByjGCg/AwQyPK3US/1IwKZTkJ2WbhbnIGj30mv58D7H/x9IxdHv25Qf7zv37fe/ayxzsdfbHjLan2dadNqefusc3/Yb/t6Dv/pxb/q93h9O3/TtVuv1CmTQEZFWbb3vjGYu+y6KBx7wslh9WFHhs0nTIwfO+z7z0auOmTD7zde9Itfh5NOObMB866Ldo+/OKd+dWS/A1aET778e4iujESiGN32P3BFOO2Mc+L3Zkf358/fGcwjMKVOIIWOXgo1jhXvVWWAQGK7TGwTyPYi8ofn/hjn4XHjxjfl322mTY+X/fo3Vzcti3L6Xfc8Ei8fO2582H2PpeHU088J9z204XOTW02aHC+/7a4H+21/+PdfWnnm2ef1e7xXhMhxtueyb40yC2T0m431n+yoC1/0d+68nRq/7bj6sCNiOKPHTz7t7PjxffY9oPFYfbvJU6aG9fc92gB1t8W1b3KtL4/+jh8/Pjzy++ca6/Tdef9na+ys9SKQQkeZQod9wSMGhsYAgRxa3fCWT90IZPvsduc93/92+uw5Tfn32ONPjvP0uef/uGlZlPMuvOiSprwd5elfXvrb8Gaf2cnP//zv/bb/6UW/irc7/Mi1/R7Pmh2t3759q1CjzAJZP+jjTzo1/mmOffc7KKw5oj9sX3zzz3DYmqNDNBNZXz/6e/EvLw977LksRN/8dNlvrw2v/+njfsujdaJvcZ01e07YcccFIeok0e9E9n0O/xcHJoHM5+QplKgrBjBQJAMEEm9F8tbutQhk+xx33Y23xTJ30IpVTRn48KNqP2937g8G/3LJ7babG6ZNmx6in9zbbdHuYfLk2hdWRhJ57fW3xs+7aPGSpuetC+TATC93t2+vXqzRkAWyF4vVa8dMIIWOdkHAcoxgoPwMEMjyt1Ev9SMC2V5IHnj4qVj0li5b3iR6p5x6VrzsRz++uGlZq5y67cxZ8TaHrjkq/rvjTvObtr30sqviZUcfc0LTslbP6/H2bVnVGhHIEfhsYbfARCCFjl4KNY4V71VlgEBiu0xsE8j20nH3/Y/FMjd1622aZG7f/Q+Kl13S4nfXB8uYKw5eXRPHHefHf6PZyOdffrvfc9e/r+TkU8/s9/hgz+ex9m1Y9RoRSALZcqAgkEJHmUKHfcEjBobGAIEcWt3wlk/dCGR7+fj487+G7bafF8vePQ8+0S+nbbLJpvHjd9z9QL/HI2HZYcedwvQZM8NNt9zdb9nCXWvf6HreD38a/yxIJJCRMPaVnOh7SaLHf/bzS/s93ncd/7dvu16pEYEkkC0HCgKZz8lTKFFXDGCgSAYIJN6K5K3daxHIdBKybJ/9YqGbt8OO4cPP/hJntd2X7Bk/NnfeDvH919/+OMycOTtEv2zwwqt/Crst3j1eHv0kx7Mvvhmvc8LJZ8SPRXJ4/c13hjVrjo7vz56zXXjy6ZfjdQ448ODGOs+/1P/32HtFiBxnOi7rdSKQBDIePOpA9P1LIIWOdkHAcoxgoPwMEMjyt1Ev9aPhEsjjTzgntKrb0mUHhukztm2Zb/pmnbL+f/Nt60P0++qR+EWCuEOft5+eec758bGdevrZDfE78aTTQ/2zk9E20W3s2NrvsEf/R/IZHeu7H30dZs+e09huq60mNf6PpLWs9bBf2QQv73oRSALZcrAgkEJHq5Ozx7GBge5hgEB2T1v1Qr8aqkCefNxZ4boDDg2v7rw4/F9Tp4X/njqt0gIZCcCll10dJn3/u42RBE6YuEU4/sRTG7ntzvUPx/K30UYbhetvviN+/Mprbwrjxo1rSGH0W5BnnH1e46f2oue9+db1YcHOCxvrRM8d/bpC3tLh+cslgZ20x5AF8uJfXhb/1kz0ezNpbhdc+PPw45/+ItW6aZ7POunqnrZOv7rsqqaBIxLISZOmhoW77ZnbbcedFobRYzbL7fnz3HfPnR8Xaqu2GBg+BiZP2SZMmz4z13F21uy5YeIWW+X6GpgYPiZGspaTJk8N02fMbsvK7gt3Dz/afsfwyNbTwz/GTwhh1KimW6vjmDlr+zDYF9Dcsf6hrsyhxx5/Yjhy7XGD7vsPfnhhiH7So573oqz9k5/9Mhx34qnh1DPOCT/6ycWNZfV16n+j32qPfjIvWid6C2wnQmHb6shhmrYcskCee96PwxlnnZf6Nm3ajLDpppumXj/Lc1s3fTu0qtUFP/l508AR/QbnXnsvD7ssXJTbLXpLxujRY3J7/jz33XPnx4Xaqi0Gho+ByZOnhm2mTc91nJ05a06YOHGLXF8DE8PHxEjWMppRmzZ927as/L+jRzcJ42AS2eqx/73zwqZcc+O6uyqfQ6NcFc1Itsp7rR5/5oU3muqVRiSs01viWG/vIQtk/QnS/l246+JYFNKub73eAPKlP74bZs6abdDyVmoMYAADOTFw6unnhIt+8etc63vTrXeHFStX5/oackE1ckH0FszB3vU0sH2/+eof4b/vezT8r/MuCP+zZM9BZXLgNn3vR2LZ936v/H/IoUfEb03tleN1nCMzLhQmkNttPzcGOprV0tgj09hlrDuBxEIZubRPuKwSAwQSz2XiOa1ADtznb77uL5T/s+deiXmyVwVyz6V7x3n71Tc/TKzPwPq6b5zIwkBhAjlh4sQY6Keffw3QOV1lztLwZVmXQBqwysKi/cBiVRkgkNguE9tDFcimY/juX4l5slcFctb337B6972PJtanqZ6yqXplYKAQgfzgk29jeYy+5Sl6/zlonczqDBBILNRZ8BcLGMiHAQKZT13xOrS6DptAtgm7vSqQY8ZsFmfuX156hbzdhhF9eGh9OKpbIQL52JMvNAQy+qYnDTb0Biuyduvvfyz+5q48X5NAdgcLeTLguTGAgXwZIJD51he/2epbhEDe++AT4ZYe/Azka2991Mjbx590mrxNIHNjoBCBvPp36xpArzn86NwOxiCebRBvV6+rf3dzWHPE2lzbi0AOb5u1a1PL1RsDvccAgey9Ni9zPy9CIK+9/tZwRg8KZHThP3q3X3Tba9nyXPNbmRmzb/mPeYUI5Dk/uKAB9C4LdwN0l1wRIZD5d0CDnBpjAAN5M0AgMZY3Y1men0Dmx+Mlv76ykbejn+7J0i7Wza9dqljbQgRy5apDG0BvPmECoAlkgwEzkAasKg6sjgnXZWKAQOKxTDwSyPx4PPHk0xt5O5qF/OjzvzbyVpkYsC/5MVBUbQsRyHk77NQP6Dfe+RTQXSCRZiC7v4MXNZB4HaxgoLwMEMjytk0v9hsCmR+Py/bZt1/e/v3TL8vbXZC3u3EcKEQgR48e3Q/o+x76PaC7AGgCmd8g342DhX3GAwa6kwEC2Z3tVtX+RiDz43H69Bn98vbvbrhN3u6CvN2NfT13gXz5tff6wRxNqf/6N9cAuguAJpD5DfLdOFjYZzxgoDsZIJDd2W5V7W8EMh8eP/nib015+wc/vFDe7oK83Y19PXeBvGP9Q01An3zaWYDuAqAJZD6DfDcOFPYZCxjoXgYIZPe2XRX7HYHMh8cnn3mlKW8fsvpwebsL8nY39vPcBfL+h59sAvq0M88FdBcATSDzGeS7caCwz1jAQPcyQCC7t+2q2O8IZD48PvXsq015+9A1R8rbXZC3u7Gf5y6QUVGib9r86cW/CvsfuDK8+Oqfwqdf/R3QXQA0gcxnkO/GgcI+YwED3csAgezetqtivyOQ+fH46hsfhCuvuSnsumhxnLc/+vwv8nYX5O1u7OeFCGRUmGuuWxcOO/xoIHcRyAQyv0G+GwcL+4wHDHQnAwSyO9utqv2NQObL4z33Px6WLttH3u6ivN2NfZ1AAqzlIEMg8x3ku3HAsM+YwED3MUAgu6/NqtzPCGS+PBLIfOtb5b6Z5dgIJIEkkBhoyUCWwcS6TloYKCcDBLKc7dKr/YVA5ssjgcy3vr3abwceN4EkDy3lwQykQWjggOE+JjDQfQwQyO5rsyr3MwKZL48EMt/6VrlvZjk2AkkgCSQGWjKQZTCxrpMWBsrJAIEsZ7v0an8hkPnySCDzrW+v9tuBx00gyUNLeTADaRAaOGC4jwkMdB8DBLL72qzK/YxA5ssjgcy3vlXum1mOjUASSAKJgZYMZBlMrOukhYFyMkAgy9kuvdpfCGS+PBLIfOvbq/124HETSPLQUh7MQBqEBg4Y7mMCA93HAIHsvjarcj8jkPnySCDzrW+V+2aWYyOQBJJAYqAlA1kGE+s6aWGgnAwQyHK2S6/2FwKZL48EMt/69mq/HXjcBJI8tJQHM5AGoYEDhvuYwED3MUAgu6/NqtzPchXI7/4V/mfPvcLzo0aFM0aNCmHUqPj+n7/7V8usU7VaE0j9vQimCSSBbDmoEkiDUBGDkNfAGQbyZYBA5ltf/Garb64C+df/Cv+zZM/+Arlkz5Y5p4ptRyCz8VhFBoo4psIE8t0Pvwovv/5eT3XiIhowz9cgkAahPPny3PjCQDEMEMhi6ozndHXOWyD/13kX9BPI6H4vtc2Hn34Xnn/l7Z465l5q37Ica2ECWZYDth/pBvioTgQyfa1wpVYYwEBZGSCQ2CwTm3kL5H/f92g/gYzul+n47Yv+WAUGCKS3sLYcWAmkQa4Kg5xjwHGvM0Ag9YEy9YG8BfKbr//RTyCj+2U6fvuiP1aBAQJJIFsOrATSIFeFQc4x4LjXGSCQ+kCZ+kDeAhkd6+Nzto+/RCf6PGSZjt2+6ItVYYBAEsiWgyuBNNBVZaBzHFjuZQYIJP7LxH8RAnnfQQfHAtlrn38sUzvbl2qPOwSSQBJIDLRkwAmg2icA7dsb7Usge6Odu6U/FyGQt559XiyQPv+I/W7pF922nwSSPLSUBzOQBt5uG9DsL2Yx0MwAgWyuCU5GriZFCOTvrrkxnDp2XPjmK59/xPrIsV7l2hNIAkkgMdCSgSoPfo7NSbVXGCCQWC8T60UI5LXX3xoOXXOkc5t8g4GcGCCQORW2TIP1UPfFDKTQMVR2bIcdDJSHAQJZnrbQL/4rEEg86gfdzwCBJJAtr84QyO7v4AZpbYgBDBBIDJRpHCCQeCwTj/ZlaDwSSAJJIDHQkgED69AGVnVTtzIxQCDxWCYeCSQey8SjfRkajwSSPLSUBzOQQ+tUBiN1wwAGysQAgcRjmXgkkHgsE4/2ZWg8EkgCSSAx0JIBA+vQBlZ1U7cyMUAg8VgmHgkkHsvEo30ZGo8Ekjz8/+3d+b/U5L0HcBUEBGTfVxfADakLi4AgKjuCxWpxuy5VUXHf645at1qt2iqtWLGKiKiAFhQV3Fq1vX3d2/b+Q899PTlmmLOECYdzDpnM+4fzmjmTSSZ58s43+TzJZDLDgzOQ7duoFCPtxgADRTIgQPJYJI8CJI9F8mhe2udRgBQgBUgGMg0orO0rrNpNuxXJgADJY5E8CpA8FsmjeWmfRwFSeMgMD85Atm+jUoy0GwMMFMmAAMljkTwKkDwWyaN5aZ9HAVKAFCAZyDSgsLavsGo37VYkAwIkj0XymBUgv/3hPx22L3p47dNhwaKlHTa9IrWfebE9F8GAACk8ZBZYZyAVqSIUKfPAIQMHZkCAPLD2469j2686QH793b/C1GkzQvfuh4cePXqGiZOOC7fd+cvM45J0XWz9+Itw7oIl4cy5Z1f+Zsw8M7yz+aNk3BggR48ZF4YNGx4OOeSQMGjQkLBs+U9rTjedvseOXefas3ztKUAKkJkFVYAs3waviFunDDSeAQGy8dZ5kbfz6gB56mnTkoAXQ1713yWXXZV5bBKX7dLLr2r2/nTci1Zdnow3Zsy4NocvW3HBPqdb5HYzb7bjIhkQIAXIzGIqQCpWRSpW5oVHBtpnQIBsX7vx1jntlgbINbfcmYS8QYMHh+vX3BJeXvdGGDN2fPJafNy+48vM45PpM2Yl71uwcGm4654HK397vvlnuPPuByrhcdnyleG1P20K08+YXXntty+/ljld67xz1rl2LV+7CpACZGYhFSDLt8Er4tYpA41nQIBsvHXeVdv5W5u2hfc+/CTzOKKt+UgD5DHHTkxC3UUXN501TN97RO8+P77+X5nTHTR4SPKeP7y+sdV7zjp7fjJs4KDBzYadPOXU5PUz58xr9nr6ue9v2xXe3PhBm8PS93i0LTHQZECAFCAzi6UAqVAqlAwwUP8GBMj6X4dF3A43bt6eBLJ4+WiPHj3CsRMmhbPPXRiuvHp1eGjtU+G1NzaFXbu/b3WMkQbI+B3FOO5Lr7ze7D0zZ81NXl/x0wubvZ62wda/7K587sxZc8LKC1aFe+9/tPLe9LLYOD/pOPExXt4aP2/KKaeGRx57Jlx9zQ3h3AWLw8RJx4devXpVprl+w7vNxquehue2JQaaDAiQAmRmoRQgFUqFkgEG6t+AAFn/67ArtsNde74Pf/zTO7n/4jFC+t3DfT0OGDgwHHf8ieGsefOTEHf8CSeF1TfeVhn3093fNTsOufiSK5JhszPOFD73wiuVcas/d8pPTkumc/yJk5Phw0eMDD+/+PIw75wF4YQTJ4f0zGb1OG09v/OeB3O3QWyvnZ//tdn8d8W68hm26YNtQIAUIDMLnwCpQB3sAuXzGWTgwA0IkAfeho3gMJ55i0Er799RRx/bZpBrK5RVv3booYeGa1bfXBm35c93/PKBtcmwrEtNY2jr2bNX+Mkpp4dz5i8KQ4eNqExrzS13hdFjxlb+r/7cvM/HjT8qdxvEtmp5BrURrFhGNUWAFCAFSAYyDdhJ2EkwUP8GBMj6X4dF3A5ff3NzZlA78sh+4aTJU8LipSvC6htvDb96+oXw53e2hq/+9r8hXsK6+sZbKuN+/uXfm+2Drrh6dTLsnPmLm72+rzYYM7bpcth4pjOeeYxh8fRp08M33/87vP3u9vDksy+GxUuWJ6/37t0n9O8/oPL5LYOlQGh72Zc1w5p8CJDCQ2aBdgZSEVUoGWCg/g0IkPW/Dou4He747Ntwxqw5YdbsuSEau+eXj4SXX30jbN+ZfffUuBwxQN5+1/1h+PCmoPfG21uaHYfMmTsvCXfLVqxs9vq+2uCinzd9v/H0qdNDvEQ2hsKjj53QbPxfrF6TvD512hnJ6x9/8nX4/R/eDPc9sDbEnw2Jl8xOnX5G2L5jT7Px9vW5htm2GtWAAClAZhZKAVJhbNTCaLnZL5MBAZLnInlOb6IzcNCgJNDFm+5Uz9/YH88mXrP6pmavx/fEM5oxHF586ZXNhsVQGF+Pw89bcUHyfOTIUc3eM2rUmOT1+QuXNHu9+rM9t60wkM+AAClAZhZSATLfRqTYaCcGGCiyAQGSzyL5TAPkpZddlQS6/v0HhkcefyY5Fplz1tnJazEMvvXO1hC/HxmD32GHdUvOcMab4sRhffr0DdeuvjkZZ8l554devY5IXr/ksivDHfc8VJnG7Xffn7wnDZVx3HvvX5t53FOkdjIvttsiGxAgBcjMQipAKl5FLl7mjU8G8hkQIPO1E09d005pgIzt3bdv30rY63tkv8rzVZdekRybXL/m9sprE487IflO46hRoyuvxUCY/s1fuDQJnHG68UY46evjxx9deT5tetPlq9Z116xr7VzedhYgBUgBkoFMA4p/eYu/dds461aAbJx1XQ/bdXWAfGvTtjBt+qxKwBsydFjyUx/pcnz+1T9C3779Qrxz6/IVP0v2Ve+891E4feqMyjhHHzMhzF+wJHz6xd6fA3no0adCvES2X7/+yfu6deuejJNO16NtgoEDMyBACg+Z4cEZyAPbuBQn7ccAA0UwIEByWASH6TxUB8j0tc++/HvYsnVX5vHI19/9q9Ww3d/8M2zLuOHNw2ufDgsWLW26C+umba3GTT/Xo22DgfYZECAFyMzCKkC2b6NSjLQbAwwUyYAAyWORPLYVIDt6/tIA2dHTNT3bEgNNBgRIAVKAZCDTgEJpZ8lA/RsQIOt/HZZpOxQgeSyT50ZdFgFSeMgMD85AKvKNWhgtN/tlMiBA8lwkzwIkj0XyaF7a51GAFCAFSAYyDSis7Sus2k27FcmAAMljkTwKkDwWyaN5aZ9HAVJ4yAwPzkC2b6NSjLQbAwwUyYAAyWORPAqQPBbJo3lpn0cBUoAUIBnINKCwtq+wajftViQDAiSPRfK4bv3bYePm7Z2639n84c7wu3VvdOpnFKlNzYttvKsNCJDCQ2aBdQZSQerqguTzmGOg4w0IkB3fppxqUwYYaGQDAqQAKUAykGmgkYujZXdwUBYDAiTLZbFsOVhmoBgGBEjhITM8OANZjI1UsbQeGGDgQAwIkPwciB/j8sMAAy0NCJACpADJQKaBlgXD/3YiDNSfAQGy/taZ7cw6Y4CBIhsQIIWHzPDgDKTiVeTiZd74ZCCfAQEyXzvxpJ0YYICBfAYESAFSgGQg04BCmq+QaiftVGQDAiSfRfZp3vhkoP4MCJDCQ2Z4cAay/jZoRdg6Y4CBlgYESCZamvA/EwwwcCAGBEgBUoBkINPAgRQX49o5MVAMAwJkMdaD7cF6YICBshgQIIWHzPDgDKRCV5ZCZzlYbmQDAiT/jezfsvPPQMcbECAFSAGSgUwDim7HF11tqk272oAAyVxXm/N5zDFQbgMCpPCQGR6cgSz3xq+4W78MNIYBAbIx1rPt2XpmgIGuMiBACpACJAOZBrqqEPkcOz0GOs+AANl5bcuttmWAgUY0IEAKD5nhwRlIRbERi6Jl5r5sBgRIpstm2vIwzcDBNSBACpACJAOZBhTog1ugtb/27wgDAiRHHeHINDhigIHUgAApPGSGB2cgFYq0UHhkgYH6NSBA1u+6s91ZdwwwUEQDAqQAKUAykGmgiEXLPNmZMrB/BgTI/WsvvrQXAwwwsG8DAqTwkBkenIHc98ajuGgfBhioBwMCJKf14NQ8cspA/RgQIAVIAZKBTAOKef0Uc+vKusoyIECykWXD62wwwEB7DAiQwkNmeHAGUlFpT1ExDjcMFMuAAFms9WH7sD4YYKDeDQiQAqQAyUCmgXovcObfTpqB/wsCpO3AdsAAAwx0pAEBUnjIDA/OQCo2HVlsTIsnBg6OAQHy4LQ779qdAQbKakCAFCAFSAYyDZS18FkuO/VGMiBA8t5I3i0r7wx0vgEBUnjIDA/OQHb+BqjIaWMGGOhsAwIkY51tzPQZY6CxDAiQAqQAyUCmATuExtohWN/lXN8CZDnXq+3VemWAgYNlQIAUHjLDgzOQCtPBKkw+lz0GOs6AANlxbcmltmSAAQb+LwiQAqQAyUCmAUXSjpKB+jcgQNb/OrQdWocMMFAkAwKk8JAZHpyBVKyKVKzMC48MtM+AANm+duNNuzHAAANtGxAgBUgBkoFMAwpn24VTu2iXejIgQPJaT17NK68MFN+AACk8ZIYHZyCLvwErstYRAwzUMiBAMlLLiOGMMMDA/hgQIAVIAZKBTAP7U0y8186HgWIaECCLuV5sL9YLAwzUqwEBUnjIDA/OQCps9VrYzDe7DOw1IEDubQsutAUDDDBw4AYESAFSgGQg04Aie+BFVhtqw4NtQIBk8GAb9PkMMlAuAwKk8JAZHpyBLNfGrnhbnww0pgEBsjHXu+3demeAgc4yIEAKkAIkA5kGOqvwmK6dGgNdZ0CA7Lq25lpbM8BAIxgQIIWHzPDgDKQi2AhF0DJyXnYDAiTjZTdu+RhnoGsNCJACpADJQKYBBblrC7L21t6dYUCA5KozXJkmVww0rgEBUnjIDA/OQDZuYbBTsO4ZKI8BAbI869J2aV0ywEARDAiQAqQAyUCmgSIUKfNgZ8nAgRkQIA+s/fjTfgwwwEBzAwKk8JAZHpyBbL6xKB7agwEG6tGAAMltPbo1z9wyUFwDAqQAKUAykGlA8S5u8bZurJu8BgRIVvJa8T5WGGAgjwEBUnjIDA/OQCoieYqI93DCQLENCJDFXj+2H+uHAQbqzYAAKUAKkAxkGqi3gmZ+7YQZaG1AgGzdJpxoEwYYYKD9BgRI4SEzPDgD2f4NS1HSdgwwUBQDAiSLRbFoPlhkoBwGBEgBUoBkINOAQl+OQm89NvZ6FCAbe/3b/q1/BhjoaAMCpPCQGR6cgVRwOrrgmB5TDHS9AQGy69ucc23OAANlNiBACpACJAOZBspc/CybnXujGBAgWW8U65aTdQa6xoAAKTxkhgdnILtmI1TstDMDDHSmAQGSr870Zdp8MdB4BgRIAVKAZCDTgJ1C4+0UrPPyrXMBsnzr1HZqnTLAwME0IIaxZgUAABPGSURBVEAKD5nhwRlIxelgFiefzR8DHWNAgOyYduRROzLAAANNBgRIAVKAZCDTgEJpZ8lA/RsQIOt/HdoOrUMGGCiSAQFSeGgzPGx87+Nw7/2PhkVLlrc5vL2IP9j+Wdi15/vKNN99f0cYPWZs5f/2Ttd4CisDDDDQtgEBsu124UW7MMAAA+0zIEAKkM3C24JFS0Pv3r3DIYcckvwNHjwk7NrzQ7P3tNzYvvzr/4RlK1aGScedUPmbOOn4cMXVqyvjrb7hlnD44YdXpjtixMjwymsbggDZvg235Trwv3ZkoLENvPn2B2H7zq8qNbfaw4EEyPVvvBs2vre9zelWf8YTTz8fzpo3v+b7qsfxvLHNWv/WPwP1a0CAFCArO/zzzr+gEvDSABkfTznt9Mp72trYX33tz22Od/QxE5LxsqZ7ZL9+4aXfv+4MJIP79NWWOa/V707HuuvYdbfq0ivC0KHDKjX4tNOnh1f++GazbaqtALnyglVh/FFHh/FHHVP5W7Ls/PDN9/9Oxo3j9OvXvzLdkSNHh8d+9Vyz6VavSwGyY9drddt6rm0ZYKBoBgRIB+/JAcEf//RO5UDh5xdfHr794T9h5qwzw6GHHpq8fs3qmzIPHO6858HkPSdPOSU8+5vfVf7e37YrORgZPmJkMnzGzNlh1+7vw6OPPRsOP7xH8tr8hUsFSAYzbRWtYJofO/EiGZh71jlJHY0dfd27773C44gjeoePPtl7NrJlgHzvw08q41V3FsbnX3/3r3DdDTe3Obx37z7h+Zf+0Ob2KkDaNoq0bZgXHhnoXAMCZIMcvL+1aWt4/sU/hC3bdrW587/2+qYDhjlnnV0ZHu/COmDg4ORAYsSIUZXXW26U56+8KHnP5Vdc0+o98aAiHpTEy1urx7vu+luS13v36bNfAfKzL38I6ze8G5769UvNplc9bc87t2hoX+3LwME38NHOr8KgQU31+dyFS5J6ePd9D4devY5IausFF15cqZEtA+STz76YvCeeffzt79ZX/jZ/uDMZ54QTJyfDFy9dHj7d/V1Y/8bmEENprOVnn7OwMt1qBwLkwTdRvT48tz4YYKAzDQiQDRIg+/Y9Mtn5xwOAnj17hfgdxXPnLw5XXXNDeOSxZ8K8cxYkw2fOmls5OIgB8rTTZySvjx13VHJWsi2MJ02e0vSe8UeFadNnhrlnnRvWrX87mc6aW+9Ohs2dd25luuk04iVRcX6GDB3WatiWrZ+G37y4Ltx2531h5c9WhdOnzQjDho1I3h/HiX8333Z3q/HSaXtUOBlgoIwGXn71T0ltvPGm25M6eNLJU5rVwSVLVySvx5qfLn/LAPmLa9ck71mybEXlPel7172+MRkW6+3nX/2jMvzxp55LXo+1d/vO3ZXX0/H2N0Bu/fiL8OLv14dfv/BKq2ml0/RoG2aAAQaKaUCArMMAGS8xijvr/fk77LDDKjv/NIC19dirV69w7ISJIX6PZsKESWH2nLMr43348Rdt7uirb46TTnP0mHHh5XUbwlW/uCEZ/9LLr2417qjRY5JhPXv1CtNmzAonnfyTMGLkqGY320mn19ZjvOHP/rTBn9/5sNU8KEzFLEzWi/XCQGsD77z3caUepzWxb9++4Zz5i8JVv7g+PLz26fDCy69V3hMvVY3t2DJAxg69OH78DuTAQYOTDsSnf/1y8t7YoRiHTZ5ySqt6OWHiccmwx596vtWwtgLk7m/+GTa8/X7y3cn4NYiFi5eF4084KcQrT9L5j49Zl8Uy0NqANtEmDDBQBAMCZB0GyD3f/jO52128413ev/S7jNU77X09j4GzW7duYer0meGYYyYkO/stPx6MVMP94qt/hBg6J598Sli+4oLkZz/692+68cKMmWeGn6/6r2Tciy+9otUBx2lTpyfD4rx179692QHFvuYtHRZv0pN3+eP7Hnr0qVbzUL0snivKDDDQlQb+8uk3SeiLwS/P3w033bFfdTLe7XryyT8Jw0eMCjfefEel/sWrPtI6Wv0Yg+Gddz+QDIuXr7ZsixNParra5NY77m01LAbIIUOGhfhd+GOOnRgGDBjY5mdUf176/OLLrsy1/Gkbbdn2aavPbzmv/rctM8AAA51nQICswwDZng0ihsF0Z139OGbsuDBr9twwclTT5aTLzvtp+Gjnl8nOOV7Ceu6CJZXxPq66KcO+5uHW2++tjLNg0bLk+cJFy1rt8IePaLokddDgIcmwr/72v+HPm7aGXz39Qlh9461h8dIVIV4ee+SR/SrTq5736264pdU09zVfhnVeIdG22paB/TewactfQrySIu/fzNlz26yF1XWx5fN4hUjsoFtzy51JvYxXsMTOt3POXRSuvHp1iDV/wIBByXR79OgRbvjx0thY+1uu07PnL0red+sd97UaFgPk4T16VG6Q1nI+9vX/qadNzd0Gsa1efe2tVp/fcl79v/8etZk2Y4CBvAYEyAYJkJdfeW1ydjAGsxjQYlCLgS2FEm/fHnfwK3+298YLyXcgp56RvB5vE5++t/pxx65vw+5v/rvVsHhWMk4v/j5kfDxz7t6b88Tx429HpqF22LDhrcav/oz4fPuOPSF+9yfeJCJejjVz1pwQvyfZ8n3+V/wYYKCsBt5+d3tST1uGsXh31HhpaOyoi5eKpp1u6c95tLyEtWX7NF0a23TH7aXn/TT5jHiFSMv3xc+In33/Q4+3GlZ9CWsMqW9t2haefOa34fo1t4W4f4lnQqt/FqR6GXwP0jbb0pr/mWCg2AYEyAYJkLU2xGXLm4LeiZP33pAhBsi+RzbdfGfcuPGVA4btO/ckz+P3VuJBwJixe4fFz7nr3ocqBzkPPfJk8jx+16Z6HpYub/rNyZ49e+7XXVirp+F5sYuL9WP9MNCxBr74+h8h/szShasuC9Onz0pq64yZc5rV1rc37Q2Z6U95VAfIeIXJJ1/8rdk4cT0NHjwkmd7y8y9MHidPObXVe/r1a7oa5Dcvtv4pj+oAua/1Hufpd+s2hHvvfzRcfOmVYfn5Pws7P/9rq8/a1zQM61hX2lN7MsDA/hoQIAXIZMddfXOGCy+6JMRLq+bO2/sbY7ffdX/yvjNmnpkcXMRLoD7Y/nno8+PdXeN3Y55/6Y/JAcGIH++uGg8MIsjRo8cm45xy6ulhw1tbwh33PBDijXNi+IyXUY0eM9bBA4cMMMDAfhi47sefXho3vnnn3Jy585LaGu+InR4QnLdiZbjp1rvCho0fJMNi7f3ok68rw5957uXK64891fTTS/E9m6u+977qkqbvs8ef/vjsy79Xxk0/I2+ATN/v0QErAwwwUL8GBMj92GGXHXr6e47xwKH6b/acsyoHC+nr8cY38TKlM388WElfTx/79x8Q1q1v+p7K1dfc2Gx66XvGjT8qxN+nFCDrt4CUfZuwfGwW1cA33/87xJ9XivU0Xjny+3UbwhVXXRe6dWu6IVl65+tJx52YvOfIfv2Tn2JKzzROmDgpPPr4M+Ha62+pXFo6a3ZTrZ806YRknHjJ6tonngsPr30qDB7SdIZy+hmzK/uD6rYRIG0r1R4854GBchsQIAXIZgcDS887P/n+TP8BA5Pfixw+YmSz4fGMYbzRwkkn7b3U9bY77gtjxo0Phx56WPLdxJUXrgrrWtzkIJ51POroY8Nh3bqFoUOHh2MnTgrxUqZ3398hQDLYzJidTrl3OtZvx63fq69ru3MuBr+0nbsffnilA++9rZ+Eu+57uPJ/2pmXPj717IvJePc//ESbP6cUQ+jGzdsr004/Iz4KkB23Xqvb1XPtygADRTQgQDp4b/Ng4Nsf/hPidyAXLWl9K/csyHGcrGHp6y3fI0AqjKkNjywwsP8G7ntwbTj+xMmh1xFHJHdAjTe/iWcn07ZcsfKiJDDGDrz0tQcffiKMGjUmTDzu+HDqadPCgsXLwpstfif3iSefD+PGHR2GDh0a+vTpG+LXF+JNfNJptHwUIPd/3bVsQ/9rQwYYqBcDAqQAmXlAsL8Bsj3oBUjFsj1ujMMNA/kNVN9Ep7PaTYDMvz46ax2YrnXAAANdZUCAFCAFSAYyDXRVIfI5dnoMdJ4BAbLz2pZbbcsAA41oQIAUHjLDgzOQimIjFkXLzH3ZDAiQTJfNtOVhmoGDa0CAFCAFSAYyDSjQB7dAa3/t3xEGBEiOOsKRaXDEAAOpAQFSeMgMD85AKhRpofDIAgP1a0CArN91Z7uz7hhgoIgGBEgBMjNAbtuxJ/mdxs6E+8XX/x1ebfGTH535eaatEDPAQKMZECCZbzTzlpd5BjrXgAApQGYGSBtf52582lf7MsBAVxjYsvXTsPUvuzu11u/47NuwcfNHnfoZXdFWPsM2yQADDNQ2IEAKkHb4DDDAAAMMMMAAAwwwwEAuAwIkKLmg6I2p3RujjbQRAwwwwAADDDDAQNkNCJACpADJAAMMMMAAAwwwwAADDOQyIECCkgtK2XtSLJ/eQgYYYIABBhhggAEGahsQIAVIAZIBBhhggAEGGGCAAQYYyGVAgAQlFxS9MbV7Y7SRNmKAAQYYYIABBhgouwEBUoAUIBlggAEGGGCAAQYYYICBXAYESFByQSl7T4rl01vIAAMMMMAAAwwwwEBtAwKkAClAMsAAAwwwwAADDDDAAAO5DAiQoOSCojemdm+MNtJGDDDAAAMMMMAAA2U3IEAKkAIkAwwwwAADDDDAAAMMMJDLgAAJSi4oZe9JsXx6CxlggAEGGGCAAQYYqG1AgBQgBUgGGGCAAQYYYIABBhhgIJcBARKUXFD0xtTujdFG2ogBBhhggAEGGGCg7AYESAFSgGSAAQYYYIABBhhggAEGchkQIEHJBaXsPSmWT28hAwwwwAADDDDAAAO1DQiQAqQAyQADDDDAAAMMMMAAAwzkMiBAgpILit6Y2r0x2kgbMcAAAwwwwAADDJTdgAApQAqQDDDAAAMMMMAAAwwwwEAuAwIkKLmglL0nxfLpLWSAAQYYYIABBhhgoLYBAVKAFCAZYIABBhhggAEGGGCAgVwGBEhQckHRG1O7N0YbaSMGGGCAAQYYYICBshsQIAVIAZIBBhhggAEGGGCAAQYYyGVAgAQlF5Sy96RYPr2FDDDAAAMMMMAAAwzUNiBACpACJAMMMMAAAwwwwAADDDCQy4AACUouKHpjavfGaCNtxAADDDDAAAMMMFB2AwKkAClAMsAAAwwwwAADDDDAAAO5DAiQoOSCUvaeFMunt5ABBhhggAEGGGCAgdoGBEgBUoBkgAEGGGCAAQYYYIABBnIZECBByQVFb0zt3hhtpI0YYIABBhhggAEGym5AgBQgBUgGGGCAAQYYYIABBhhgIJcBARKUXFDK3pNi+fQWMsAAAwwwwAADDDBQ24AAKUAKkAwwwAADDDDAAAMMMMBALgMCJCi5oOiNqd0bo420EQMMMMAAAwwwwEDZDQiQAqQAyQADDDDAAAMMMMAAAwzkMiBAgpILStl7Uiyf3kIGGGCAAQYYYIABBmobECAFSAGSAQYYYIABBhhggAEGGMhlQIAEJRcUvTG1e2O0kTZigAEGGGCAAQYYKLsBAVKAFCAZYIABBhhggAEGGGCAgVwGBEhQckEpe0+K5dNbyAADDDDAAAMMMMBAbQMCpAApQDLAAAMMMMAAAwwwwAADuQwIkKDkgqI3pnZvjDbSRgwwwAADDDDAAANlNyBACpACJAMMMMAAAwwwwAADDDCQy4AACUouKGXvSbF8egsZYIABBhhggAEGGKhtQIAUIAVIBhhggAEGGGCAAQYYYCCXAQESlFxQ9MbU7o3RRtqIAQYYYIABBhhgoOwGBEgBUoBkgAEGGGCAAQYYYIABBnIZECBByQWl7D0plk9vIQMMMMAAAwwwwAADtQ0IkAKkAMkAAwwwwAADDDDAAAMM5DIgQIKSC4remNq9MdpIGzHAAAMMMMAAAwyU3YAAKUAKkAwwwAADDDDAAAMMMMBALgMCJCi5oJS9J8Xy6S1kgAEGGGCAAQYYYKC2AQFSgBQgGWCAAQYYYIABBhhggIFcBgRIUHJB0RtTuzdGG2kjBhhggAEGGGCAgbIbECAFSAGSAQYYYIABBhhggAEGGMhlQIAEJReUsvekWD69hQwwwAADDDDAAAMM1DYgQAqQAiQDDDDAAAMMMMAAAwwwkMuAAAlKLih6Y2r3xmgjbcQAAwwwwAADDDBQdgMCpAApQDLAAAMMMMAAAwwwwAADuQwIkKDkglL2nhTLp7eQAQYYYIABBhhggIHaBgRIAVKAZIABBhhggAEGGGCAAQZyGRAgQckFRW9M7d4YbaSNGGCAAQYYYIABBspuQIAUIAVIBhhggAEGGGCAAQYYYCCXAQESlFxQyt6TYvn0FjLAAAMMMMAAAwwwUNuAAClACpAMMMAAAwwwwAADDDDAQC4DAiQouaDojandG6ONtBEDDDDAAAMMMMBA2Q0IkAKkAMkAAwwwwAADDDDAAAMM5DIgQIKSC0rZe1Isn95CBhhggAEGGGCAAQZqGxAgBUgBkgEGGGCAAQYYYIABBhjIZUCABCUXFL0xtXtjtJE2YoABBhhggAEGGCi7AQFSgBQgGWCAAQYYYIABBhhggIFcBgRIUHJBKXtPiuXTW8gAAwwwwAADDDDAQG0DAqQAKUAywAADDDDAAAMMMMAAA7kMCJCg5IKiN6Z2b4w20kYMMMAAAwwwwAADZTcgQAqQAiQDDDDAAAMMMMAAAwwwkMuAAAlKLihl70mxfHoLGWCAAQYYYIABBhiobeD/Af4JxyCxXo69AAAAAElFTkSuQmCC;" vertex="1" parent="1">
          <mxGeometry x="230" y="720" width="420.73" height="340" as="geometry" />
        </mxCell>
        <mxCell id="Ff5pl8S5cZrspRFTCfV7-55" value="" style="shape=image;verticalLabelPosition=bottom;labelBackgroundColor=default;verticalAlign=top;aspect=fixed;imageAspect=0;image=data:image/png,iVBORw0KGgoAAAANSUhEUgAAAlQAAAGECAYAAADwTr6bAAAgAElEQVR4Aey9d3gcR5vdO0gESAAEAwCCJBKRiRyIQOScc84550hkgCIpURLFIEoklXMmxaQsKlL6cthv4+frtXe9tnfXvuuwTuv12ve+fqqGGAHCNAhgpjHTxfMHHgATurveOl3nN6drqlXf/fyPCD+oATQADUAD0AA0AA1AA5vXgArF23zxUDvUDhqABqABaAAagAaYBgBUSOiQUEID0AA0AA1AA9CAjhoAUOlYQHwywScTaAAagAagAWgAGgBQAajwqQQagAagAWgAGoAGdNQAgErHAuJTCT6VQAPQADQADUAD0ACACkCFTyXQADQADUAD0AA0oKMGAFQ6FhCfSvCpBBqABqABaAAagAYAVAAqfCqBBqABaAAagAagAR01AKDSsYD4VIJPJdAANAANQAPQADQAoAJQ4VMJNAANQAPQADQADeioAQCVjgXEpxJ8KoEGoAFoABqABqABABWACp9KoAFoABqABqABaEBHDQCodCwgPpXgUwk0AA1AA9AANAANAKgAVPhUAg1AA9AANAANQAM6agBApWMB8akEn0qgAWgAGoAGoAFoAEAFoMKnEmgAGoAGoAFoABrQUQMAKh0LiE8l+FQCDUAD0AA0AA1AAwAqABU+lUAD0AA0AA1AA9CAjhoAUOlYQHwqwacSaAAagAagAWgAGgBQAajwqQQagAagAVk18NZ7H1BBUZms+wDQAGgMrQEAFQZSDHLQADQADciqgdffvklu7odk3YehzRT7B9ABqDCQYpCDBqABaEBWDVy7+Rk57nOSdR8AGgCNoTUAoMJAikEOGoAGoAFZNfDhZ3dp5047WfdhaDPF/gF0ACoMpBjkoAFoABqQVQNffvsrsrDYJus+ADQAGkNrAECFgRSDHDSgkwYWTz5Gb1/9UKdtGHogxP7lN2NTUzP65vvfQicYb4TVAIAK4hZW3DBJ+U2S1TghKZUefvQ8dISxZE0NWFvb0Cdf/GTN1+Cc3ZpzFnWWp84AKgyCGOCgAZ00kJmVR3OLj+i0DQzw8gzwxlTXvfYOdP2DL6ATjDfCagBABXELK25jMhORj6WwuJzGJ+ehI4wla2rA2cWV2HpUIp8LaJv4HwzW6mMAFQZBDHDQgE4aqKppoL7BMZ22sdYghefEMCkvb1968bX3oBOMN8JqAEAFcQsrbhjx1hhxU2sntXX0Gr2Ort78jKpqGyk5JYPqG9uM/nhF029QcChdevYV1B2eI6wGAFQQt7DiFs2QjLU93b3DVNvQojcdjR2bo6SUdCoqraCR8Rn69qe/k9z2x59/T4nJaRQUHEY+vofJ1e0Q7du3n+x27aZt2ywpPjGZ7v7sD6m7f4RUJiakUqk0P65u7nTh0vOS2zbWehv6uNhlOzd3D17vuIRkKimroq6eIZo7/ghdvPwivXPtI/ry7q9X1TUy+ig9ceHKqscN3R7sf2s+eD0IdQZQAagwwEEDOmlgeGyaSsurddrG0mCbmJKuAZ4l+ImMOkpvSsy9OXvhyqrXL72P/W5oaqeXXn9P8xo2jyciMpp27d7DH2OpydK+8Xt9xvroE09p6rm81j/+29Z2Jx10diG/wwHkHxBEu3btoVOnz6HeGG+E1QCACuIWVtwwyPUZpK51mp47QTl5RTrraHh8WmPULAE55OFJFhYW/LGUtCzJ7Z978ll6+LELdPbCM/T0M6/Q4PAkf4+pqSnd/vhrqq1v4f8Hh4RptnHm/BXaaWfHH5+YXtA8rmstjOn9bDHNjz7/jq7fvsMng7/8+lW68vzrdOHp54lB0UOnztD0/EkanZil3oExauvs45dCyyvr+I2MM7LyKDEplaJiYikkNJx8/fzJ/ZAH7d6zl9ftxwC11v/btm0jS0tLml18WMhaG1O/41i2ZtzTVmcAFYAKAxw0oJMGmDGnpGbqtA02OHl6+XCj3rvXXrOtmNh4/pi1jY3mMW0D2fLHoqJj+Xsqq+v5ezw8vfn/FVV1K7YRHBLOH4+LT1rx+PJtyfH3F9/+ktitWN6/9Tm9+d5teum19+jyc6/R+aeeo0fPXKTjJx8nBqnscmdv/yi1dvRSXUMrlVXUUn5hKaVn5lJCYipFRscSawMDHXbjYSen/bRr927avn07mZiY8JXJWUpk7+BIzs6uvL4BgcEUHhFFsXGJlJKWSdm5hVRcWsnnljW1dFJnzyANjhyjiakFmj/+CJ169Bw9cf4yPXXlJXr+5bfotbducHiVgidzc3OeSBUUlfHjv/zcq/T517/g9S0qqSB2OVeOmmKbhoMI1P6H2gOoYKYY4KABnTTw+NmnKSY2YV3bYGnJY2efpo6uAWIGe/uTbzTvY39Pzj5EX333G81jfocDOfS4uLppHltrAGdzeJbM/r3rn/D3eHh48cceP39pxTYGho/xx/c57V/xONv+jQ+/pBdffZcYEJy7+CydfvxJYivCT80+ROwSZ0//CLW09/D0q6yihvIKSig9I4fiE1OIXaLUNqfLymo73x+b28Xua+fguI+cXdyIffstICiEIo5EU2x8EqWmZfHEj81Nqq5toubWLurqHaKhkUk6Nr1I8w+d5gupsvlITz/zMj3/8tv0+ts36L0bn/BE7rOvfrbmvLO16ree59iNjlmNGayFhUcSA9eZ+VPEErC13s++EMCSsLVeg+d+MGfUQnm1AFDBTDHAQQM6aYBBTGhYxKptvPnuLTp+6nF+GSn6aDyx5GkJdpZ+z8yfXPU+ZiQNTR18cvnS6yqqV6ZLUmaTmJTG98HWxlp6DZt8zrZz5bnXNI+x51554xp/3MrKasXj7DmW1nj7+FFgUCgdiYwhNvk6LT2bcvOLqaS8mmrqmqm5rZu6+4ZpaHSKJmeO08KJR+kRdunxyWfo0jOv0AuvvENvvHOTrt74lD745Bv6/Oufywo6S+3dit/sUuJG98PAsLXd+L8NutF24fXKAx+5+gxABTPd8MAolxixXWUOTCwh2X/gINU3tVNScjod8vCibZaWq+BpCY6W/2aXtbT1O1tVe/nromLitL5u+Xufe+ktzXtee/uG5vXs2Ni2zpy/rHmMvY+lOuxxdols+Xbwtzw6ZPBZU9+MWsNzhNUAgAriFlbcMEZ5jPHHdX397ZvEJoAvB6D1/s0unf14e+x/Nnm6pa2HAoNCNNstLVv7m4TsFjhsv1k5+Su2yZZTYI+3da5MR9icJfb49h07Vrxe2/HgMd21xOCZXcZELXWvJWponDUEUAGoMMBBAzppgM2pcdznxLdx88MviSVFpx49T0Ojk/zSWFpGDrFv2DntP0CmpmYaQGIw09M/et99M0Bir2WX7qSM5LW3rmu2yxKz5a9jE6/Z+8OPRK94PCu3gD++nvRr+fbw9+bMjH2jkPUF6re5+qFuxl83ABXMFAMcNKCTBtg31tgk6/UO+OwGuc+++CY98viTK97DvpLv4OBIvQMrISspOYODD/uG2tI+lr45tvQ/mzPFoIktCLr02NLvE488wZ9ja09deu5lzfNLa1HlF5ZoHlt6D37r37xOPPwEJadmoNYYb4TVAIAK4hZW3DBF/Zuitpqy9Y4sLLbprKPisio1+OzaQ8+/8g7f3pnzlzSLcFbVNPLHDh3y5K9ji3Sy43n3+if8fwZUT135AZiWHytbOoA9b7FtG4WFHyFX90P8/92799Ab797U+diX7wt/a9fd4+cuEftyAuqjvT6oi/LrAqACUGGAgwZ01gCbQ/XN97/VaTtsUU4npwMaOLKxtdX8HRVzlG5+9BX/phwDI/bD1lpiJsTWNmL/x6xh1myl9cDAH+ZjsdcfdHYlURf1NEZzZmtZhYSu/jaoMR4rjkn5cGOIPgRQwUx1MkFDiBb7NL7Bztrahj754ic6a+n0mYsUHh6pASkGPuzWJS+/cU2zbbYoJVvTKfxIJH+MrTfF1kJ69a3rmtdIaYQtb8DWdhoanb7va6W2gcc3pz82t419QQD121z9UDfjrxuACkCFAQ4a0FkDbJmDGx98ofN2lkzj0rOv8AU1r39wR2/bXNo2fhvGmN5459aaXyxAvximX1B3/dUdQAUzhWFBAzprgN3a5C2JGxhjwNbfgK3kWl679TlfHV7JbcCxQ8traQBABTPV2UzXEhieezAGIHb7FHZPOvT3g9Hfm+lntro6u13NZt6L90BXStAAgApAhQEOGtBZA0HBoXTp2Vd13o4SBk0c4+bM/cu7vyZzcwtoBOONsBoAUEHcwoobxrc549tM3SKjj9LZC1egJYwna2rAzMyMvv7+h5tfb0ZreM/Wndeo9cZqDaDCALjmAIgTamMn1INaL3ZT4lOnz0FLGE/W1ICNjS19fOf7NV/zoJ5DaLfyx1oAFQZADG7QgM4ayMzOp7nFh3XeDkxF+aayVh+yBVav38Y3N9eqEZ5T7jkAoIKZwgShAZ01UFRSwRfYhBko1wy2ou9cXNzozXdv66y3rThW7ANa3qgGAFQwUwxu0IDOGmC3hekbGNN5OxsdwPB6ZZmet48fvfjqu9AJxhwhNQCggrCFFDaMdmuNtrm1i1o7eqEljCdraiA4JIzYLYZwfm7t+Yl6b029AVQYADG4QQM6a6C7b5hq61t03g4G/q0Z+A1V56iYWHri/GXoBGOOkBoAUEHYQgrbUIbxoO53ZHyaSsqqoCWMJ2tqICk5nU6ePrvmax7UcwjtVv6HCQAVBkAMbtCAzhqYnjtJOXmFOm8HpqJ8U1mrD7NyCmh24RR0gjFHSA0AqCBsIYW91qCO5/Rv2icefoKSUzOgJYwna2qguLSSRidm13wNzk/9n5+o6dbUFECFARCDGzSgswYeP3eJYo7G67wdDPxbM/Abqs7VtU3U2z8KnWDMEVIDACoIW0hhG8owHtT9PnX5JQoJjYCWMJ6sqYGWtm5qae9Z8zUP6jmEdiv/wwSACgMgBjdoQGcNPP/y2+Tr56/zdmAqyjeVtfqwp3+EauqaoBOMOUJqAEAFYQsp7LUGdTynf9N+452b5Op2CFrCeLKmBtj8KTaPCueg/s9B1NTwNQVQYQDE4AYN6KyBa7c+I0fHfTpvB6ZgeFOQsw9m5k9Rdk4BdIIxR0gNAKggbCGFLacpYNurTf+jz74j2507oSWMJ2tq4OQjZykpJX3N1+D8Wn1+oSbKqAmACgMgBjdoQGcNfHn312RhYaHzdmAcyjCOzfbTmfOXKTomDjrBmCOkBgBUELaQwt7sgI/3bd7QzczM6Ovvfws9YUyR1MDTz7xMwSHhks/j/Nv8+YfaGb52ACoMfhjcoAG9aMDaxoY+vvMTvWwL5mB4c5CjD1545R3y8fWDRjDmCKkBABWELaSw5TADbHNtk7e3d6Drt+9ATxhTJDXw5ru3yMXVTfJ5nGNrn2Ooj3HXB0CFwQ+DGzSgFw04u7jRm+/d1su2YBzGbRyb7Z/3b98hBwdHaARjjpAaAFBB2EIKe7MDPt63eSP39vGjF199F3rCmCKpgY8//55sbGwln8f5t/nzD7UzfO0AVBj8MLhBA3rRQFBwGF165hW9bAvmYHhzkKMPvvruN2Rubg6NYMwRUgMAKghbSGHLYQbY5tomHxUdS09cuAI9YUxZUwMMqL767tdrvgbn2trnGupjnPUBUGHww8AGDehFA4nJaXTq9Dm9bAuGYZyGoY9+sbG1pY8+/w46wbgjnAYAVBC1cKLWx6CPbWzc0LNy8ml24WHoCWPKmhpwcNxH79/6fM3X4Pzb+PmHmhm+ZgAqDH4Y2KABvWigqKSCxiZm9bItmIPhzUGuPnBxdac33r0FnWDcEU4DACqIWjhRy2UE2O7aJl9d20S9A6PQE8aUNTXg43uY2AKfOJ/WPp9QH+XVB0CFwQ8DGzSgFw00t3VTa3uPXrYFM1Gemay3z0JCw+mpKy9DJxh3hNMAgAqiFk7U6x3Y8Tr9mnZP3wjV1DVDTxhT1tQAuznymXOX13wNzk39npuo59bUE0CFwQ8DGzSgFw2MjM9QSVmVXrYFA9gaAzBEnZNT0unEI09AJxh3hNMAgAqiFk7UhjAJ7POPaGb+JGXnFkJPGFPW1ADTCNMKzhlxoflB7VsAFQY/DGzQgF40wFIHlj48qIMp2r0+QGApJkszUa/11Qt1Uk6dAFQwUwxs0IBeNHDm3CVi82NgAMoxAEP0FZtnx+bbGWLf2Ce0KacGAFQwUwxs0IBeNMC+ucW+wSXngIVtK98Q2TdB2TdC0ZfK70v04co+BFDBTDGwQQN60QBbW4itMYRBduUgi3qsrAdbq4ytWYa6rKwL6qH8egCoYKYY2KABvWjgjXdukauru162BXNRvrlI9eHYsVliq+pLPY/Hxe170fsWQAUzxcAGDehFA+z+bOw+baIPmmifbobP7vfI7vuIOupWR9TP+OoHoIKZYmCDBvSigY8+/45sbXfqZVswC+MzC331yanT5ygxOQ06wbgjnAYAVBC1cKLW18CP7WzM1L/67tdkbm4OPWFMWVMDT1y4QlHRsWu+Bufexs491Ms46gWgwuCHgQ0a0JsGzMzN6avvfqO37cEojMMo9NkPl555hYKCw6ARjDvCaQBABVELJ2p9Dv7Y1sYM3cbGlj6+8z00hXFFUgMvvvouefv4ST6Pc25j5xzqZTz1AlBh4MPABg3oTQP2Do70/u07etsezMJ4zEJfffHWe7fJ2cUVGsG4I5wGAFQQtXCi1tfAj+1s3MxdXN3ozXdvQ1MYVyQ1cP2DL8je3kHyeZx3Gz/vUDPjqBmACgMfBjZoQG8aYJdy2AKfGOCNY4A3xn745M5PyNrGBhrBuCOcBgBUELVwojZGE3lQjik4JIyefuZlaArjiqQG7v70d/TUlZckn39QzhW0U7wPHQAqDHwY2KABvWkgKiaOzpy/rLftwXTEMx30KfpUVA0AqGCmMD9oQG8aSEpJp5OPnNXb9kQdeNEuQAU0IJ4GAFQwU5gfNKA3DWTlFNDMwim9bQ+mI57ptLT3kEql4j/sb/SxeH38oPYpgApmigENGtCbBopLK2l0YlZv23tQB2YltPvON7+kDz+7S+wejuybnS+99h5dfu41On/xOTp95iIdP/k4Tc2eoJHxGerpH6HW9h4KDArQwBSgCiClBJ1v5BgBVDBTmB80oDcNPHb2aW6qGxmE8Fr9Gevdn/0h3fnmF/TBp9/StZuf0Rvv3iK2kOalZ1+lcxefpdOPP0mLJx6jqdmHaHhsmnr6RoilRNW1lVRckknZudGUkhZIsXEedOTIfgoK2ks+Prbk5rad9jlZ0K5dZmRlZbIKipbgaD2/AxxU9HyBisZjkVJB+/rTvjHUEkAFM9WbmRqDoHEMYg1QovTn3Z/9jj7/+uf0wSff0NWbn9Ib79zky0tcevYVOvvkM/TIYxdo4cSjNDlznIZGp6i7b5iaWzupqqacikrSKSsnilJSAyg27hBFROynwMA95O1tQ66uVrRvnwXZ2ZmSpaVuoLMeGFr+mm3bVGRra0J795rS/v1m5OpqQYc8LMnb25r8/HZSUNAuCo/YSzFHHSkpeT9lZjqTu7stpbiriI6r6MsmAJUo+kY71OMugApABaCCBh5YDXz709/RZ1/9nG5//A29d+NTev3tm/T8y2/zpR/OXrhCDz92nhYeOk3HphdpaHSSunqHqKmlnSqrS6mwOI2ysiMpOeUwHY11p/AIJwoI3E1e3jbk4mJFjo4WtNMAoGNpqaKdO03I3t6UnJzMycVlGx06ZEVe3jvIz8+GAgPtKCR0Nx2N3cdBJyvbmVJSDlJ2tjMVFTtTVZULNTa5UkeHKw0MutHEhBvNzbnRqVPu9MQT7vT00+70/PPu9NJLh+jll93plVfc6NVX3ei119iPq5Yf9fPsdS+95E6deds5UP2iXcXTMZgxPgSJogEAFcz0gTVTUU5iY2qHviYcf/OTP6DPvvwZ3fr4a3rv+if02ls3OOg8deVleuL8FTr16HmaP36aJqYWaHDkGHX2DFJjcytVVhdTYVEKZWYdoaTkwxRz1I3CwvdRQMBu8vJSg46Dgznt3GlKLGFZnrjI/beV1Q+gc+CAObm6bSMPDyvy9rEmv8M7KThkN0UcsaejsY6UnLKf4uIOUmrqQcrOcabie6DT1ORCnV2uNDjoykFnfsGNHn7Yjc6evQc6L2gDHW2Qwx5bCTovvniIXnjBg557zpOeecaLLl/2pqee8qELT/rR2XOH6fEzAXT60SA6dSqEjj8URnPzETQ1HUnj49E0NBxLvf3x1NmZRC2tqdTQmC7501cZzIHq/xk2wdgD/xFKAwAqCFooQRsTXDxox7IcppbgJOJINDU0tVBFVREVFCVRZlY4JSX5UkyMKwcdf/9d5OlpTc7OlsRAx9bWlCwstg50TExUxEDHzs6EHBxMiYGOi+s90PG2psOHbSkoyI5CQ/fQkSMOlJxygOLjD1Bq2kHKyXWmkhIXqq52oeZmF+rqcqWhIVc6NulGCwtu9MgjatC5dMmdGKywdOblV5YnOtpBh6U9LM1ZSnTYe59/3oOevQc6ly4x0PGlCxf86OzZw/T44wF0+nQQnWSgczyM5uYiaGoqksaWQKcvgTo6k6i5ZW3QWQuC9PlcZ1UEB6p/PabC2AP/EUoDACoIWihBP2gQo0t7v7z7az55+eoNlgC9T8+/9CY9dflFOnvhEp1+7BydOPUozS+epKmZBZo4Nk0jY8doaHiUBgaHqb9/kLp7+ig5NYNiYhMoLDyS2I2Rl0BK19+mpiravl1FdrvUoHPwoDm5uW0jT08r8vGxIX9/9WWryEh7iovfRympByg+4QClpR2kXAY6pS5UXcNAx5W6uxnouHHQWVx0o0dOu9O58+50+fIPoLMEMOpLV2uDDoMiBkfLQefKFS9ioHPxR6DzyD3QWbwHOpMcdGJocCiWeu+BTlOzcYCOPqFprW211cRwoPq7SQCVLucv3mt8l0oBVAAqAJWRaeCLb3/FJy+/d/1jeu3N9+m5FxnovEBPnH+ag85Dpx6luYUTNDUzT+McdCY0oNPXP0h9fQPU29dPfeynv58GBgZpaGiYRkdHaWJigqanp2l+fp7/sL/Hx8dpeJhBUj91d/dQR0cntbS0UWNjM9XXN1BNTR1VVdVQRUU1lZVVUUlpBRWXVFBhURlFRidRTGwaxSVkkpu79yqgcna2oYSEg5Se7kx5ec5UWupCNbUu1NLiSt09rjQ87EZTU260eNyNHn3Unc4z0LlySJPocNBZc36OK5+/w17H5vOweT0vLCU6z3qSBnQuLiU6/jzReeSRIDpxMoQY6MzORdDkVBSNjjHQiaOe3gRq70iipuY0yctWawEDnpO+3Mdq01SXyIHqf8wCqABFxgdFuvQJgMrIzFSXzsR75T052bo7tz/+mt59/yN69Y1r9OyLb9DFSy/QmXNP0yOPnaOHTi4HnSkaGZ2gQZ7oDFFf/wAHnCXQYfCyFuhMTU1x0BlaBjrt7R3U0tLKQafuHuhUVtVQeUU1lZZVUklpJRUVM9App4LCcsrnPxWUX8h+KqmgsJoKimqosLiOikoaqLisSe8/zs6mGqgqLrbjl600oPPCvUtX90Dn6ae96eJFXzp/wY+eOOtPjz0eSEugs7AYRjOzEXRsUg06A4NLoJNMjQAdxYPe/7eo/qbftz/5LT7QwYOE0QCACmJWvJjvfP1zuvXxV/TutQ/pldev0rMvvE5PXnqeg87Dj56l4ydO0+z8QzQ5PU9jE/dAZ2iU+gfUoMMg5wfQGVCDzvBSonOMJzoLCws0NzdHDHTGxsZoaGiIA1J3dzf9ADpNVFfXQNU1dbQcdIpZosNAp7icCjSwo4YcBjr5RdVUUFxDBcV1VCgT6MgBT9q2mZZmwYEqOTlY8aaPpGntpEmX+vy3GTVQffHZF4off/BBVt4PskqqL4AKQCXbgPbFt8tWUn5v2UrKT/2wkvL0nHol5d7+UWrt6KW6hlYqq6il/MJSSs/MpYTEVIqMjqXgkDDy8T1Mbu6HyMlpP+3atZu8vb1pCXQmJyeXgU4fdXWpQae5pZUaGn8AHXapa3RsTJ3olFTcS3QqloEOS3YY7FRRflEVT3QKiusVDzra4EeOx3JyLDlQxccHAqjW+KabLjAiwnv//TE1UH1y45ps44+SjBjHKgaUAageMKBaWkn5w3srKb95byXly8tXUj65bCXlfvVKyrX1LVRaUUN5BSWUnpFD8YkpFBl1lIKC1aDj6naI9u3bT3a7dpGVlRU3VVNTM7Kw2EZW23eQtc1O2mm3m/bscSAHh/3ktN+ZDjq7k6ubJx3y8CUv7wDy9Qsm/8BwCgqJotDwoxQRmUBRMSl0ND6d4pOyKSk1j9Iyiigzu4xy8liyU0tFpY0bumzFAIxNsJYDJrDNJiootOZ9HxNzGEAFoJLUwL8aUwPVh28+D6B6wDxIZHgEUBmJmBnofP71L+iDT76970rKw/dWUm5p66aaumYqLa+m3PxiSkvPpriEZDoSGUOBwaHk7eNHLq7u5LjPiezsdpGlpRp0zMzMaNs2S9q+fQfZ2OwkO7s9tGevAzk4MtBxuQc6XmrQ8Qkg38Mhy0Anlo5EJlD00RSKjc+ghKRsSk7NV4NOThnl5LNkZ+Ogs1Uwsri4SDOzcwAqGeZPsT4sKt7FgerIER9JMxUhYUEbdLsc+M+G1UB184UzACoj8SCRQWer2gaguo+YNSsps1tG3FtJ+YVX3qGnn3mFzl54RutKys2tXVRd10QlZVWUk1dEqelZFBefRGxNnsCgEPLy9iUXFzdycNxHO3facbhhXzP/AXSsycZ2J9ntYqDjuAx0DpGruxcd8vQjb58A8jscQgGBERQcEkVhEbF0JCpxGejkUHJaPqVlFlOmBnTqNpzobBXobMV+yipb6Pjx4/ynpLwZUCUDVBUVq5dOCA31BFAhoZLUwB8OqoHq+tPzAKr7eNBWwQD2o/tlR8UC1bpXUp5epMGRSaD5TRoAACAASURBVOrqGaSm1k6qrm2k4tJKyskrpJS0TIqNS6TwI1EUEBhMnl4+5OziytfTsbXdSdu2beOfts3MzNWJzg4GOnYa0HF0PED7D7iQs8sh/pVxDw46gWrQCYqg4NDoZaCTqk50khnoFHDQycopp9z8Kj4ZeSuA4kHfR01dhwao6ho6AVSyAJUzP2eCQ1wlzRTpjm7pjgj1++WAGqiunR0CUAGohNGA3oHq6+9/S59++VO6+dFX9O77H9Nrb12n5156i566/BKdOX+ZTp0+R3OLj/BbRgwMH6PO7kFqbGE3AW2kopJKys4t5IsFHo1NoPCISPIPCCJPL2866OxC9vYOZGNrSxYW7JtEJmRmbs4vY+3YYU22tna0a9de2mvvSI77GOi4LgOdw+TtG0h+/qEUoAGdOJ7oxMSm8jV0EpNzKCWtgNIzSygrt5xyC9g3r+pgujKYrqHArrG5WwNU7Z0D6FsZ+rao2PMeUO0HUCGhktTA9wMmfC2qq4+0CmOmSHh0T3iUXkMNUDHYmV18mMYn52lgaII6ugeosbmDKqsbqKikgrJyCig55YdVkQ/7B5GHpxcdOOhMe/fak7WNDZmbm5OJiQmZm1vcAx0bNejsZqCzbxnoeJDbIW/y8GKgE0SH/UMpMOgIhYTGUPiRuHuLBS6BTq4adLIY6FTcA516mKEMZmgo0Nmq/bZ19GuAanBoDBqSQUMFhf4cqIKCHCTNVISEBW3QLWX7qt9UDVTHKwFUSKiE0QAHqgtPP88nJru4epD7IR/y9DpMPhx0wigw+AiFhDHQiV+xKnJiSi6lpBdS+j3QySuoocISgM5WwQH2s/FFKXt6hzVANTk1A6CSAahy88I4ULGbEQM6dIMOkev3SZ+ZGqhmcoUxU6WnKzh+3RM2DlRnzl0ix30HYTAyGAzAZ+PgI1fNWCq1NCmd/S7FxHS9n/MZWbEcqPz8dgKocMlPUgM3e7dxoHr/WDKACgmVMBrgQPXUlZf4JTm5jAzbNR6oeJD7Ymx8cgVQYWK6/nWZmJzGgcrL21rSTEVOXtC29aVy73bv4EB1YzRKGDNFwqN7wqP0GnKgYssAsK/oP8hmi7br31yNrabT07MrgKoDE9P1fs6zqQBsCRB3dysAFRIqSQ0827iTA9WtwcMAKiRUwmiAA9Ub79ziCzwamwHieMSHnK3s44WFxRVANTg0rneg2Mr2GOO+UtMLOVAdPGghaaZIcdaX4ohcp4v1uzlQfdjvIoyZKj1dwfHrnrBxoHr/1uf89iDGOEDjmABV+tBAedUPi3ouzaOawsR0vQNlRnYZByoHBzMAFRIqSQ2cqXPgQPVprz2ACgmVMBrgQPXR59/xe67pw7iwDQCQMWqArZI+cWyK5ubmid1+hsFUX/+I3oHCGNu+lcfEbj3ELvnt3GkqaaYiJy9o2/rSt1M1BzhQfdVrK4yZIuHRPeFReg1VH352lybnzpGJqSnMBd/yE14DpRXNND+/IHw7txKilu8rv6iOA5WlpQpAhYRKUgNzVW4cqL7vtQJQIaESRgOqV9+8TvYOTmRqakqFJQ0wGkCV8BpgCdVyCMDf+k1VTUxUHKrqG9IkDRVJzvqSHFHrNF7uzYHqV30Wwpip0tMVHL/uCZvq3MVn+WKellbb+SrkMBf9mgvqaXz1XFhYINwcWb5+sbFRA1V1TTKACimVVg0MVRzmQPVHA6YAKiRUwmhANbtwigKDI/ktYtg97AAA8hkNamsctWXzqMorW6B1mdJYR0c1UJVXJGg1U1FTF7Rr/albb2UwB6p/PmwijJki4dE94VF6DVXdvcMUE5dGe/Y6UFpmMUxGJpMBTBkHTLF+mJ6ZpcrqNmhdJq0fOqQGquLiWAAVEiqtGuisiuBA9W/GVAAqJFTCaEBVXlXH78e3z8mZklPzYTIymQyAyniAit3Hr7q2HVqXSesBASZ8DlV+frRWM0WSs/4kR9RatdYc5UD1HyYBVEpPZXD8PyRzqpS0TD6fhN0YOT4pGyYjk8kAqIwHqNjyCbX1ndC6TFo/csSUA1V29hEAFRIqrRporEvkQPUPcwAqAMkPQKL0WqiCQ8KooXmQPDz96GhcOkxGJpMBUBkPULF7+tU3dkHrMmk9Pt6MA1VaephWMxU1dUG7Npa8/Z8FFYeqb77/tTCXfJQOBDh+3eBOdfCgC/UMzJHv4RCKjEmGychkMgAq4wGqkdFj1NjcDa3LpPX0dAsOVEnJwQAqJFSSGviv02qguvPpHQAV5lEJoQGVpZUVTcycoaCQSAo/EgeTkclkAFTGA1RDw+PU3NoLrcuk9ZwcKw5UcfEBkmaKNGdjaY6I9fp3E2qg+vj6e0KYKdId3dIdEeqnsrS0otnjFyn8SDyFhEbDZGQyGQCV8QDVwOAYtbb3Qesyab2g0JoDVXSMH4AKCZWkBv5yVA1UH7zxHIAKCZUQGlDt3evIgSo6NpUCgiJgMjKZDIDKeICK3cOvvXMAWpdJ60XFuzhQRRzxljRTERMXtGljqdvvh9VAdfP5x4UwUxESFrRBt5RN5ebuzYEqISmb/A6HwGRkMhkAlfEAVU/vMHV2D0LrMmm9qNiRA1VIqAeACgmVpAZ+N6gGqutPzwGokFAJoQEVS6XYJb/UjCLy8g6AychkMgAq4wGqru5BYgvaok/k6ZOiYhcOVMHBrpJmijRnY2mOiPX65YAaqK49MSiEmSLd0S3dEaF+quijKRyosnMr6JCHL0wGQCW8Bjo6B4hd9gNQyQNUhcWe94BqP4AKCZWkBr7rN+HLJlx9uAVAhYRKCA2o2O1mWEJVUFxHLq6eMBkAlfAaaG3vJzYxHUAlD1AVFPpzoAoKcpA0UxETF7RpY6nbl/2maqBarBDCTEVIWNAG3VI2VVFZIweq0spWOnDQFSYDoBJeA2zJBLZ0AoBKHqDKyQvnQBUQsBtAhYRKUgMf95lzoLo2kwugQkIlhAZUwaHRHKiq67rJcd8BmAyASngNNDb30MjohPDtNBQwpmfGcaDy87OVNFOkORtLc0Ss181eSw5U7x9LEsJMke7olu6IUD8NUDW0DBJbQsFQgzD2K09agLquriu77Qy7/Qxqs7o2+qhJQlIaByovL2sAFRIqSQ2802XNgerGaCSACgmVEBpQ1TX284SqtXOC7HbtgckgoRJeA+zGyOwGyfqAB2xjNZQlpeRxoHJ3t5Q0UxETF7RpY6nbMw07OVDdGvQVwkxFSFjQBt1SNlVFTQcHqu7+WbKx2QmTAVAJr4Hq2naanJoRvp2Ggj22BItKpaKDBy0AVEioJDXwZP0eDlQf9jsDqJBQCaEBFRt02bf8BkZPkJXVDpgMgEp4DVRWt9H0zKzw7TQUUGVml3GgcnAwkzRTpDkbS3NErNfjtQ4cqD7rtRfCTJHu6JbuiFA/VW5hDQeq0clHycJiG0wGQCW8BsorW2h2bl74dhoKqHLyqzhQ7dxpAqBCQiWpgZM1BzhQfdVrC6BCQiWEBlQZ2aUcqKbmz5GJiQlMBkAlvAZKK5ppfmFB+HYaCqjYmnbskt+2bSpJMxUxcUGbNpa6zVW6caD6vs9KCDMVIWFBG3RL2VTJqfkcqNhlP1NTMyosqYfRAKqE18Di4qLwbTQUULH9mpqqOFTV1acBqpBSadXAWLk3B6pf9VsAqJBQCaEBVWxChgaorKy2U25BNYwGQCW8BlhCVVreLHw7DQVVtrZqoKqqTtZqpkhzNpbmiFivwQp/DlR/PGgqhJki3dEt3RGhfqrI6CQNUNnu3EVZOeUwGQCV8Bpgc6jYXCpDAYfo+923Tw1UZeUJACokVFo10FMZwoHqz4dNAFRIqITQgCo0/KgGqPbsdSR2bz/RB3u0b/XaQQ9aTdi3/Ni3/R60dm9Vez081EBVVByr1UxFTFzQpo2lbp1VRzhQ/dtxlRBmKkLCgjbolrKp/APDNUDltN+Z2JyqrRp0sR+AjaE0wNahYutRGWr/ou83IMCEz6HKy48GUCGh0qqB1tqjHKj+4ySACiCjG8gYS/1U3j6BGqBycfWk+MRsmAwu+QmvAbZSOlsxXXSwMVT7jkSacqDKyj6i1UyR5mwszRGxXk31SRyo/uccgMpYgADHoRvYqdwP+WiAysPrMB2NS4PJAKiE1wC7lx+7p5+hgEP0/SYkmHGgSksPA1AhoZLUwP9eUHGo+ubuL3HZD/OoFK8B1YGDbhqg8jscQmySuuiDPdqHS40joxPU2NwDrcv04SE93YIDVVJysKSZipi6oE0bS97+y7QaqO58+pnizRTpjm7pjgj1Uzk47tcAVVBIFIUfiYPJyGQyADnjAbmh4XFqbu2F1mXSem6uFQequPgAABUSKkkN/O2EGqg+fv8dABUSKsVrQGW3a48GqCIi4yk4NBomI5PJAKiMB6gGBseotb0PWpdJ64WFNhyoomP8JM0Uac7G0hwR6/WXo2qg+uD1ZxRvpiIkLGiDbimbaoe1jQaoYmJTKSAwAiYjk8kAqIwHqPr6R6i9cwBal0nrRcW7OFBFRHgDqJBQSWrg98NqoLrx3GMAKiRUiteAit0Qmd12hv0kJOeQ7+EQmIxMJgOgMh6g6ukdpq7uQWhdJq0XFe/jQBUS4iFppiImLmjTxlK33w2qger9p2YUb6ZId3RLd0Son4rdxHRm8UkOVGkZReTlHQCTkclkAFTGA1Sd3YPEoAp9Ik+fFBW7cKAKDnEBUCGhktTALwbUQHX1zACACgmV4jWgYvfvm5g5w4EqO6+S2DIKMBl5TAZ1NZ66sst97LIf+kSePiks9lQDVbCTpJkizdlYmiNive72m/BlE66eala8mYqQsKANuqVsqt2799Dw+MMcqApK6snF1QMmg4RKeA2wCelsYjqASh6gyi/050AVFGQPoEJCJamBL/pN1UC1WA6gQkKleA2o9h84SL1DCxyoyipbaf8BV5gMgEp4DbAlE9jSCQAqeYAqJzeCA5V/wG5JMxUxcUGbNpa6fdxnzoHq2kyO4s0U6Y5u6Y4I9VN5eHpRR88UB6rq+h5y3HcAJgOgEl4Djc3dNDJ6TPh2GgoY0zLiOVD5+tkCqJBQSWrgRo8lB6r3J5IAVEioFK8BlX9AEDW1jXCgamgZoj17HWEyACrhNcBuO8NuP2Mo4BB9vwlJGRyovLx2SJop0pyNpTki1uvtLmsOVDdGjijeTEVIWNAG3VI2VcSRaKpt7ONA1dY1QXZ2e2AyACrhNcBujMxukCw62BiqfUkpeRyo3N0tAVRIqCQ18EyDHQeq24O+ACokVIrXgCouIZkqqjs4UHX3z5G1zU6YDIBKeA1U17bT5NSM8O00FFCxJVjYkiwHDlhImqmIiQvatLHU7cm6PRyoPuo7qHgzRbqjW7ojQv1U6Rk5VFTWyIFqcPQEsWUUDDUIY7/yTBBGXVfXtbK6jaZnZqF1mT48ZOaUcaCytzcDUCGhktTA47WOHKg+690LoEJCpXgNqPILSym3oJoD1djUo2RuYQGTkclkADarwcZQNSmvbKHZuXloXSat5+RXcaCytTWRNFOkORtLc0Ss14maAxyovu61UbyZipCwoA26pWyqiqo6ysgq5UA1NX+eTExMYDIymYyh4AH7XQ1yJeXNtLCwAK3LpPWC4noOVBYWKgAVEipJDcxUuXOg+kmfFYAKCZXiNaBqaG6npNQ8DlTsfn5mZmbEBkOY8GoTRk3Eqsni4iJ0LhNQsXPFzEzFoaquPlXSUEVMXdCm9SdvY+XeHKh+3W+ueDNFuqNbuiNC/VTsnmax8RkaoLKy2sEvAQIexIIH9Ofq/pyfX6DSimZAlUxQtXOnGqiqqpMBVEiptGpgsCKAA9WfDJoCqJBQKV4DqsGRSYqMTtQAle3OXZSZUw6TkclkADarwcZQNZmdnafyqlZoXSatOzmpgaqsPEGrmSLJWX+SI2qteipDOVD9ixETxZupCAkL2qBbyqaanDlOIWExGqDaa+9I7CvPhjI57Nd4gEP0vpienqXKmjZoXSag8vRUA1VRcSyACgmVVg10VEdyoPrrcRWACgmV4jWgWjzxGPkHhmuAymm/C59TJbqZon0At8nJGaquawdQyQRUgYEmfA5VXn60VjMVNXVBu9afvLXUxHKg+k9TACqkQ7qlQ8ZQP9WjZy6Sl0+ABqhc3TwpPjELJiOTyQDkjAfk2ErptQ2d0LpMWo+MNOVAlZV9BECFhEqrBhrrkjlQ/eMcgMoYgADHoBvUqS48/Ty5uXtrgMrTy59i4tJgMjKZDIDKeICK3cuP3dMPfSJPnyQmmnGgSksL02qmSHLWn+SIXKt/mldxqPrm7s8Vf8kHQKIbkCi9fqpnX3yDDhx00wCVn38oRUYnwWQAVMJrYGR0ghqbe4Rvp6GAMSNjGweqpKRgABUSKkkN/P20Gqg+/+QTABXmUSlaA6pX37xO9g5OGqAKDo2isIg4mAyASngNDA2PU3Nrr/DtNBRQ5eZacaCKiwuQNFORkxe0bX0J3N9MqIHq42tvKdpMlZ6u4Ph1T9dU713/hOx27dEAVURkAgWHRsNkAFTCa6B/cJTa2vuFb6ehgKqw0IYDVXS0H4AKCZWkBv5iVA1Ut1+7AqBCQqVoDahuf/IN7dhhowEqNn+KfevPUIMw9ivPfBbUdXVde/tHqKNzAFqX68ND8W4OVBER3pJmihRnfSmOyHX6s2E1UN187lFFmykSHt0THqXXUHXn61+QubmFBqgSk3PI1y8YJiOXyWC7RqOt7t5h6uoeNJrjEQ16C4v2caAKDvEAUCGhktTAHwyqger9i9MAKiRUitaAihGhSqWimcUnOVSlZRaTp7c/TAbgI7wG2G2XenqHhW+noUCtqNj1HlC5SJqpyMkL2ra+9O0XA2qguvZ4n6LNVOnpCo5f94SNA9X27TtofPpxDlTZeZXkfsgHJgOgEl4D7Z0D1Nc/Inw7DQVUhcXeHKiCgp0AVEioJDVwt9+EL5tw9VQTgAoJlaI1wIFq9569NDR+igNVYUk9Obt6wGQAVMJroLW9jwYGx4Rvp6GAKr8wgANVYJC9pJkixVlfiiNynb7oN1UD1UKZos0UCY/uCY/Sa8iB6sBBZ+odXOBAVVbVRvsPuMJkAFTCa4AtmcCWTjAUcIi+3+zcIxyo/AN2AaiQUElq4KM+cw5U16azAVRIqBStAQ5UHp7e1N49yYGqpr6HHBwPwGQAVMJroLG5m0ZGjwnfTkOBW1pGPAcqX19bSTMVOXlB29aXvl3vseRA9f5EoqLNVOnpCo5f94SNA1VAYDA1tY1woGpsHaY9ex1gMgAq4TXAbjvDbj9jKOAQfb/xiZkcqDy9dgCokFBJauCtLmsOVDdGjgCokFApWgMcqCIio6m2oY8DVVvXMbKz2w2TAVAJr4Ha+g6aODYtfDsNBW5JqXkcqNzcLCXNFCnO+lIcket0pcGOA9WtQW9FmykSHt0THqXXkANVfEIKlVe3c6DqGZgja2tbmAyASngNVNe20+TUjPDtNBRQpWUUcaA6cMACQIWESlIDF+r3cKD6qO8AgAoJlaI1wIEqPTOXikobOVANjp0kK6vtMBkAlfAaKKtswcKeMuo8M6ecA5W9vZmkmYqcvKBt60vfHqvdx4Hq8949ijZTpacrOH7dEzYOVAVFZZRbUMWBamzqMb5yuqE+1WK/q2+RgpqgJkrUQG5BNQcqGxsTABUSKkkNPFRzkAPV1702ACokVIrWAAeqiup6Ss8q4UA1vXCeTExMhE8nlGhQOGaAlZI0UFBcz4HK3FwlaaZIcdaX4ohcp5lKdw5UP+mzVLSZIuHRPeFReg05UDU2d1BSSh4HqtnjF8nMzJzYYKikwRvHCtjYrAaq69qpvbOf2EKfJeWr61hV00aDQ6M0OTXN161qbunFubHOS4UMptitrerqUwFVSKm0amC03IcD1W/6zQFUSKgUrQEOVJ09g3Q0Pl0DVOxWNLn5VTCNdZrGZo0c71sNL/qqSXtHP/UPjGoFpOX7mDg2RcePH9f8zM/PU1f3kEb7TS3dxB5b/hr299AQFgRdXkepv+3s1EBVVZ2k1UxFTl7QtvWlbwMVARyo/mTQVNFmqvR0Bceve8LGgWpodJKORCVqgGqn3W7KzCnTmIrUYInH5QMC1HbztW1o6tYAUGV1m6SOh4bGNK+bnpml0fFJzf8srWJ9MDunhin2bcDe/mGamPgBwDo6ByW3jf5T99/+/WqgKiuPB1AhodKqgZ7KUA5U/3JEBaBCQqVoDXCgmpx5iELCYjRAtdd+H7GvPMMUNm/qqJ3handscpqD0cCQ9H362KW9hYUF/rqOrh/AaOm9Y2PHqKm5hz9/7Ng0lVW0aM6HY/dSrdExLAp6P517eqqBqqjoqFYzRYqzvhRH5Dq1V0VyoPqbcQAVUiLdUyJD1pAD1fGTj9PhgDANUO0/4MLnVN1vsMTzhoMG1F577bt6hjgEzc8vUHlVqwaCflyvlrZe/rrZ2bkVr6mu6+CPs8t6Pb3D/O/xiakVr6lZ9pqS8uYVz/14Pw/6/0FBJnwOVV5eFIAKCZVWDbTUxHKg+s9TACpDwgD2rTvMcaB69ImnyMsnQANUrm5eFJ+YBaPAHCpFaYAt1Lk016m9c2DNY+/sGuSv1bawJ0un+Dyp4XH+e2R0YtW2GGSx19TVd6x67kGHqOXtj4oy5UCVmRWh1UxFTl7QtnWmb3XJHKj+1zyAClCjO9QYsoYcqJ689AK5uXtpgMrT259iYtNgFAAqRWmA3eiYQQ67lMfmOk1OTlNtfafWNnTfS7LGtFy2YwDFtrO0vb6BkVXbWLo0WN/Uveq55UDxoP+dmGjGgSo1LRRAhYRKUgMMpui4ir7+9meKnkNjSDPHvg0PYxyonn3xTdp/wFUDVIf9QykyOglGAaBSjAZa2/o4BDEQWv6zuLhIza2rlzloaVVf8hsYHF3VRnZ/P7aN0XE1oA0Pr/5G3xJsNTR1rXr/gw5Ry9ufkbGNA1ViUpCkmSLJWWeSIzCQsct9DKg+//gjABUmpitWAxyoXnvrOtk7OGmAKjg0msIiYmEUACrFaGBiQv0NPTYnqqOzn99SZmm5AwY/y02e/b30TcCx8dUTy4dH1AnV0LD6N/v/x+9fSqhqG7QnYD9+/YP6f27edg5UsXEBACqBgUhXKP7rcTVQfXz1TcWaKRIiwydEhu4DDlTv3fiU7Ox2a4AqIiqBgkOiVpnIg2oKaLf2CeDGVBc2F4qlSix5WjqupRSKPb702NJvBkLscXZ5cOmxpd9LINbVo32eVX1jlyYFK6/CpPSlumn7XVhow4EqKtoPQAWgktQAWzKBJVS3X7sEoEJCpVgNcKD64NNvafsOaw1QHY1LJ//A8FVGo23AxGPGDxsPQh8trRfV3PrDnKbGFvWyBwycllZAr2/spIpq9bf/ZmZmORixCepLNRoYGuWPzc3PU1llM03PqEFtdOyHlGtyUv2YtvlXS9vBb/V5UVS8hwNVeIS3pJnqmm7g/cq/ZPinQ2qguvHsI4o1U0OnI9i/4RMyDlR3vvklvyEyu+0M+0lMySVfv2CNycAcAE3GrgF26Y6B09zcHLV1DFBrew+xy3/sMXZ5jh3/4KB6Ic/5hQUOVex2M+z5pdcsPc/+7+tXT0Tv7lUvw8AeY9ubnlZDGPt/eRpm7PUx1PEVFjlxoAoO8QBQIaGS1MBvB9VA9f6TUwAqJFSK1QAHKka27IbI0wsXOFClZxaTp5c/gApzqBSjgeVrQzHYWf7DLtExoGALdC49vrQS+tJ8qaXH2e/xH82rYlA1O/vD7WcYVHXcZ1kGQwGMse23qNj1HlC5SJopEiblJ0y69uHPB9RAde2xXsWaKRIiwydEhu4DDVDt2LGDxqcf50CVk19F7od8FGOmxmYiOB7DJHpsiQSWVLEkaWZmjkbGjhEDraX+YLehmZqaof4fLYPA5lOxRTxHRiaorUN9y5ml9yz/zbZVXSt9K5vlr8Xfag0UFnmrgSrYCUCFhEpSA3f7TfgcqqunGgBUSKgUqwENUO3Za09DYyc5UBWWNpCzi4fGiGAOhgEE1B11V7oG8gsCOVAFBtlLmqmu6Qber/yE606fqRqoFkoVa6aGTkewf8MnZBqgOnjQhXoG5zlQlVe1Ebv9jNIHcxw/gAQaMKwGsnOOcKDy998FoEJCJamBj/rMOVBdm8oCUCGhUqwGNEDl6eVD7d2THKhqGnrJwXE/gApzqITXALtM2Nu3eiV0gJh+QCwtI4EDla+vraSZImFSfsKkax9e77HiQHV9PF6xZoqEyPAJkaH7QANUgUEh1NQ6zIGqsXWY9uxxEN5MYZr6MU0l15FNWNe2uKeS22RMxx6fmM2BytNzB4AKCZWkBl5qtOFAdXMkHECFhEqxGtAA1ZHIGGLJFFs2ob37GO202w2gQkIlvAZq6zuI3WrGmCBEpGNJTs3nQOXmZilpprqmG3i/8hOuyw12HKhuD3gp1kwNnY5g/4ZPyDRAlZCYQuVV7RyoegbmydraFiYDoBJeA1W17fybfyJBjDG1JS2zmAPV/v0WACokVJIauFC/hwPVx337AVRIqBSrAQ1QZWTlEvt2H0uoBsdOkqXVduHN1JiMB8dimMuPFdVtxFZMR/3lqX9WTjkHqr17zSTNFAmT8hMmXfvw0dp9HKju9O5WrJkiITJ8QmToPtAAVWFxObH1pxhQsfWozM0tYDJIqITXQFllC83NzQvfTkMBY25BNQcqGxsTABUSKkkNPFR9kAPVN73WACokVIrVgAaoKqsbKD2rmAMVWzFdpVLBZABUwmugpLxZ6w2SDQUgou23sKSejyXm5ipJM9U13cD7lZ9wTVce4kD10z5LxZqpodMR7N/wCZkGqJpaOvk9/FhCxX7Mzc2poLhOeEMVzcDQno1fulpcXITOZfzwYGGh4lBVW5cKqEJKpVUDo+U+HKh+028OoEJCpVgNLOmqsAAAIABJREFUaICqq3eIjsalc5hiQLV9uzW/BAiD3rhBo2bKqtn8/AKVVjQDqmSCKjs7NVBVViVpNVMkTMpPmHTtw4GKAA5UfzpoqlgzRUJk+ITI0H2gAarhsSk6EpWgASq2bEJmdhlMRiaTAXQZD3Sxe/+VV7VC6zJp/cABNVCVlsUDqJBQadVAT2UoB6p/OaICUCGhUqwGNEA1NfsQBYdGa4DK3sGJUjOKYDIymQyAyniAanp6liprcNNjuTTp5aUGqsKio1rNVNd0A+9XfsLVUR3JgepvJgBUhk5ZsP/NJ20aoHro1Bk6HBCmAar9B1wpKSUPQAWgEl4Dk5PTVF3XIXw75QKm+203ONiEz6HKzYsCUCGh0qqBlto4DlR/Pw2gAtBsHmgMXTsNUD129mny8vbXAJWruxfFJWbCZABUwmtgYmKKahs6hW/n/cBHruejo005UGVmRWg1UyRMyk+YdO7D+mQOVP80D6AyNBRg/5sHOg1QXbz0Irm6eWmAyss7gGJiU2EyACrhNTA2NkkNTV3Ct1MuYLrfdpOSzDhQpaaFAqiQUElq4B/nVByqvvrmp4qdQwMY2TyMiFA7DVA999JbxC7zLS2bwC7/HYlKhMkAqITXwPDIBDW19AjfzvuBj1zPZ2Zu40CVmBQkaaY6JxwAFcXX9j9NqYHqsw8/BFBhYroiNaABqtffvkF77fdpgCokNJrCImJhMgAq4TUwODROLW29wrdTLmC633bz8rZzoIqN81e86QP85Ls8+dfjaqD66L3XFWmmIiQsaINuCZsGqK7e/JTYUglLCRVLp4JComAyACrhNdA/MEptHf3Ct/N+4CPX80VFthyooqJ8AVRI0iQ18C9G1EB169WnAFRIqBSpAQ1QffjpXdq+fYcGqI7Gp5N/QDhMBkAlvAZ6+0aoo2tA+HbKBUz3225R8V4OVOHhXpJmiuRHvuRHKbX90yE1UN145mFFminSHd3SHRHqpwGqL779FZmZm2uAKikll3z8gmEyACrhNdDdO0RdPUPCt/N+4CPX80VF+zlQBQcfAlAhoZLUwG8H1UB17cIkgAoJlSI1oAEqRoempqbEbozMLvulZ5WQp9dhmAyASngNdHYPUk/vsPDtlAuY7rfdomI3NVCFOEuaqVJSFBynfEnazwbUQHX1sR5FmqkICQvaoFvKtgKodlhb0/jUYxyocvKryO2QN0wGQCW8Bto7B6ivf1T4dt4PfOR6vrDImwNVULATgAoJlaQGvu034csmXD1ZD6BCQqVIDawAqr177Wlw7CQHqqLSRnJ2OQSTAVAJr4HW9j4aGBwTvp1yAdP9tptfEMiBKjBor6SZIvmRL/lRSm3v9JupgWq+WJFminRHt3RHhPqtAKqDzi7UMzDPgaq8up2c9rvAZABUwmugubWXhobHhW/n/cBHruezcyM5UPn77wJQIaGS1MCHfRYcqK5NZQKokFApUgMrgMrL25fauo9xoKpp6CUHx/0wGQCV8BpobO6mkdFjwrdTLmC633ZT0xM5UPn62kiaqVJSFBynfEna+z1WHKiuj8cp0kxFSFjQBt1SthVAFRgcSo2twxyomtpGaPceB5gMgEp4DdQ1dtH4+KTw7bwf+Mj1fHxSNgcqD8/tACokVJIaeLHRhgPVjeEwABUSKkVqYAVQRUYdpZr6Hg5U7d2TtHPnbpgMgEp4DdTUd9CxY9PCt1MuYLrfdpNT8zlQubpukzRTJD/yJT9Kqe2lBjsOVLcHPBVppkh3dEt3RKjfCqBKSEqlsqo2DlS9g/O0w9oGJgOgEl4DVbXtNDU1I3w77wc+cj2fllnMgWr/fnMAFRIqSQ2cr9vLgerjPicAFRIqRWpgBVBlZudRYUkDB6qhsVNkaWkFkwFQCa+BiupWmpmZE76dcgHT/bablVvOgWrPHlNJM1VKioLjlC9JO127jwPVnd7dijRTERIWtEG3lG0FUBUWl1NOfiUHqvHpx/nK6fcbLPF8E4xY4dBZVtlCc3Pz6EeZ+jG3oJoDlbW1CYAKCZWkBh6qduZA9W2vNYAKCZUiNbACqKpqGonF82yl9JnFJ/kgCGACMImugZLyZlpYWABQyQRULPVWqVRkZqaSNFMkP/IlP0qp7XSFBweqn/VZKtJMke7olu6IUL8VQNXU2kWJybkcqBhUmZtbUH5RHYxGJqMRHVSU1L7FxUXoXEadb9um4lBVW5cKqEJKpVUDIxW+HKh+228GoEJCpUgNrACq7r5hOhqXpgGqHTusid2CRknGiGNForYZDczPL1BpRTO0LhNU7dqlBqrKqiStZqqUFAXHKV+S1l8RyIHqz4ZMFWmmIiQsaINuKdsKoBoem6aIyAQNUNnZ7aGM7DKYjEwmsxnjx3vkAcbZ2Tkqr2qF1mXS+sGDaqAqLYsHUCGh0qqB7sowDlR/MaICUCGhUqQGVgDV9NwJCg6N0gCVvYMTpaYXwmRkMhnAkTxwtJm6Tk/PUmVNG7Quk9a9vdVAVVh0VKuZIvmRL/lRSm3bq6M4UP3tBIAKSZFuSZGh6rcCqB56+Az5+YdqgOrAQVdKTMmFychkMpsxfrxHHgibnJymmroOaF0mrYeEmPA5VLl5UQAqJFRaNdBcG8+B6r9MA6gMBQTYr24gtwKoHj97iTy9/TVA5ebuTXEJmTAZmUwGcCQPHG2mruMTU1TX0Amty6T16GhTDlSZWRFazVQpKQqOU8YkrT6VA9X/XgBQAWx0AxtD1W8FUF28/BK5unlqgMrLJ4CiY1NhMjKZzGaMH++RB8JGx45RQ1M3tC6T1pOSzTlQpaaGAqiQUElq4H/OqThUffXV94qcQ2MoI8d+jQPAVgDV8y+/TU77XTRA5R8QTkeiEmEyMpkM4EgeONpMXYdHJqippQdal0nrmZnbOFAlJgZJminSHxnTH4VA3H+cVAPVZx98AKDCxHTFaWAFUL3+zk3aa79PA1QhYTEUFh4Lk5HJZDZj/HiPPBA2ODROLW290LpMWs/L386BKjbWH0ClELgxBOD+23E1UH303quKM1OkRMaREhmyH1YA1bWbn9HOnbs0QHUkOpGCQqJgMjKZDOBIHjjaTF37B0apraMfWpdJ64VFthyooqJ8AVQAKkkN/PmIGqhuv3IRQIWESnEaWAFUH352l6y279AAVWx8BvkHhMFkZDKZzRg/3iMPhPX2jVBH1wC0LpfWi/dyoAoP95I0U0MkItincV1m/JMhNVBdv3JScWZqyGQE+zaOdGwFUH1591dkZmauAaqk1Dzy8Q2CychlMtiu0Wiru2eIunqGjOZ4RAPnoqIDHKiCgg8BqJBQSWrgN4NqoHr//ASACgmV4jSwAqgY5ZqZmdHU/HkOVelZJeTpdRgmA/ARXgOdXYPU0zcsfDsNBWpFxe4cqIKDD0qaKdIi40qLDNEfPxtQA9XVx7oVZ6ZIiYwjJTJkP6wCKmtrGxqbeowDVW5BNbG1qAw1CGO/8lzeQl1X17W9o5/6BkahdZk+PBQW+dxLqPYBqJBQSWrgm34TvmzC1RP1ACokVIrTwCqgsrd3oMHRExyoikobydnlEExGJpMB2KwGG0PVpLWtjwaGxqB1mbSeVxDEgSowcK+kmRoiEcE+jSsV+7zPTA1Uc0WKM1NDJiPYt3GkY6uAytnFlboH5jhQVVS383WpDGVy2K/xAIfofcHWoGJrUYneTkO1LysnigOVv78dgAoJlaQGPui14EB1bSoDQIWESnEaWAVU3j6+1NZ1jANVbWMfOTjsh8nI9KndUOaG/a4G1YbmbmKrpaM2q2ujj5qkpiVyoPLxsZE0U6RFxpUWGaI/rvVYcaC6Ph6rODNFSmQcKZEh+2EVUAUFh1FjyxAHqqa2Edq9xx4mA6ASXgN1jV00Pj4pfDv1AUeb2UZCUjYHKg+P7QAqJFSSGnih0ZYD1Y3hEAAVEirFaWAVUEVFx1J1fQ8Hqo6eKb7Q52YGULxHnk/6qKs8da2p76Bjx6YBVDJ9eEhOy+dA5eq6TdJMDZGIYJ/GlYpdatjFgeqDAQ/FmakhkxHs2zjSsVVAlZicRmWVrRyoegcXaIe1DUxGJpMBHMkDR5upa1VtO01NzUDrMmk9PbOEA5WTkzmACgmVpAbO1dtzoPq4zwlAhYRKcRpYBVRZ2flUWFLPgWpo/BRZWlrBZGQymc0YP94jD4RVVLfSzMwctC6T1rNyKzhQ7dljKmmmSIuMKy0yRH+crt3HgepO7y7FmSlSIuNIiQzZD6uAqqikgrLzKjlQTcyc4Sunw8TlMXHU1XjqWlbZQnNz8wAqmYAqr7CGA9WOHSYAKiRUkhpYrHbhQPVt7w4AFRIqxWlgFVBV1zZSWmYRB6qZxSf5IAjjNx7jR1/I0xcl5U20sLAIoJIJqApLGvhYYmqqkjRTQyQi2KdxpWKTFR4cqH7Wt01xZmrIZAT7No50bBVQNbd1U0JyDgeq2eMXycJiG+UX1cJoZDIaAJI8gLSZui4uAqg2U7f1vsfSUsWhqrYuBVCFlEqrBobL/ThQ/cGAGYAKCZXiNLAKqHr6RigmNk0DVDt22FBOXiWACkAlvAbm5xeotKJF+HauF4D0/brdu9VAVVmVqNVMkRYZV1pkiP7orwjkQPX7IRPFmSlSIuNIiQzZD6uAamR8hiIi4zVAZbdrD2Vkl8JkAFTCa2B2do4qqlqFb6e+QWm923N2VgNVaWk8gAoJlVYNdFWGcaD6y1EVgAoJleI0sAqoZuZPUlBIlAaoHBz3U2p6IUwGQCW8BqamZ6mqpk34dq4XgPT9Oh8fNVAVFh7VaqaGSESwT+NKxdqqozlQ/bsJAJUhkxbse3Np2yqgOvHwE+TnH6oBqgMH3SgxJRcmA6ASXgPHJqeppq5D+HbqG5TWu72QEBM+hyonNwpAhYRKqwaaa+M5UP3XaQAVoGZzUGPIuq0CqjPnLpGn12ENULkd8qa4hEyYDIBKeA2MT0xRXUOn8O1cLwDp+3UxMaYcqDIyI7SaKdIi40qLDNIfDakcqP7PAoDKkGCAfW8O5lYB1VNXXiIXV08NUHn7BFL00VSYDIBKeA2wmyM3NHUL3059g9J6t5ecbM6BKiU1FECFhEpSA/8wq+JQ9eWXdxU3hwYgsjkQEaVuq4DqhVfeIaf9zhqg8g8MpyNRCTAZAJXwGhgemaCmlh7h27leANL367KytnGgSkgMkjRTg6QigBuj6o//MKkGqs9u3wJQYWK6ojSwCqjeeOcW7d3rqAGq0LAYCg0/CpMBUAmvgcGhMWpp6xO+nfoGpfVuLz9/Oweqo7H+RmXggDjjutT4b8bUQPXhu68qykxFSVnQjs2nbKuA6v1bn5Ptzl0aoIqMTqKg4EiYDIBKeA30D4xSW0e/8O1cLwDp+3VFRTs5UEVG+QKokIpJauDPR9RAdevlCwAqJFSK0sAqoPro8+/Iymq7BqhiEzLocEAYTAZAJbwGevtGqKNrQPh26huU1r294r0cqMLCvSTNFGmRcaVFhuiPPx5SA9X1yycUZaZIdjaf7IhSu1VA9dXdX5OpmZkGqJJT88nHNwgmA6ASXgPdPUPU1TMkfDvXDUB61nxR8QEOVMHB7gAqJFSSGvj1oBqo3j8/DqBCQqUoDawCKkaKZmbmNDV/nkMVWyXdw+swTEbP5mIoU8N+pe8d2Nk1SD19w9C6TFovKnZXA1XIQUkzNUQign0aVyr20wE1UF19tEtRZipKyoJ2bD5p0wpUNja2NDb5KAeq3IJqcnP3hsnIZDIAHGnA2erasPlTbB7VVu/3QdlfQZEvB6qgYEcAFRIqSQ1802/Kl024+lAtgAoJlaI0oBWo7B0caWD0BAcqNtgfdHaHyQCohNcA+4Yf+6bfgwI4W93OvIJgDlSBgXslzRRpkXGlRYboj8/6zNRANVekKDNFsrP5ZEeU2mkFKhdXN+run+VAVVHTwdel2urBF/sznuTmQekLtgYVW4vqQWnvVrczKyeKA5W/vx2ACgmVpAY+6LXgQHVtKg1AhYRKURrQClTePn7U1jXBgaq2sY/sHZxgMkiohNcAWyWdrZa+1aDxoOwvJS2JA5WPj42kmRoiEcE+jSsVu9ptxYHq+lisosxUlJQF7dh80qYVqIJDwqihZYgDVXP7KO3ebQ+TAVAJrwF2Hz92P78HBXC2up0JSTkcqDw8tgOokFBJauD5RlsOVDeHggBUSKgUpQGtQBUVE0fVdd0cqDp6pvhCn1s9+GJ/uOS31RqoqeugY5PTACqZPjykpBVwoHJ13SZppkiLjCstMkR/PF2/iwPVBwOHFGWmSHY2n+yIUjutQJWUnE6lla0cqHqHFmjHDhuYjEwms9XQgP1Jg2pVTTtNTc9A6zJpPT2rhAOVk5M5gAoJlaQGztbZc6D6pG8fgAoJlaI0oBWosnIKqKC4ngPV8PjDtM3SCiYjk8kAcKQBZ6trU1HVSjOzc9C6TFrPzq3gQLV7t6mkmRoiEcE+jSsVe6TGiQPVF712ijJTUVIWtGPzSZtWoCouraTsvAoOVBMzZ8jMzAwmI5PJbDU0YH/SAFdW2UJz8/PQukxazyus4UC1Y4cJgAoJlaQGFqtdOFDd7d0BoEJCpSgNaAWq6romSs0o4kA1e/wiHwSLShthNDIZDSBHGnK2sjYl5U20sLAIncuk88KSBj6WmJqqJM0UaZFxpUWG6I/JSk8OVD/v26YoM0Wys/lkR5TaaQWqlrZuSkjK1gCVhcU2yi+qhdHIZDRbCQ3Y19rwtrC4SCXoZ9nOdUtLFYeqmtoUQBVSKq0aGC7340D1BwNmACokVIrSgFag6ukfoZjYVA1Q7bC2oey8StkGWZj82iaP+mxdfdglv7KKFmhdJqjcs0cNVBWViVrN1BCJCPZpXKlYf2UQB6rfD5koykxFSVnQjs0nbVqBanRilsKPxGuAateuvZSRVQqTkclkAExbB0z3qzWblM4mp9/vdXh+c33m4qIGqpLSOAAVEiqtGuiqCudA9a9GVQAqJFSK0oBWoJqZP0VBIZEaoHJw3E8p6YUwGQCV8Bpgyyaw5RMATJsDpvvVzddXDVQFhTFazRRpkXGlRYboj7bqaA5U//4YgApp0ebTIkPUTitQnXzkLPkdDtEAFbs5cmJyLkwGQCW8BtjCnmyBz/uBAZ7fHHCFhprwOVQ5uZEAKiRUWjXQXBvPgeq/zQCoDAEF2OfmIU4rUJ05f5k8vA5rgMr9kA/FJmTAZABUwmuA3XqG3YIGwLQ5YLpf3Y4eNeVAlZEZrtVMDZGIYJ/GlYrVN6RyoPr/FwFUgJvNw40haqcVqJ5+5mVycfXQAJW3byBFH02ByQCohNcAuzkyu0ny/cAAz28OuFJSzDlQpaSGAKiQUElq4H/MqjhUffnFN4qaQ2MIE8c+jQe6tALVC6+8Q/ucnDVAFRAYQRGRCTAZAJXwGhgemaCmlh7h22koIMzKsuRAlZAYKGmmSIyMKzEyRH/83aQaqD69fQNAhYnpitGAVqB6893btGevowaoQsOPEvsx1CCM/W4uDUDdNl63waExamnrg9Zl+vCQn7+DA9XR2MMAKiRUkhr412NqoPrwnZcVY6ZIiownKTJUX2gFqvdv3yFbWzsNUEXGJFFgcCRMRiaTAfhsHHzkqln/wCi1dfRD6zJpvahoJweqyEhfSTM1RCKCfRpXKvbPR9RAdeul8wAqJFSK0YBWoPr4zvdkabVdA1RxCZl02D8MJiOTycgFB9juxkGtt2+YOroGoXW5tF5sz4EqLMwLQIWESlIDfzykBqrrl44rxkwNlYpgv8aTjGkFqq+++w2ZmppqgCo5LZ+8fYNgMnKZDLZrNNrq6hmi7p4hozke0aC4qPggB6rgEHdJM0VaZFxpkSH649eDaqC6dm4UQIWESjEa0ApUjHjNzc1pau4ch6qM7FLy8PSDyQB8hNcAS6dYSiUayBhLe4qK3dVAFXwQQIWESlIDPxlQA9XV0x2KMVMkRcaTFBmqLySBytZ2J41OPsqBKq+whlzdvWAyACrhNcDmT7F5VMYCIKIdR0GRLweqoGBHSTM1RCKCfRpXKvZ1vylfNuHqQzUAKiRUitGAJFA5OO6jgZGHOFCxQZ2tli7a4I72bHyOkeg1Y9/wY9/0E72dhmpfXn4IB6rAwD0AKiRUkhr4rM9MDVRzhYoxU0OlItiv8SRjkkDl6upOXf2zHKgqazr5ulSGGoSxX4DPVmmArUHF1qLaqv09aPvJzI7mQHX4sJ2kmSItMq60yBD9cbt3Gweqa5NpACokVIrRgCRQ+fgeptbOCQ5UdU39ZO/gBJPBJT/hNcBWSWerpT9ooLNV7U1OTeZA5eNjA6BCQiWpgavd2zlQXR87qhgzRVJkPEmRofpCEqhCQsOpoXmQA1Vz+yjt3m0PkwFQCa8Bdh8/dj+/rQKMB20/Cck5HKg8PLZLmqkhEhHs07hSsecbbTlQ3RwKBFAhoVKMBiSBKjomjqrqujlQdfZOk+3OXTAZAJXwGqip66Bjk9PCt9NQIJeSVsCBysVlG4AKCZWkBp5u2MWB6oN+d8WYqaFSEezXeJIxSaBKTkmn0ooWDlR9Q4u0Y4c1TAZAJbwGqmraaGp6Vvh2Ggqo0rNKOFDt22cuaaZIi4wrLTJEf5yts+dA9UmfI4AKCZViNCAJVNm5hVRQXMeBanjiYdq2zRImA6ASXgMVVa00MzsnfDsNBVTZeRUcqHbvNgVQIaGS1MAjtU4cqL7otVOMmSIpMp6kyFB9IQlUJWVVlJVbwYHq2MwTZGZmBpMBUAmvgbKKFpqfnxe+nYYCqrzCWg5U27ebSJqpIRIR7NO4UrGFKhcOVHd7dwCokFApRgOSQFVT10ypGYUcqGaPX+SDYFFpI4wGUCW8BhYXF4Vvo6GAio0hKpWKTExUACokVJIamKjw5ED1i75tijFTQ6Ui2K/xJGOSQNXa3kMJSdkaoGKX/PILa2E0ACrhNbCwsEgl5Vj7Sy7osrJScaiqqU2RNFQkRsaVGG11fwxXHOZA9bsBMwAVEirFaEASqHoHRin6aKoGqKytbSk7r1J4M5XLRLBd5QDK3Nw8lVW2QOsyfXjYu1cNVBWViQAqpFRaNdBXEcyB6p8NmSjGTJEUGU9SZKi+kASqsWOzFH4kTgNUu3bvpYysEpiMTCYD4DIe4JqZmaOK6lZoXSatu7qqgaqkNE6rmW51GoL9GV8a1lUVzoHqr0ZVACokVIrRgCRQzS48TIHBkRqgctx3gFLSC2AyMpkMgMp4gGpqaoaqatuhdZm07uenBqqCwhgAFRIqrRpoq47mQPX/HgNQGSptwX43nrhJAtWp0+fI93CwBqjYzZETk3NgMjKZDIDKeICKLexZU98Brcuk9bAwEz6HKic3UquZIjEyvsRoq/ukqTaBA9V/nwFQAWw2DjaGqpkkUD1x4Qp5ePppgMrdw4di4zNgMjKZDIDKeIBqfGKS6hq6qAR9Lcv5HhtrxoEqIyMcQIWESqsG6htSOVDRcRXd/envFHPJx1BGjv0aB3RJAtWlZ14hZ1cPDVD5+AZR9NEUWQZYwITxwMSD3BedXYPEJqSzZRPYz/Hjx6kal/70fs6npJhzoEpJCdFqpludhmB/xpmIsXSKAdWXX3wNoMI8KkVoQBKoXnz1XdrndFADVAFBERQRmaD3wfVBNnC03bhAcnBojEMUA6mln/qmLmhez0lddrYlB6qEhEAAFRIqSQ2w+VMMqD65dV0RZoqUyDhSIkP2gyRQvfXebdqzx0EDVKHhsRQadhTmomdzAVQZD1S1dw5oQGoJqKpqMDld3xrNL9jBgero0cOSZorUyDhTo63sl78aUwPVh2+/CKBCQqUIDUgC1fUPviAbWzsNUEXFJFNg8BEAFYBKWA3UNXSuAqrS8mZh26tvUFrv9oqKd3Kgioz0AVA9oAnVZGEMvRXhTc+tAdV/NqAGqkBHFbW09yjCUA2ZjmDfhk/IJIHqkzs/IUtLKw1QxSVm0mH/UJgLgEpYDZSUN68AKjafar2QgNetP2ksKrbnQBUa5gmgEg2o6lOpuS6e2LIHXVUR1FsZTIMV/jRW7k0vZjjRT+Js6e8izIjCVUTRKvqnBBVdrrCnl2p20dv11nSjyYo+ad1GnzaZ0N9PqYEq2lm9zAagyvDAAGhbuw8kgerr739LpqamGqBKSSsgb99AGAyASmgNTE7NaKBqcnJa6LYaCgKLig5yoAoOdgNQbRVQ1SdTc208tdcw0AknthL5UMVhGiv3oalyD5ord6UT5QfpdPk+OlvhQBcr93DQebnGjt5psKabzVb0SZsFfd1hRj/rNqXf9pnQnw2q6C9GVPQ34yr6z1Mq+sc5NQCxeU8b+flcpaLvVSr6rUpFv1ep6K9UKvo7lYr+wUlFv3FWkbUFgAogszbIGEt9JIGKHaCFhQVNzp3lUJWZU8aXUTDUIIz9rj8BQK02X6vlE9NHRo8BqGT4AFFUfEgNVCEHHnigaqxPppbaOGqrjvoR6HjTVJkHzS+BTgUDHXt6qnIPXam0p1c46OzgoPNpmwV902lGP+82pT/oM6HfD6roL0dU9LcTKvr7aRX9r/mNAc4SDLGbWG/0x9RURdu3q2jXLhNydDSl97er6L+bqIhU0j8nomxpMcOO/m975x0fZZX18UlPJr2H9N577yG9T+pMeg8JCRB6QijSi3QQlWahqYhYULAL4mLbtazrvrvq6+ruR1dFd91XX33Vdfm9n3NnUlA3hYTsTDh/5CNIknnmPN+593vPPc+568rNsanJHNvnm6MizQBGEgm+lkhgrLoOzlBphlSoi9z8J65jRKEyNTPDot7NQqgKZTVwdfPmCeY6TDAsQNcuQJMdu+GF6XPnLWLerwPvMpm/mKhDQu3UVqga60h0EtFeHYvZigjMVYRgfmUAllT6YFmlB26qoIyOI7ZU2mOnSnT2K6xxpNYMJxukeKTZAE+26eFuq+/2AAAcY0lEQVR5Ep0ubbw5Rwt/7JHgw0USfLpUgv/pl+CHKRQdHR0JpNIB0dGBk5Mu3N314eVlBF8/EwQGmSMs3AoxsbZISnZARqYTSkttUFdng44OayxebIXVqy2xbbs5Dhwww4kTpjhzxgQXLkjx2muGePddA3zyiR6++koP33yjg+++08YPP2jhxx+18K9/SXDlfyS48qwEV26W4IpcgivuQ4L17Sc6+PprfXz5DwN8/rkUf/3EBH/+izm6u3XwqUQCOwnXUP0n5IBfc/wCO6JQ2dnZY+7CtUKoqL6EuqVP9gTGv099ZILvRROGF6Z3zO5h3q+DUPn42g9mPkLDPMclVSKjU5OIWdUxStGRB2OBXCk6/SQ6lS5YT6IjV4rOvipLHFBY4WitGe5vkOJMiwGealeKzitd2vjtXC28M18COjPus6USfNUvwT9vmrqMzoDoWFpqwd5eB87OKtHxVopOULA5wiOsEBtri+QUB2RmOaGszAb19TbonG2NJUussGaNJXbsMMeBg2a4515TPPaYMZ5/XorXXzfCe+8Z4NNPSXR0fyI6EqXoXJHgyrAvEqB//lML33+vg2+/1VWKzpeGStH5qyk+/LMF3nvPCm//3g6vv+GIl15ywfkLnjj3uC9OPxSE4yfCcfBQDHbtTcLGzenoX5mLeQtkaGmTo7Kq7qrPU3OBHJ255Vf9v+FjkIeXP74wM8erp89xQTo/5acRDIwoVK5uHuics1wIlaKmA/YOzv8W/uEfBP4zS5KmMjC8ML2lbQ7zPkahklfWoV5RjbaqSnTVlGJBXTH6GvJxU2M2NjRnYFtrKva2J2FtsRMWJ0qwKk25nbQnT4JjCj082mKAp9t1cbFTB692aeGtYaJD/Yi+Xi7Bj1MoOrq6EhgbSzAkOnpw9zCAt7cR/PxMERRkjohIa8TG2SIlxQFZ2U4oL7dBQ4M1urqssXSpJdaus8DOneY4dMgM991nirPnjHHxohRvvGGE9983wOXLKtH5dnhGZyTR0cZ3KtH56it9fPmlIS5fluJjlei8+561EJ3XXnfEiy+54rnznjh3zg8PPBiEY8cjcOBQLHbtTsL6TRlYtjwPc3tkaG6Vo1zeoJacOzq64jN7B7x2/LRGTKac0Rl/Rme6xWxEofLzD0RrxxIhVHVNc2FjY6+WHzxNnbz5utVTPPv7V4jC9PpGzW/qqaisQ4OiCm3VleiuKcXCuiIsI9FpysbG5nRsF6KTiAOz4nB3ZxTu6QqDrKwexSW1KC6pRpGsCkUyBYpkchTJKlFMXyWVkJVWorRMjrJyBSoqqyCXV6Oquha1tfWob2hEU1MzWlvbMKujA0nJKaIFi5HUGDo6yi7p463NGfh+PT0JTEy0YGWlDQcHHbi46MFDiI5UiE5wsAUiIq0QF2+HlFQHZGc7oaLCBo2N1ujutkJvryXWrbfArl3mOHzYDCdPmuDcOWO88IIR3vytEf70J318/rkevv5aF98OiM4/aevq56LzrysSsaX1ww/a+O47HXzzjS5IdP7+d5XofGyKDz60wDvvWuN3b9vjN6854tKLrnj2OS+cPeeHU6eDcfR4BPYfjMOO3clYtzEDff15mNNTgsYW9RWdqRq3qA/iJx5eePPwcRYqzlBpBAMjClVYRBTqm3uEULXMWgwLS2sWqjGu2Kdq0OHXmXwpo2J0auypqGm7Trw3okolOu3VFZhTW4pFQnTysLopG5uE6KTglvZEHOyIFaJzb1coikuVolNUUqMSHTmKiodER1ZSiRKV6JQPiI6i5mrRaW5Ba1sbOjo60dXdjXnzerBw4SL09vZi+fLl4sidFStWoK+vD4sWLUJPz3x0d89BZ2cn2tra0dzcgoaGJtTWNaC6uhYKRQ0qK6tQXqEQgkWvT9dB4kUCRiKWk1eGzOwS5ORVwNsnaHC7b0CSYmKM0NdnhQ0bLLF7tznuuMMM958yweNPGOPSJSO89ZYhPvhAH198MSQ633+vLbamSHSGb1nRn6lmh7auhkSHMkFK0fnssjE++ono/Po3TvjVJTc886wXHj3rj1MPBOPIsUjcvj8O23emYN36TPQuy0fX3FI0NFehtEI9MzrTbSyQSk3waUgY3rrloEZMptMt28LvZ/wZtxGFKj4hGVW1nUKoOrr7YWpqfp0mmMmfFKfb4MLv5/ozUlbRiCp5LZbO6cCuNQswt04pOv0NeVjTlIVNLenY0ZqCfe0JQnSOdEaipLwRsrI6FJfWokhkdCibo8zoFMvkQixIMGSl8qszOoqhjE5DQ6MQFRIWEp3u7m709PQIoSHRIcGhswXpv/R3pej0CNHpuEp0GkWGiERHrqgRmaOyQdGRK0VHyA5JGH3RdVaJ66brp/dB7+d6s+YfEDYoVcuW6eBvfzfCZ58Z46OPTPGnDyzxx3ds8Nbv7EGi88IlNzz9jBcefcwf958Kwd1HInHb/nhs35GCNeszsaSvAF1zSlHfRKJz/Rnh15i6GFPbnsuJKfj91j0sVJyh0ggGRhSqmRnZKJe3CKGas2ANKGXPA8rUDSgca2WsyyoaUC2vRZNCgY7qCsytLcHi+kIsV4nO5paZ2NmmFJ1DHTE4OlspOkUltcgvVKCwWLltVSgk4t9kdCpUW1eKGiE1JDCUiaGMDIkOZWgoU/NLokOZnQHRmddDotMtfgf9XFNzC+opo1NbLzI6A6JDGSTaMvuljM6Q6NQIUZOV1k+J6DBv/NlWFwYKiqpgamqGy9n5+MO6LRoxmXJGZ/wZnekWsxGFKr9QBpqUVqzZi4VLN0Ff34CFilfBgwyUVzSgRl6D5ioSnXLMqy3BEhKdxlysbcrCFiE6ybi1PQGHO2JwbHYEZGUNKJTVIq9Qgey8cmRklyAtoxDJqblISMoCHXFEh3CHRyYgJDQGgUGR8PMPhbdPIDw8/eDi5gVHJzfxgISNrQMsrWxhZm4JYxNTGBpKoaenLxrS0nYS1evoGxiivLxcbG11dZHodKC1dUB0lBkdqv2RK6qVGZ1RRKdYViVqi2QllNGpH4yFukxEfB0sRdOBgYwsGdw9vPCJrBzv9q9moeIMlUYwMKJQlVVUI7egUghV74rt0NbW4QlEA4SqoqIBtUJ05OisKUdPrUyIzorGXKxryhSis6stGbfNiscdV4lOzZDoZMmQlj4gOpkq0UkWB2QHh8YgICgCvv6h8PIJhLuHL1xcB0THCUrRsYGZmSWMjUl0jIaJjhZ0dXXFsUZUI0HbyBYW1rC2sYOdvSNmOLrC2cUDbu4+8PQKEN35/QPDERQSjdDwOEREJSEmLhXxiRlISslB6sx8UBf/rJwywWpBcbWoNZoOkwq/B5ajG5WBxORsRMfE46OqOry/oFcjJtPplm3h9zP+jNuIQlVb34L0LJkQKspSaWlp8dbDBISqorJeiE5LlRyza8qE6CytL8BKEp3mTNzckobdg6ITjeODGZ0a5BXIkZ1bDlq5paUXICk1F/FJmYiJS0NkdDLCIuIxKDp+IfDyHhAdT1VGx0k8pWlpSaJjAamxKQwMjaCrpwctLW1xb3V19YZEx8xCPIRgbWM/THQ84ebhA0/vAPj6hYizHYNDohEWHo/IaBKdtGGiU4D0rGJk5ZLoyMGiw3Jwo8oBv+/xs0/jSW5+Ef7S1I4PZs9joeIMlUYwMKJQtc7qRnJa7qBQ0ZYfdUyfbgNEZWU96uTVaFWJzvy6YvQK0cnB+uYMbBWik4TbZ8Xjzs5onJgdDqprKSiuEbJA0kDimUqik5KD+MQB0UlSiU40AgIjhIR4eQeoMjqeIhtjZ+8EkhZ6gtJUiI4JDAyMQHJDAktfStExgtTYRHyPhaWN+Bl7eyc4OrnCxdVT/E763UrRiUBwaLR4bZItpehkgg64pmuka6VrJkkrLK7hrasJSPJ0+yzw+xn/5M8xm/yYBQZHghb0JFMkVZwtGX+2hGM29TEbUajm9CxGXEL6oFAZm5iJSXiqBhB5Zb1oFtgqmgWWiWaBvfX5WNWYI5oFbm1NxZ62JOyfFYe7SHS6wsV2D2VDKCsiRCezGKkzB0QnQ5XRSUJYeBwou0LbST5+ISLrQttMzi4DouM4JDqm5qDtKQMDw2Gioy2yO7SdRdtalPWh7A9td9k7kOi4DROdQPj6h4htMsoiUTZJKTozkZCUKeqHKOtE2SfKQuUVyoW4Ur3RVMWaX2fyJwWOKceUGbg2Bmi7f96CXry/sBcfK2pZqDhDpREMjChUi3tXipoV2u6jLxIGkhRqFii6IquaBf5yV2Rls8C7RLNAEp06se2Tm18p6l2o7oXqXyijE5eYgejYVPFaVCcTFBKlEp1gUUejFB0PVUbHEdbWdqLuhupvpFJjUXiso0sNA7VEQTIVJg+KjrklLK0GRMdZJTpecPf0FfU/VAcUGBQhCqDDIxIQFZMs6oWoQJoKpamOKCNbJgqoqZCaMnQsOtc2SPLkwnFjBpiBsTBAC9K1G7bi3f41+KS4TCMmU84ITX1GSN1iPqJQrVy9UWwdDQiVlbWd2Fry8SXR8ReFw1RAPGOGC2ztHEH/bm5hNdgVmbYIBzojU08RpehIxRNZ9GQWPaGlzOg4i3MCXd28xJNc1PyPnuyiJ7xCwmLEE1/05Bc9AaYUnTzxZBg9IZadVyEKqYtktSgp54zOWAYr/h6e1JgBZkCdGaC5ZN/+u/CHdTfjcnYeCxVnqDSCgRGFasOWXUJsBoSqfXafEB7a3w4Jix0mOulISM5CSloeZmYUDXZFzi+ipoEkOte/WaA6Dw58bTx5MQPMADMwdgaoXvTeU4/h99v24ovkNI2YTNUtW8LXM/UZsxGFasfu/aATvweEioqlqT6JB4axDwwcK44VM8AMMAPjY0BbRwdPnX8Fb+07hC+jYlmoOEOlEQyMKFS3HjgiegKRUC1dvg0EOQ8M4xsYOF4cL2aAGWAGxs4ALdqNTUzEBPrG4eP4KihEIyZTzghNfUZI3WI+olDdefR+0KP5JFRdPavEY/s8MIx9YOBYcayYAWaAGRgfA1Qb6+LqLiTqtROn8b+e3ixUnKHSCAZGFKp7Tj0qnpAjoWpomS+KznlwGN/gwPHieDEDzAAzMHYGElOyERoWISbQVx88h/+b4agRk6m6ZUv4eqY+YzaiUD306DMwMTETGaqyymbRcoAHhrEPDBwrjhUzwAwwA+NjICo6Gcmp6UKiXj53Ad9bWLJQcYZKIxgYUagef+aS6PFEGSo6yJZaJfDgML7BgePF8WIGmAFmYOwMBAVHIb9QJibQS+dfwY+GhhoxmXJGaOozQuoW8xGF6sKlN8TRJyRU1NGb+kLxwDD2gYFjxbFiBpgBZmB8DNARWpWKWrx+5CT+e2Efrkgk4viZ/9q4jcWKM1VqzcCIQkX2p6evj74VO0QncTqwkgeH8Q0OHC+OFzPADDADTeKECTppYrSD3uns0sbmWfja2xeQSAa/fjA1U+vJVN2yJXw9U58xG1WozMzMsbB3s2jomZiczULFB+kyA8wAMzCNGJiqg97peDBjYxNYWdvA0dEZHp7eCAgMRnhENOITkpGWnoXcvCI0tszC+V+9jo/lNYMyRWL1t6RUFirOUKk1A6MKlb29A+YuWCOOiKHDe3mlxattZoAZYAauPwPFpfXK80+v80HvlBEyMTGFtY0tnJxc4Onlg4CgEERExiA+MQUzM7KRm1+MkjI5FDUNIns0a/Y8zJu/FEv6VoGOKFu/aQe27bwVe2+7AwfuOIEjJ07jvtNn8fBjz4JqcUmQxpsxeXvXbVcJ1YftXeP+HeN9Tf7+qc/qTKeYjypUbu4e6JyzHIZGUtBRMjyQXv+BlGPMMWYG1JeBazro/afnnzq6ws5+pIPeJdDT04OJqSlsSHScXeDl7YvAoFBERsUiISkV6Rk5yCuQobRcgaqaRjS1dKCjqwfzFvRi6bKbsHLNJmzYvBPbdt2GW26/EwfvvAdH73kQJx88h0fOPocnnn0RF65BdKZyAvzRSDooVW/v2MdCxRkqtWZgVKHyDwgSPajocGMe5NV3kOd7w/fmRmeguKQOBUVVyMmvRGZOKWZmFiFlZj6oVCEuIQPRsamIiEpEaHgcgkKi4B8QhqGD3r3FqRBjOehdX18fpmZmsLW1g7OLK7y9fREUHIrI6Fgkkuhk5iC/sASl5VWorm1CU2snOrvmo2dhH3r7V2PVms3YuGUXtu++HftuvwuH7roXR+99CPc/+DgeOXceTz73EuiBoKkUF3V9rcuZOYNC9fLZ8xwTFiq1ZmBUoaL97dKKRkilxixU06hu4kaffPn9T42A0sHoRSV1Irudk1+hFJ2MInGQulJ00odEJywW9Mg8iY63b5A4R9TVzRtOzu5wmOECW7sZormwuYWV6I9nZGQMfX0D6OjoQCKRQN/AAFTzaWtnDxdXN3j7+CE4JAxRMXFISk5DRlYuCopKUFZRhZq6JjS3dWJ29wLMX7QMvf1rcNPaLdh4827QGab79t+Nw3ffh2P3PoxTDz2BM49fwFPPvYznX3xTrQd0dRWja72ud1atF0L1nbUNx51lSu0ZGFWoEhJTQEcBWFrZslCxUDED04QBpejUKkUnrwKZ2SWYOSg6WYhLSEdUTArCIxMREhaLwOBI+A2IjqcfhkTHWSk6VrYwNx8QHakQHTr7k0THwMAQ5uYWsLN3gKurO3x8/RESGo7omHgkpcxEZnYeCopKUV5ZjZr6ZrS0zcbsOQuwYPEy9C1fg9XrtmDT1t3YuecA6HzRO46cxPH7HsGph5/Eo088Lw7RvfjSb9V+sL1WqbiRf+7lc+eFUP0jVNk5/UaOBb939a/vGlWoKH0dGz8TMxxdeTKdJpMpZ2emJjtzLXEeFJ1CBXLyKsRiJi2jEMlpeUhIyhKfRaXoJAyJjn8ovH2CxJO4rm5eyoyOgzNsbR3EQsjM3BLGJmaiDlJPTx/a2jqiv5yhoRHMLSxh7zADrm4e8PULQEhoBGJiE0Sn6qzsfBQWl6FCXoPa+ha0tneha+5CLFjcj2Ur1mL1+puxeese7Nx7ALcdVIrOiZOP4IFHnsJjT1zE0xdeZcnhrMKEGfjB1BSfp8yc8O9hIVF/IdH0ezSqUBUUloh6Aw9P7pJ+LRMk/4z6yst47o2srAGFslrkFSrEqQGUtU1LL0Ryau4w0UlGeGSC6NlGTXD9hOgEwt3TDy5uXuLoJnsHZ/HErKWVDYToGJvC0FAKpehoC9ExMjKChaUVHBwc4ebuCT//QISGRSI2LhEpaRnIyilAkawcFYpa1DW0onVWN7rnLcLCJcvRv3Id1qzfii3b9mLXLQdx+8GjoEPO77n/DE6T6Dx5Ec88z6Kj6QP3DXX9lH3kDCQLpQYsTkYVKkrDe3j6ISAogjNUnKFSOwaUolOjFJ3cclBrjyHRyVRmdKKTERYRj+DQGMGxr38ovHwC4e7hCxfXAdFxUoqOpQ3MzCxgLETHaFB06KEMqVQKSxKdGY5w91CKTlh4JGLjk5Calons3EIUl1SgUlGH+sY2tHXMwZx5i7Fo6Qr0r1qPtRu2Ycv2W7B73yHcfugY7jp2CnQA+YNnnsbZp17Asxd/zYOmBgyaN5TM8P3gzyQzMGYGRhUqWgFTQSg9HTOeFT1/7/TIzFzrfZSV1eOnXZFT0wuQlJqL+MRMxMSlIXJQdKKVouMXAi/vAdHxVGV0nGBjYw9LSxuYmllAamwCA0MjUO8cLS1tUZAsNTaGlZU1Zjg6wcPTC/RkanhEFOLik5A2MxM5eUrRkVfVo76pHe0dczGnZwkW967E8lUbsG7jdty8Yx/27DuM/YeP4+7jD+DeU4+BDgc/9/Sv8OzF34z5A8WTLW8rMAPMADNwYzIwqlDRKtvC0lpsa1zr5Mo/pz5y9bNmgVkypM4sQFJKzjDRSVJmdEKiERAYDl8hOgEio+Ps6inq6ezsnWBtYy/YEKIjNRHFx0rR0YKuqiuyNXVFdhrWFTlyWFfk/CLISiuhqK5HQ3M7ZnXOxdz5S7CkbyVW3LQR6zbtwNYdt2LPrcpmgXcfP437HjiLh6hZ4NOX8NwLr7Ho8OqRGWAGmAFmQC0YGFWo5vYsgZHUGOmZxZyhuo5bfkOiU4ms3DIR7yHRyVBmdKKSECZ66ETDPzAcPn7B8PQOgJu7D5xdBkTHcUh0TM0hHRQdXVGf80tdkQNVXZHpiU7qipz3S12RFwzrirx5qCsyNQs8cuJBnDx9Dg9Ts8BnXrymrsi8orsxV3R83/m+MwPMwHRhYFShoqMF6Aym/ELFDSlUV3dFLlWJTj4SU3KGNQtMGmoWSKIzhq7IJKn6BobQ0dEVj5ZTUbKpqRlsbO3g5Oyq7IpMzQJH6Yrco+qKvGosXZG5WaBarGKmy+DB74MnQmaAGWAGhhgYVaiWr1ovMhvqtm1HXZHpKJxf7oo8rFkgZXRUzQKHREfZFflnzQJNzTHULFApOj/riuzjh6DgMERFxyGRmgVm5oquyNQscLArcvewrshrh3VF3q/sinxM1RX5DHdFZsHhVD0zwAwwA8zAtGBgVKGiDJWRkXRM2amxdUVOQURkIkJVXZEHmwV6+Q9rFjjQFdkW/64rsoGqK7LdiF2RS1FWUY2aumY0U7NAVVdkahZIXZE3UVfkPcO6It83rCvyee6KzCuPoZUHx4JjwQwwA8wAMzASA6MKFckHbfkpj38Y3hXZUnX8gxR6+gaiWaDoimw4rCuy27CuyLHxSFZ1RS4sVnZFrh3siqxsFti3fC1Wr7sZm6hZ4E+6Ij+g6or89PlXwF2RGeqRoOZ/Yz6YAWaAGWAGppqBUYWKLogO8VxDXZG37cGuvQdx28GjuOPo/Thx8gx3ReZU7bRI1U71B49fjwd7ZoAZYAamFwNjEiq+6dPrpvP95PvJDDADzAAzwAxMLgMsVJxh4gwTM8AMMAPMADPADEyQARaqCQaQDX9yDZ/jyfFkBpgBZoAZ0EQGWKhYqHhVwgwwA8wAM8AMMAMTZICFaoIB1ESL5mvm1R8zwAwwA8wAMzC5DLBQsVDxqoQZYAaYAWaAGWAGJsgAC9UEA8iGP7mGz/HkeDIDzAAzwAxoIgMsVCxUvCphBpgBZoAZYAaYgQkywEI1wQBqokXzNfPqjxlgBpgBZoAZmFwGWKhYqHhVwgwwA8wAM8AMMAMTZICFaoIBZMOfXMPneHI8mQFmgBlgBjSRARYqFipelTADzAAzwAwwA8zABBlgoZpgADXRovmaefXHDDADzAAzwAxMLgMsVCxUvCphBpgBZoAZYAaYgQkywEI1wQCy4U+u4XM8OZ7MADPADDADmsgACxULFa9KmAFmgBlgBpgBZmCCDLBQTTCAmmjRfM28+mMGmAFmgBlgBiaXARYqFipelTADzAAzwAwwA8zABBlgoZpgANnwJ9fwOZ4cT2aAGWAGmAFNZICFioWKVyXMADPADDADzAAzMEEGWKgmGEBNtGi+Zl79MQPMADPADDADk8sACxULFa9KmAFmgBlgBpgBZmCCDLBQTTCAbPiTa/gcT44nM8AMMAPMgCYywELFQsWrEmaAGWAGmAFmgBmYIAMsVBMMoCZaNF8zr/6YAWaAGWAGmIHJZYCFioWKVyXMADPADDADzAAzMEEGWKgmGEA2/Mk1fI4nx5MZYAaYAWZAExlgoWKh4lUJM8AMMAPMADPADEyQARaqCQZQEy2ar5lXf8wAM8AMMAPMwOQy8P9fe7MvWb1JvwAAAABJRU5ErkJggg==;" vertex="1" parent="1">
          <mxGeometry x="209.96" y="1120" width="460.82" height="300" as="geometry" />
        </mxCell>
      </root>
    </mxGraphModel>
  </diagram>
</mxfile>
